<svg width="166" height="156" viewBox="0 0 166 156" fill="none" xmlns="http://www.w3.org/2000/svg">
<g clip-path="url(#clip0_161_782)">
<path d="M31.6187 15.9685C31.6584 18.3047 32.1415 20.6102 31.9596 22.9617C29.9534 43.5934 37.4405 61.2305 48.8321 77.2613C52.752 82.782 58.5206 87.6182 64.5285 90.9899C81.533 100.841 100.039 106.357 119.781 106.886C125.47 107.05 131.309 106.09 137.09 104.243C135.378 103.581 133.547 102.817 131.73 102.274C126.502 100.63 121.17 99.1054 116.032 97.1215C113.861 96.2691 111.855 94.5143 110.07 92.7442C109.362 92.1249 109.233 90.129 109.737 89.3146C110.241 88.5001 112.089 87.8155 112.783 88.2131C125.51 93.905 139.428 95.6166 152.973 98.4676C157.715 99.4765 159.306 101.705 157.923 106.145C154.399 117.08 148.573 126.838 140.768 135.285C140.561 135.522 139.778 135.465 138.447 135.557C133.765 126.859 142.525 121.13 144.39 112.092C142.32 112.791 140.693 113.461 139.155 113.79C108.215 119.157 80.0043 111.639 53.9985 95.17C50.0576 92.7692 46.4884 89.229 43.4662 85.5397C32.4541 71.9329 25.6575 56.3643 24.0812 38.8758C23.6047 33.2286 24.7837 27.3556 25.7554 21.7196C26.0554 19.4714 27.8179 17.4562 28.9153 15.487C29.8165 15.6475 30.7176 15.808 31.6187 15.9685Z" fill="url(#paint0_linear_161_782)"/>
</g>
<defs>
<linearGradient id="paint0_linear_161_782" x1="103.842" y1="53.6861" x2="61.3812" y2="102.233" gradientUnits="userSpaceOnUse">
<stop stop-color="#FFBF00"/>
<stop offset="1" stop-color="#F2A60C"/>
</linearGradient>
<clipPath id="clip0_161_782">
<rect width="163.093" height="64.496" fill="white" transform="translate(42.4608) rotate(41.1741)"/>
</clipPath>
</defs>
</svg>
