<svg width="216" height="251" viewBox="0 0 216 251" fill="none" xmlns="http://www.w3.org/2000/svg">
<path d="M5.8612 14.5171C57.5385 34.5028 111.5 48.2073 166.318 55.6306C173.456 56.4871 180.593 57.3436 187.446 58.2002C191.728 58.7712 196.867 58.4856 200.293 60.7697C200.865 61.3407 201.435 61.3407 201.15 62.1973C200.864 62.7683 198.866 64.1958 198.009 65.0524C192.87 68.193 186.589 69.906 180.879 72.1901C154.326 82.4685 127.488 92.1758 100.65 101.883C73.8126 111.305 46.9746 121.583 24.9904 140.141C22.9918 141.855 22.4208 144.71 23.2773 146.994C26.4179 159.556 40.1224 161.84 50.9718 163.839C65.5328 166.694 80.0938 169.263 94.6548 172.119C106.932 174.403 120.065 176.116 131.2 182.397C139.48 187.251 145.476 194.959 148.616 203.81C152.042 213.803 152.042 225.223 147.474 234.931C145.761 238.357 146.618 242.64 150.044 244.638C153.184 246.351 158.038 245.495 159.751 242.069C169.744 221.512 165.747 195.816 150.044 179.256C141.193 169.835 129.201 164.981 116.925 161.84C102.649 158.414 87.8025 156.13 73.527 153.275C65.2473 151.562 56.9675 150.134 48.6877 148.421C46.1181 147.85 43.263 147.279 40.9789 146.423C38.6948 145.566 37.5528 144.71 37.2673 142.997C36.6963 145.281 36.1252 147.565 35.5542 149.849C55.2544 133.289 80.0938 124.153 104.077 115.588C132.342 105.595 160.322 95.3164 188.302 84.4671C198.866 80.4699 216.282 75.6163 215.997 61.3408C215.711 47.3508 200.008 45.0667 189.444 43.9247C160.608 40.784 132.057 35.9304 104.077 29.3636C72.0995 21.9404 40.9789 12.233 10.4294 0.527135C6.71774 -0.900415 2.72059 1.9547 1.57855 5.38082C-0.420021 9.66347 2.14957 13.0896 5.8612 14.5171Z" fill="url(#paint0_linear_203_4)"/>
<path d="M99.5088 208.949C108.074 210.662 116.354 214.374 122.921 220.084C126.347 222.939 129.202 226.08 131.771 229.792C134.341 233.503 136.054 237.5 138.338 241.212C144.334 250.063 154.898 253.489 164.605 247.493C174.027 241.497 180.308 230.648 186.875 222.083C195.155 210.948 203.72 200.099 212 188.964C214.284 185.823 212.571 180.969 209.43 179.256C205.718 176.972 202.007 178.685 199.723 181.826C190.872 193.532 182.021 204.952 173.456 216.658C169.744 221.797 166.033 227.222 161.75 231.79C159.466 234.074 155.754 238.357 152.328 235.787C148.902 233.218 147.189 227.222 144.905 223.796C141.764 219.228 138.338 214.66 134.055 210.948C125.49 203.239 114.926 197.529 103.506 195.245C99.7943 194.388 95.7972 196.387 94.6551 200.099C93.5131 203.81 95.7972 208.093 99.5088 208.949Z" fill="url(#paint1_linear_203_4)"/>
<defs>
<linearGradient id="paint0_linear_203_4" x1="108.441" y1="0.150879" x2="108.441" y2="245.495" gradientUnits="userSpaceOnUse">
<stop stop-color="#FFBF00"/>
<stop offset="1" stop-color="#F2A60C"/>
</linearGradient>
<linearGradient id="paint1_linear_203_4" x1="153.704" y1="178.207" x2="153.704" y2="250.499" gradientUnits="userSpaceOnUse">
<stop stop-color="#FFBF00"/>
<stop offset="1" stop-color="#F2A60C"/>
</linearGradient>
</defs>
</svg>
