<svg width="29" height="29" viewBox="0 0 29 29" fill="none" xmlns="http://www.w3.org/2000/svg">
<path d="M2.22661 21.1528C2.22661 21.7676 1.72817 22.2661 1.1133 22.2661C0.498443 22.2661 0 21.7676 0 21.1528C0 20.5379 0.498443 20.0395 1.1133 20.0395C1.72817 20.0395 2.22661 20.5379 2.22661 21.1528Z" fill="#808080" fill-opacity="0.2"/>
<path d="M2.22661 27.8326C2.22661 28.4475 1.72817 28.9459 1.1133 28.9459C0.498443 28.9459 0 28.4475 0 27.8326C0 27.2177 0.498443 26.7193 1.1133 26.7193C1.72817 26.7193 2.22661 27.2177 2.22661 27.8326Z" fill="#808080" fill-opacity="0.2"/>
<path d="M8.90643 7.79313C8.90643 8.40799 8.40799 8.90643 7.79313 8.90643C7.17827 8.90643 6.67983 8.40799 6.67983 7.79313C6.67983 7.17827 7.17827 6.67983 7.79313 6.67983C8.40799 6.67983 8.90643 7.17827 8.90643 7.79313Z" fill="#808080" fill-opacity="0.2"/>
<path d="M8.90643 14.473C8.90643 15.0878 8.40799 15.5863 7.79313 15.5863C7.17827 15.5863 6.67983 15.0878 6.67983 14.473C6.67983 13.8581 7.17827 13.3597 7.79313 13.3597C8.40799 13.3597 8.90643 13.8581 8.90643 14.473Z" fill="#808080" fill-opacity="0.2"/>
<path d="M8.90643 21.1528C8.90643 21.7676 8.40799 22.2661 7.79313 22.2661C7.17827 22.2661 6.67983 21.7676 6.67983 21.1528C6.67983 20.5379 7.17827 20.0395 7.79313 20.0395C8.40799 20.0395 8.90643 20.5379 8.90643 21.1528Z" fill="#808080" fill-opacity="0.2"/>
<path d="M8.90643 27.8326C8.90643 28.4475 8.40799 28.9459 7.79313 28.9459C7.17827 28.9459 6.67983 28.4475 6.67983 27.8326C6.67983 27.2177 7.17827 26.7193 7.79313 26.7193C8.40799 26.7193 8.90643 27.2177 8.90643 27.8326Z" fill="#808080" fill-opacity="0.2"/>
<path d="M15.5863 7.79313C15.5863 8.40799 15.0878 8.90643 14.473 8.90643C13.8581 8.90643 13.3597 8.40799 13.3597 7.79313C13.3597 7.17827 13.8581 6.67983 14.473 6.67983C15.0878 6.67983 15.5863 7.17827 15.5863 7.79313Z" fill="#808080" fill-opacity="0.2"/>
<path d="M15.5863 14.473C15.5863 15.0878 15.0878 15.5863 14.473 15.5863C13.8581 15.5863 13.3597 15.0878 13.3597 14.473C13.3597 13.8581 13.8581 13.3597 14.473 13.3597C15.0878 13.3597 15.5863 13.8581 15.5863 14.473Z" fill="#808080" fill-opacity="0.2"/>
<path d="M15.5863 21.1528C15.5863 21.7676 15.0878 22.2661 14.473 22.2661C13.8581 22.2661 13.3597 21.7676 13.3597 21.1528C13.3597 20.5379 13.8581 20.0395 14.473 20.0395C15.0878 20.0395 15.5863 20.5379 15.5863 21.1528Z" fill="#808080" fill-opacity="0.2"/>
<path d="M15.5863 27.8326C15.5863 28.4475 15.0878 28.9459 14.473 28.9459C13.8581 28.9459 13.3597 28.4475 13.3597 27.8326C13.3597 27.2177 13.8581 26.7193 14.473 26.7193C15.0878 26.7193 15.5863 27.2177 15.5863 27.8326Z" fill="#808080" fill-opacity="0.2"/>
<path d="M22.2661 1.1133C22.2661 1.72817 21.7676 2.22661 21.1528 2.22661C20.5379 2.22661 20.0395 1.72817 20.0395 1.1133C20.0395 0.498443 20.5379 0 21.1528 0C21.7676 0 22.2661 0.498443 22.2661 1.1133Z" fill="#808080" fill-opacity="0.2"/>
<path d="M22.2661 7.79313C22.2661 8.40799 21.7676 8.90643 21.1528 8.90643C20.5379 8.90643 20.0395 8.40799 20.0395 7.79313C20.0395 7.17827 20.5379 6.67983 21.1528 6.67983C21.7676 6.67983 22.2661 7.17827 22.2661 7.79313Z" fill="#808080" fill-opacity="0.2"/>
<path d="M22.2661 14.473C22.2661 15.0878 21.7676 15.5863 21.1528 15.5863C20.5379 15.5863 20.0395 15.0878 20.0395 14.473C20.0395 13.8581 20.5379 13.3597 21.1528 13.3597C21.7676 13.3597 22.2661 13.8581 22.2661 14.473Z" fill="#808080" fill-opacity="0.2"/>
<path d="M22.2661 21.1528C22.2661 21.7676 21.7676 22.2661 21.1528 22.2661C20.5379 22.2661 20.0395 21.7676 20.0395 21.1528C20.0395 20.5379 20.5379 20.0395 21.1528 20.0395C21.7676 20.0395 22.2661 20.5379 22.2661 21.1528Z" fill="#808080" fill-opacity="0.2"/>
<path d="M22.2661 27.8326C22.2661 28.4475 21.7676 28.9459 21.1528 28.9459C20.5379 28.9459 20.0395 28.4475 20.0395 27.8326C20.0395 27.2177 20.5379 26.7193 21.1528 26.7193C21.7676 26.7193 22.2661 27.2177 22.2661 27.8326Z" fill="#808080" fill-opacity="0.2"/>
<path d="M28.9459 1.1133C28.9459 1.72817 28.4475 2.22661 27.8326 2.22661C27.2177 2.22661 26.7193 1.72817 26.7193 1.1133C26.7193 0.498443 27.2177 0 27.8326 0C28.4475 0 28.9459 0.498443 28.9459 1.1133Z" fill="#808080" fill-opacity="0.2"/>
<path d="M28.9459 7.79313C28.9459 8.40799 28.4475 8.90643 27.8326 8.90643C27.2177 8.90643 26.7193 8.40799 26.7193 7.79313C26.7193 7.17827 27.2177 6.67983 27.8326 6.67983C28.4475 6.67983 28.9459 7.17827 28.9459 7.79313Z" fill="#808080" fill-opacity="0.2"/>
<path d="M28.9459 14.473C28.9459 15.0878 28.4475 15.5863 27.8326 15.5863C27.2177 15.5863 26.7193 15.0878 26.7193 14.473C26.7193 13.8581 27.2177 13.3597 27.8326 13.3597C28.4475 13.3597 28.9459 13.8581 28.9459 14.473Z" fill="#808080" fill-opacity="0.2"/>
<path d="M28.9459 21.1528C28.9459 21.7676 28.4475 22.2661 27.8326 22.2661C27.2177 22.2661 26.7193 21.7676 26.7193 21.1528C26.7193 20.5379 27.2177 20.0395 27.8326 20.0395C28.4475 20.0395 28.9459 20.5379 28.9459 21.1528Z" fill="#808080" fill-opacity="0.2"/>
<path d="M28.9459 27.8326C28.9459 28.4475 28.4475 28.9459 27.8326 28.9459C27.2177 28.9459 26.7193 28.4475 26.7193 27.8326C26.7193 27.2177 27.2177 26.7193 27.8326 26.7193C28.4475 26.7193 28.9459 27.2177 28.9459 27.8326Z" fill="#808080" fill-opacity="0.2"/>
</svg>
