<svg width="53" height="53" viewBox="0 0 53 53" fill="none" xmlns="http://www.w3.org/2000/svg">
<path d="M48.135 14.1706C48.1389 13.066 49.0375 12.1738 50.1421 12.1777C51.2467 12.1816 52.1389 13.0802 52.135 14.1848C52.131 15.2894 51.2324 16.1816 50.1279 16.1777C49.0233 16.1738 48.1311 15.2751 48.135 14.1706Z" fill="#808080" fill-opacity="0.2"/>
<path d="M48.1777 2.17065C48.1816 1.06609 49.0802 0.173851 50.1848 0.177782C51.2894 0.181712 52.1816 1.08032 52.1777 2.18489C52.1738 3.28945 51.2751 4.18169 50.1706 4.17776C49.066 4.17383 48.1738 3.27521 48.1777 2.17065Z" fill="#808080" fill-opacity="0.2"/>
<path d="M36.0497 38.1277C36.0536 37.0232 36.9522 36.1309 38.0568 36.1349C39.1613 36.1388 40.0536 37.0374 40.0497 38.142C40.0457 39.2465 39.1471 40.1388 38.0425 40.1348C36.938 40.1309 36.0457 39.2323 36.0497 38.1277Z" fill="#808080" fill-opacity="0.2"/>
<path d="M36.0924 26.1278C36.0963 25.0232 36.9949 24.131 38.0995 24.1349C39.204 24.1389 40.0963 25.0375 40.0924 26.142C40.0884 27.2466 39.1898 28.1388 38.0852 28.1349C36.9807 28.131 36.0884 27.2324 36.0924 26.1278Z" fill="#808080" fill-opacity="0.2"/>
<path d="M36.1351 14.1279C36.139 13.0233 37.0376 12.1311 38.1422 12.135C39.2467 12.1389 40.139 13.0375 40.1351 14.1421C40.1311 15.2467 39.2325 16.1389 38.128 16.135C37.0234 16.131 36.1312 15.2324 36.1351 14.1279Z" fill="#808080" fill-opacity="0.2"/>
<path d="M36.1778 2.12795C36.1817 1.02339 37.0803 0.131149 38.1849 0.13508C39.2894 0.13901 40.1817 1.03762 40.1778 2.14218C40.1738 3.24675 39.2752 4.13898 38.1707 4.13505C37.0661 4.13112 36.1739 3.23251 36.1778 2.12795Z" fill="#808080" fill-opacity="0.2"/>
<path d="M24.0498 38.085C24.0537 36.9805 24.9523 36.0882 26.0569 36.0921C27.1614 36.0961 28.0537 36.9947 28.0497 38.0993C28.0458 39.2038 27.1472 40.0961 26.0426 40.0921C24.9381 40.0882 24.0458 39.1896 24.0498 38.085Z" fill="#808080" fill-opacity="0.2"/>
<path d="M24.0925 26.0851C24.0964 24.9805 24.995 24.0883 26.0996 24.0922C27.2041 24.0962 28.0964 24.9948 28.0924 26.0993C28.0885 27.2039 27.1899 28.0961 26.0853 28.0922C24.9808 28.0883 24.0885 27.1897 24.0925 26.0851Z" fill="#808080" fill-opacity="0.2"/>
<path d="M24.1352 14.0852C24.1391 12.9806 25.0377 12.0884 26.1423 12.0923C27.2468 12.0962 28.1391 12.9948 28.1351 14.0994C28.1312 15.204 27.2326 16.0962 26.128 16.0923C25.0235 16.0883 24.1312 15.1897 24.1352 14.0852Z" fill="#808080" fill-opacity="0.2"/>
<path d="M24.1779 2.08525C24.1818 0.980686 25.0804 0.0884467 26.185 0.0923773C27.2895 0.096308 28.1818 0.99492 28.1778 2.09948C28.1739 3.20404 27.2753 4.09628 26.1707 4.09235C25.0662 4.08842 24.1739 3.18981 24.1779 2.08525Z" fill="#808080" fill-opacity="0.2"/>
<path d="M12.0071 50.0422C12.0111 48.9377 12.9097 48.0454 14.0142 48.0494C15.1188 48.0533 16.011 48.9519 16.0071 50.0565C16.0032 51.161 15.1046 52.0533 14 52.0493C12.8954 52.0454 12.0032 51.1468 12.0071 50.0422Z" fill="#808080" fill-opacity="0.2"/>
<path d="M12.0498 38.0423C12.0538 36.9378 12.9524 36.0455 14.0569 36.0494C15.1615 36.0534 16.0537 36.952 16.0498 38.0566C16.0459 39.1611 15.1473 40.0534 14.0427 40.0494C12.9381 40.0455 12.0459 39.1469 12.0498 38.0423Z" fill="#808080" fill-opacity="0.2"/>
<path d="M12.0925 26.0424C12.0965 24.9378 12.9951 24.0456 14.0996 24.0495C15.2042 24.0535 16.0964 24.9521 16.0925 26.0566C16.0886 27.1612 15.19 28.0534 14.0854 28.0495C12.9808 28.0456 12.0886 27.147 12.0925 26.0424Z" fill="#808080" fill-opacity="0.2"/>
<path d="M12.1352 14.0425C12.1392 12.9379 13.0378 12.0457 14.1423 12.0496C15.2469 12.0535 16.1391 12.9521 16.1352 14.0567C16.1313 15.1613 15.2327 16.0535 14.1281 16.0496C13.0235 16.0456 12.1313 15.147 12.1352 14.0425Z" fill="#808080" fill-opacity="0.2"/>
<path d="M12.1779 2.04255C12.1819 0.937984 13.0805 0.0457445 14.185 0.0496751C15.2896 0.0536057 16.1818 0.952218 16.1779 2.05678C16.174 3.16134 15.2754 4.05358 14.1708 4.04965C13.0662 4.04572 12.174 3.14711 12.1779 2.04255Z" fill="#808080" fill-opacity="0.2"/>
<path d="M0.00720144 49.9995C0.0111321 48.895 0.909744 48.0027 2.01431 48.0067C3.11887 48.0106 4.01111 48.9092 4.00718 50.0138C4.00325 51.1183 3.10463 52.0106 2.00007 52.0066C0.89551 52.0027 0.00327081 51.1041 0.00720144 49.9995Z" fill="#808080" fill-opacity="0.2"/>
<path d="M0.0499037 37.9996C0.0538343 36.8951 0.952447 36.0028 2.05701 36.0067C3.16157 36.0107 4.05381 36.9093 4.04988 38.0138C4.04595 39.1184 3.14734 40.0107 2.04277 40.0067C0.938213 40.0028 0.0459731 39.1042 0.0499037 37.9996Z" fill="#808080" fill-opacity="0.2"/>
<path d="M0.0926059 25.9997C0.0965366 24.8951 0.995149 24.0029 2.09971 24.0068C3.20427 24.0108 4.09651 24.9094 4.09258 26.0139C4.08865 27.1185 3.19004 28.0107 2.08548 28.0068C0.980915 28.0029 0.0886753 27.1043 0.0926059 25.9997Z" fill="#808080" fill-opacity="0.2"/>
<path d="M0.135308 13.9998C0.139239 12.8952 1.03785 12.003 2.14241 12.0069C3.24697 12.0108 4.13921 12.9094 4.13528 14.014C4.13135 15.1186 3.23274 16.0108 2.12818 16.0069C1.02362 16.0029 0.131378 15.1043 0.135308 13.9998Z" fill="#808080" fill-opacity="0.2"/>
<path d="M0.17801 1.99984C0.181941 0.895282 1.08055 0.00304221 2.18511 0.00697284C3.28968 0.0109035 4.18192 0.909516 4.17799 2.01408C4.17405 3.11864 3.27544 4.01088 2.17088 4.00695C1.06632 4.00302 0.17408 3.1044 0.17801 1.99984Z" fill="#808080" fill-opacity="0.2"/>
</svg>
