<svg width="46" height="46" viewBox="0 0 46 46" fill="none" xmlns="http://www.w3.org/2000/svg">
<path d="M25.3644 14.3748C25.52 14.6315 25.6444 14.857 25.6444 14.8804C25.6444 14.8959 25.38 14.9115 25.0611 14.9115C24.7422 14.9115 24.4778 14.8881 24.4778 14.8648C24.4778 14.8026 25.0222 13.9004 25.0611 13.9004C25.0689 13.9004 25.2089 14.1104 25.3644 14.3748Z" fill="black"/>
<path fill-rule="evenodd" clip-rule="evenodd" d="M24.9833 15.1215C25.03 15.2537 25.0378 15.2537 25.1389 15.1137C25.2478 14.9737 25.2633 14.9737 25.45 15.0981C25.7844 15.3159 25.9633 15.6815 25.9322 16.0781C25.9167 16.2726 25.8778 16.4904 25.8467 16.5604C25.8078 16.6459 25.8156 16.7004 25.87 16.7004C25.9167 16.7004 26.15 16.7859 26.3989 16.8948C26.6126 16.9923 26.662 17.2738 26.4943 17.4382L26.4378 17.4937L26.3188 17.615C26.1527 17.7844 25.8973 17.8294 25.6833 17.727C25.0456 17.4159 24.9211 17.5248 25.2244 18.1081C25.3449 18.3492 25.2961 18.6404 25.1035 18.8289L25.0611 18.8704C24.7189 19.2126 24.6956 19.2204 24.5867 19.0804C24.5294 18.9986 24.5022 18.9598 24.4894 18.964C24.4778 18.9679 24.4778 19.0066 24.4778 19.0804C24.4778 19.3681 24.0344 19.9204 22.9533 20.9937L22.2007 21.7409C22.0032 21.937 21.7047 21.9895 21.4522 21.8726C21.1333 21.7248 21.0089 21.6937 20.9311 21.7637C20.8378 21.8415 20.8611 21.9193 21.0556 22.2537C21.189 22.493 21.1474 22.7918 20.9537 22.9856L20.9078 23.0315C20.5656 23.3659 20.5189 23.3893 20.4489 23.2648C20.3789 23.1404 20.3556 23.1637 20.2856 23.4359C20.13 24.027 19.5933 24.5637 19.0022 24.7193C18.1311 24.9526 17.2211 24.0815 17.2211 23.0004C17.2211 21.9581 18.0844 21.0404 18.9633 21.157C19.085 21.173 19.1727 21.0432 19.1124 20.9363L19.0878 20.8926C18.9866 20.7178 19.014 20.4971 19.155 20.3524L19.5 19.9981C20.0678 19.4226 20.5344 19.1193 20.8689 19.1115C20.9622 19.1115 21.1644 19.197 21.3278 19.3059L21.37 19.3356C21.4258 19.3748 21.4953 19.3098 21.46 19.2515C21.4212 19.1816 21.3668 19.0884 21.3124 18.9952C21.258 18.9019 21.2033 18.8081 21.1644 18.7381C21.0816 18.5908 21.1064 18.4064 21.2252 18.2862L21.7167 17.7893C22.4789 17.027 22.7822 16.8559 23.1478 17.0115C23.5444 17.1748 23.7078 17.657 23.5133 18.1004C23.4744 18.2015 23.5211 18.217 23.77 18.1937C23.9122 18.1791 23.9919 18.0226 23.92 17.899L23.2037 16.668C23.1272 16.5364 23.1358 16.3721 23.2256 16.2493C23.3967 16.0004 24.26 15.2226 24.5011 15.0904C24.7422 14.9581 24.9211 14.9659 24.9833 15.1215ZM24.3396 16.4658C24.3501 16.4109 24.3946 16.3625 24.4778 16.272C24.9134 15.8054 25.2245 16.3109 24.8045 16.7931L24.7912 16.8078C24.6863 16.9232 24.4979 16.8951 24.4312 16.7543C24.3605 16.6004 24.3276 16.5288 24.3396 16.4658ZM22.3623 18.2325C22.1601 18.4425 22.1601 18.5747 22.3545 18.7925C22.4167 18.878 22.8445 18.3647 22.8445 18.2014C22.8445 17.9525 22.6112 17.968 22.3623 18.2325ZM22.8289 19.609C22.7433 19.4223 22.7589 19.3835 22.9922 19.1735C23.42 18.7923 23.6378 19.0646 23.2722 19.539C23.0311 19.8657 22.9456 19.8735 22.8289 19.609ZM21.7945 20.1457C21.7945 20.3246 21.7634 20.5501 21.7323 20.6513C21.6779 20.8068 21.709 20.8379 22.0357 20.9779C22.2379 21.0713 22.4323 21.1257 22.4634 21.1179C22.5023 21.1024 22.3623 20.8068 22.1601 20.4568L21.957 20.1024C21.9127 20.0251 21.7945 20.0566 21.7945 20.1457ZM20.1574 20.6517C20.1631 20.591 20.2155 20.5347 20.3244 20.4178C20.4411 20.3011 20.5811 20.2 20.6277 20.2C20.76 20.2 20.9 20.3711 20.9 20.5189C20.9 20.6511 20.5422 21.1333 20.4489 21.1333C20.4177 21.1333 20.3322 21.0244 20.2544 20.8844C20.187 20.7683 20.152 20.7081 20.1574 20.6517ZM19.2665 21.639C19.2198 21.7479 19.1498 21.9268 19.1109 22.0357C19.0487 22.199 18.9943 22.2302 18.8387 22.1913C18.7065 22.1602 18.5898 22.199 18.4343 22.3313C18.0531 22.6579 18.2009 23.4124 18.6909 23.6379C18.9476 23.7546 19.282 23.5135 19.3754 23.1324C19.4376 22.8835 19.4765 22.8524 19.7876 22.8057C19.9665 22.7824 20.122 22.7435 20.122 22.7202C20.122 22.6657 19.4065 21.4446 19.3676 21.4446C19.352 21.4446 19.3054 21.5302 19.2665 21.639Z" fill="black"/>
<path fill-rule="evenodd" clip-rule="evenodd" d="M24.7966 0.444711C28.2266 0.786933 31.641 1.9536 34.4721 3.73471C39.621 6.98582 43.1833 12.0414 44.4977 17.9447C44.8866 19.7181 44.9721 20.5503 44.9721 22.8058C44.9721 24.4158 44.9333 25.1236 44.8321 25.8392C44.3655 28.9892 43.3621 31.8358 41.791 34.4258C41.5499 34.8303 41.3555 35.1725 41.3555 35.1958C41.3555 35.2192 42.2033 36.098 43.2455 37.148C44.7466 38.6725 45.1899 39.1625 45.3921 39.5592C45.7421 40.2281 45.8666 40.7258 45.8666 41.5114C45.8666 42.7169 45.5166 43.5725 44.661 44.4358C44.0933 45.0114 43.4477 45.3925 42.7555 45.548C42.2655 45.6647 41.1533 45.6492 40.6944 45.5247C39.7377 45.268 39.4033 45.0192 37.4121 43.0436L35.5299 41.1769L34.8066 41.6514C32.0921 43.4169 29.1755 44.5058 25.6833 45.058C24.4699 45.2447 21.491 45.2914 20.1688 45.1358C16.5988 44.7236 13.2155 43.5103 10.361 41.6358C9.80881 41.2703 9.32659 40.9669 9.29548 40.9669C9.23326 40.9669 7.8877 41.488 3.55548 43.1914C2.33437 43.6658 1.33104 44.0547 1.32326 44.0469C1.3077 44.0314 1.62659 43.1914 3.04993 39.5669C3.19094 39.2052 3.34766 38.8048 3.49771 38.4215C3.72836 37.8322 3.94323 37.2832 4.06103 36.9769C4.26326 36.4714 4.41103 36.0358 4.39548 36.0047C4.37992 35.9736 4.1077 35.5458 3.77326 35.0558C2.03881 32.4425 0.848813 29.3158 0.327702 25.9558C0.15659 24.8747 0.0865906 21.9892 0.203257 20.7836C0.662146 16.008 2.45881 11.7692 5.58548 8.10582C9.1477 3.92916 14.3744 1.16027 19.9666 0.491382C21.0477 0.359158 23.6921 0.335822 24.7966 0.444711ZM20.55 1.07481C15.9767 1.50259 11.5433 3.40037 8.22222 6.34814C7.04778 7.39814 6.89222 7.54592 6.09111 8.48703C3.29111 11.7693 1.61889 15.3937 0.98111 19.5937C0.778888 20.9159 0.708888 23.327 0.825555 24.6337C1.17556 28.4448 2.37333 31.8437 4.46555 34.9548L4.87486 35.5712C5.03321 35.8096 5.06894 36.1091 4.97111 36.3782C4.79222 36.8604 3.74222 39.5593 2.95667 41.5348C2.81105 41.9069 2.68227 42.2496 2.59547 42.495C2.50764 42.7433 2.6096 42.8412 2.85757 42.7523C3.67057 42.461 5.74038 41.6646 8.44778 40.5937C9.0523 40.3597 9.73294 40.4351 10.2716 40.7957L10.3533 40.8504C16.2333 44.8248 23.7 45.6959 30.3111 43.1837C31.7889 42.6237 34.8611 40.9748 34.9544 40.6948C34.97 40.6482 34.4411 40.0804 33.78 39.4193L33.0497 38.6937C32.7743 38.4201 32.349 38.3667 32.0144 38.5637C30.56 39.4115 28.4678 40.2281 26.8889 40.5704C24.3689 41.107 21.3978 41.107 18.8778 40.5704C17.1122 40.1893 14.7711 39.2248 13.1767 38.2215C9.26445 35.7404 6.34778 31.8437 5.15 27.4726C3.90555 22.907 4.45778 18.0459 6.71333 13.9004C7.23444 12.9437 7.48333 12.5704 7.56111 12.6404C7.6 12.6715 7.6 12.6481 7.56889 12.5937C7.48333 12.4459 8.73555 10.8281 9.68445 9.8637C10.7967 8.7437 11.5667 8.10592 12.7411 7.32815C15.1056 5.75703 17.6256 4.81592 20.55 4.39592C21.6311 4.24815 24.3222 4.27148 25.45 4.44259C27.9389 4.8237 30.2333 5.64814 32.2945 6.89259C33.6867 7.74037 34.5967 8.45592 35.8333 9.69259C36.8289 10.6804 36.9456 10.8204 36.8056 10.8748C36.6811 10.9293 33.1578 11.8004 33.0644 11.8004C33.0489 11.8004 32.8156 11.6059 32.5511 11.3648C31.8356 10.727 30.6456 9.91815 29.6811 9.42815C25.4189 7.24259 20.5889 7.18814 16.3422 9.26481C15.5178 9.66926 13.9933 10.5948 13.8222 10.7893C13.7989 10.8126 13.4956 11.0693 13.1533 11.357C10.7733 13.317 8.93778 16.4437 8.25333 19.6948C8.00445 20.877 7.91111 23.1093 8.06667 24.3848C8.08256 24.5188 8.09911 24.6481 8.11498 24.765C8.16219 25.113 8.3412 25.1832 8.59833 24.944C9.03133 24.5413 9.77232 23.8225 10.6022 22.9926C11.5018 22.093 12.2932 21.3165 12.7025 20.9293C12.8939 20.7483 13.0918 20.7597 13.2795 20.9445C13.7917 21.4491 14.9457 22.5857 16.2722 23.8948L16.5933 24.2089C17.862 25.4501 18.9304 26.4953 19.3636 26.9127C19.4999 27.044 19.6411 27.0467 19.7777 26.9157C20.3858 26.3324 22.2558 24.4834 24.4311 22.3081L27.7675 18.9718C28.5931 18.1462 28.607 16.812 27.7989 15.9693C26.9978 15.137 26.3678 14.4448 26.3989 14.4215C26.5156 14.3515 37.0778 11.777 37.1089 11.8081C37.1244 11.8237 36.9144 12.7648 36.6422 13.9004C36.37 15.0359 35.88 17.0659 35.5533 18.4115C34.6278 22.2148 34.5345 22.5726 34.4178 22.5493C34.3633 22.5337 33.6867 21.8648 32.9089 21.0715C32.1354 20.2724 30.857 20.2628 30.0717 21.0502L25.5822 25.5515C22.3233 28.8104 19.6167 31.4781 19.57 31.4781C19.5233 31.4781 18.0067 30.0081 16.21 28.2115L14.7911 26.7993C13.7613 25.7744 12.0962 25.7764 11.0689 26.8037L9.84707 28.0255C9.4675 28.4051 9.37662 28.9864 9.62222 29.4637C10.0967 30.4126 11.0222 31.7659 11.66 32.4426C11.8193 32.6131 12.1051 32.5011 12.1061 32.2677L12.1111 31.1048V29.8153C12.1111 29.4795 12.239 29.1563 12.4689 28.9115C12.6711 28.6937 12.8889 28.5226 12.9511 28.5226C13.0833 28.5226 17.0578 32.427 17.4078 32.9093C17.5542 33.1062 17.6333 33.3451 17.6333 33.5906V35.7515C17.6333 36.2482 17.9589 36.6861 18.4344 36.8293C19.4222 37.1404 20.0133 37.2648 20.1767 37.2026C20.2856 37.1559 20.2933 36.9926 20.2622 35.8493C20.2311 34.8537 20.2389 34.5037 20.3244 34.3559C20.3789 34.247 21.6078 32.987 23.0544 31.5559C24.0331 30.586 25.6965 31.2738 25.7042 32.6517L25.7067 33.0804L25.7202 36.6934C25.7213 36.9641 25.9708 37.1654 26.2356 37.1093C26.5156 37.047 27.0833 36.8837 27.4956 36.7437C27.9465 36.5949 28.2525 36.1753 28.2561 35.7004L28.3239 26.8788C28.3264 26.5534 28.4403 26.2387 28.6467 25.987C28.8256 25.777 29.5411 25.0459 30.2333 24.3693L30.3237 24.2806C30.9714 23.6448 32.0104 23.6497 32.6522 24.2915C33.3945 25.0388 33.8111 26.0493 33.8111 27.1026V32.0538C33.8111 32.263 34.071 32.3597 34.2078 32.2015C34.7911 31.5248 35.7711 30.0159 36.2145 29.1215C37.3033 26.8893 37.7622 24.6881 37.6767 22.1059C37.63 20.6048 37.4667 19.5859 37.0233 18.1626C36.8401 17.5671 36.8217 16.933 36.9701 16.3279L37.35 14.7793C37.5282 14.0369 37.6948 13.3639 37.8107 12.9029C37.9155 12.486 38.1225 12.4301 38.3517 12.7938C38.5888 13.1701 38.8926 13.6895 39.1311 14.1415C40.1733 16.1093 40.8811 18.4115 41.1144 20.6048C41.2233 21.577 41.2233 23.6459 41.1144 24.6181C40.8578 27.0137 40.0256 29.6115 38.8589 31.657C38.6245 32.0706 38.695 32.5898 39.0311 32.926L39.6133 33.5081C40.2511 34.1459 40.7878 34.667 40.8111 34.667C40.8967 34.667 41.4178 33.7959 41.9856 32.6837C44.5056 27.7682 45.0422 22.0515 43.4867 16.6848C42.5767 13.5581 40.9044 10.587 38.6489 8.10592C35.8489 5.01814 32.0067 2.70814 27.9778 1.68926C25.59 1.08259 22.8833 0.857034 20.55 1.07481Z" fill="black"/>
</svg>
