<svg width="139" height="140" viewBox="0 0 139 140" fill="none" xmlns="http://www.w3.org/2000/svg">
<path d="M69.4639 139.255C107.674 139.255 138.649 108.171 138.649 69.8265C138.649 31.4819 107.674 0.397461 69.4639 0.397461C31.254 0.397461 0.278687 31.4819 0.278687 69.8265C0.278687 108.171 31.254 139.255 69.4639 139.255Z" fill="#56A6DC"/>
<mask id="mask0_1479_1832" style="mask-type:luminance" maskUnits="userSpaceOnUse" x="0" y="0" width="139" height="140">
<path d="M69.4639 139.255C107.674 139.255 138.649 108.171 138.649 69.8265C138.649 31.4819 107.674 0.397461 69.4639 0.397461C31.254 0.397461 0.278687 31.4819 0.278687 69.8265C0.278687 108.171 31.254 139.255 69.4639 139.255Z" fill="white"/>
</mask>
<g mask="url(#mask0_1479_1832)">
<path d="M96.2844 77.1828C97.2863 75.4957 97.5127 73.3768 96.7146 71.417C96.6976 71.3772 96.6806 71.3318 96.658 71.292C96.2674 72.4338 95.4013 73.4109 94.2012 73.9051C92.8653 74.4561 91.4105 74.28 90.2727 73.5699C90.0689 72.9905 89.9557 72.3713 89.9557 71.7237C89.9557 69.9514 90.7878 68.3721 92.0841 67.3667C92.0049 67.361 91.9256 67.3553 91.8464 67.3496C96.7089 65.3955 100.139 60.6294 100.139 55.0567C100.139 47.7457 94.2295 41.8151 86.9442 41.8151C79.6588 41.8151 73.7491 47.7457 73.7491 55.0567C73.7491 62.3677 79.6588 68.2983 86.9442 68.2983C87.1253 68.2983 87.3008 68.2926 87.4763 68.2869C87.1366 68.4858 86.8253 68.713 86.5366 68.9629C84.5384 70.4569 83.2421 72.8485 83.2421 75.5411C83.2421 80.0686 86.8989 83.7383 91.4105 83.7383C95.9221 83.7383 99.5789 80.0686 99.5789 75.5411C99.5789 75.4843 99.5789 75.4275 99.5789 75.3707C98.7468 76.3251 97.5863 76.984 96.2787 77.1885L96.2844 77.1828Z" fill="#683F09"/>
<path d="M88.6198 54.5057C90.308 54.5057 91.6766 51.6266 91.6766 48.0752C91.6766 44.5237 90.308 41.6447 88.6198 41.6447C86.9316 41.6447 85.563 44.5237 85.563 48.0752C85.563 51.6266 86.9316 54.5057 88.6198 54.5057Z" fill="#EAAE00"/>
<path d="M79.206 89.7087H59.7218V93.1058H79.206V89.7087Z" fill="#707070"/>
<path d="M76.0133 83.8065H62.9031V95.5314H76.0133V83.8065Z" fill="#DE8A52"/>
<path d="M89.9387 63.0323C92.9806 63.0323 95.4466 60.5577 95.4466 57.5051C95.4466 54.4524 92.9806 51.9778 89.9387 51.9778C86.8968 51.9778 84.4308 54.4524 84.4308 57.5051C84.4308 60.5577 86.8968 63.0323 89.9387 63.0323Z" fill="#F8A46D"/>
<path d="M86.9442 57.5051C86.9442 59.1638 88.2858 60.5101 89.9387 60.5101C91.5916 60.5101 92.9332 59.1638 92.9332 57.5051C92.9332 55.8463 91.5916 54.5 89.9387 54.5C88.2858 54.5 86.9442 55.8463 86.9442 57.5051Z" fill="#DE8A52"/>
<path d="M48.9835 63.0323C52.0254 63.0323 54.4913 60.5577 54.4913 57.5051C54.4913 54.4524 52.0254 51.9778 48.9835 51.9778C45.9415 51.9778 43.4756 54.4524 43.4756 57.5051C43.4756 60.5577 45.9415 63.0323 48.9835 63.0323Z" fill="#F8A46D"/>
<path d="M45.989 57.5051C45.989 59.1638 47.3305 60.5101 48.9835 60.5101C50.6364 60.5101 51.978 59.1638 51.978 57.5051C51.978 55.8463 50.6364 54.5 48.9835 54.5C47.3305 54.5 45.989 55.8463 45.989 57.5051Z" fill="#DE8A52"/>
<path d="M71.4055 6.6518C50.1382 6.6518 38.364 27.2896 36.9601 33.6349C35.5563 39.9859 55.0631 45.979 55.0631 45.979L82.659 44.9224C90.2161 43.5136 99.1827 33.4588 99.1827 31.8682C99.1827 30.2777 92.6785 6.64612 71.4112 6.64612L71.4055 6.6518Z" fill="#1D2362"/>
<path d="M89.4179 43.1103C89.4179 32.0511 80.4842 23.0859 69.4639 23.0859C58.4436 23.0859 49.5099 32.0511 49.5099 43.1103V67.486C49.5099 78.5451 58.4436 87.5103 69.4639 87.5103C80.4842 87.5103 89.4179 78.5451 89.4179 67.486V43.1103Z" fill="#F8A46D"/>
<path d="M85.3309 30.9707C81.6854 26.1819 75.9341 23.0859 69.4639 23.0859C62.9937 23.0859 57.2424 26.1762 53.5969 30.9707C53.0875 31.6353 52.6233 32.334 52.1987 33.0669C50.4892 36.0208 49.5099 39.4519 49.5099 43.1103V54.784C52.3969 50.3588 54.18 44.2634 54.18 37.5375C54.18 36.7138 54.1517 35.9015 54.1007 35.0948C59.7841 40.3835 69.662 43.8828 80.8929 43.8828C82.376 43.8828 83.8364 43.8203 85.2629 43.701C85.9875 47.9559 87.448 51.7562 89.4179 54.784V43.1103C89.4179 38.543 87.8952 34.3393 85.3309 30.9707Z" fill="#683F09"/>
<path d="M77.938 45.178C69.1526 45.178 61.4936 40.838 57.4745 34.4131C55.3574 36.106 52.9346 37.3898 50.3137 38.1453C54.3498 44.5077 61.9748 48.7966 70.7093 48.7966C76.3473 48.7966 81.5212 47.0072 85.5686 44.0362C83.1742 44.7747 80.6099 45.178 77.938 45.178Z" fill="#683F09"/>
<path d="M71.3546 7.27662C58.8614 7.27662 49.776 14.6217 44.2794 21.7282C45.8135 29.3232 55.8159 35.1857 67.9299 35.1857C81.108 35.1857 91.7898 28.2496 91.7898 19.6889C91.7898 18.9958 91.7105 18.3085 91.5747 17.6381C87.4027 12.2188 80.9382 7.27094 71.3546 7.27094V7.27662Z" fill="#35477C"/>
<path d="M50.3703 35.6572L51.0553 37.1853C66.843 42.7978 77.8248 39.4121 86.9215 35.822L87.0914 33.7997C87.0914 33.7997 66.3279 25.5854 50.3703 35.6572Z" fill="#020000"/>
<path d="M49.5212 43.0363L46.855 37.4693C46.855 37.4693 49.0117 24.8185 69.0676 24.8185C89.1235 24.8185 90.7708 35.9526 90.7708 35.9526L89.3726 41.6446C88.8632 27.1532 49.0117 28.545 49.5212 43.0363Z" fill="#051028"/>
<path d="M51.6893 29.9765C51.6893 30.0049 51.6779 30.039 51.6779 30.0674C51.6779 31.8114 53.0988 33.4076 55.465 34.6631C62.8465 30.7604 75.3794 30.3458 82.9647 33.7598C84.4422 32.6748 85.3082 31.4194 85.3082 30.0674C85.3082 29.4993 85.1384 28.9426 84.8554 28.4143C81.6288 26.4261 76.6756 24.8185 69.062 24.8185C60.2766 24.8185 54.9215 27.2498 51.6836 29.9765H51.6893Z" fill="#122349"/>
<path d="M55.4367 38.5316C66.6619 41.5253 75.3171 39.9063 82.6534 37.4012C80.2646 35.1232 75.2831 33.5497 69.5149 33.5497C62.8296 33.5497 57.2028 35.6572 55.4423 38.5316H55.4367Z" fill="#210805"/>
<path d="M70.6923 19.9218C70.7319 19.03 70.0356 18.3029 69.1356 18.3029C68.2355 18.3029 67.4657 19.0243 67.426 19.9218C67.3864 20.8194 68.0827 21.5408 68.9827 21.5408C69.8828 21.5408 70.6527 20.8194 70.6923 19.9218Z" fill="#E29D4B"/>
<path d="M68.3374 20.6546C65.4108 21.0352 65.4278 20.0979 65.4278 20.0979C65.4278 20.0979 63.7692 20.007 63.7296 19.6548C63.7296 19.6548 61.9465 19.7116 61.9691 19.2117C61.9918 18.7118 68.5978 18.4164 68.6827 18.4164C68.7676 18.4164 68.3374 20.6489 68.3374 20.6489V20.6546Z" fill="#E29D4B"/>
<path d="M69.7583 20.6546C72.5603 21.0352 72.6339 20.0979 72.6339 20.0979C72.6339 20.0979 74.2472 20.007 74.3208 19.6548C74.3208 19.6548 76.0417 19.7116 76.0643 19.2117C76.0869 18.7118 69.7186 18.4164 69.6337 18.4164C69.5488 18.4164 69.7583 20.6489 69.7583 20.6489V20.6546Z" fill="#E29D4B"/>
<path d="M69.0677 29.9652C69.6992 29.9652 70.2111 29.2098 70.2111 28.278C70.2111 27.3462 69.6992 26.5909 69.0677 26.5909C68.4361 26.5909 67.9242 27.3462 67.9242 28.278C67.9242 29.2098 68.4361 29.9652 69.0677 29.9652Z" fill="#E29D4B"/>
<path d="M61.3012 55.0625C60.1407 55.0625 59.1614 56.0906 58.8161 57.5051C58.952 57.454 59.0935 57.4199 59.2463 57.4199C59.8973 57.4199 60.4238 57.9482 60.4238 58.6015C60.4238 59.2548 59.8973 59.7831 59.2463 59.7831C59.0935 59.7831 58.9463 59.7547 58.8161 59.6979C59.1558 61.118 60.1407 62.1405 61.3012 62.1405C62.7447 62.1405 63.9164 60.5556 63.9164 58.5958C63.9164 56.636 62.7447 55.0511 61.3012 55.0511V55.0625Z" fill="#402E24"/>
<path d="M77.4908 55.0625C76.3304 55.0625 75.3511 56.0906 75.0058 57.5051C75.1416 57.454 75.2831 57.4199 75.436 57.4199C76.087 57.4199 76.6134 57.9482 76.6134 58.6015C76.6134 59.2548 76.087 59.7831 75.436 59.7831C75.2831 59.7831 75.136 59.7547 75.0058 59.6979C75.3454 61.118 76.3304 62.1405 77.4908 62.1405C78.9343 62.1405 80.1061 60.5556 80.1061 58.5958C80.1061 56.636 78.9343 55.0511 77.4908 55.0511V55.0625Z" fill="#402E24"/>
<path d="M69.4639 73.1609C66.5147 73.1609 63.6221 72.8996 60.8144 72.3997C62.0088 76.0466 65.4278 78.6768 69.4639 78.6768C73.5 78.6768 76.9134 76.0466 78.1135 72.3997C75.3058 72.8996 72.4188 73.1609 69.4639 73.1609Z" fill="white"/>
<path d="M82.0703 53.2787C81.8552 53.2787 81.6514 53.1423 81.5779 52.9208C80.8759 50.7735 78.1362 49.7339 75.4643 50.6087C75.1926 50.6996 74.8982 50.5519 74.8133 50.2793C74.7227 50.0066 74.8699 49.7169 75.1416 49.626C78.3513 48.5694 81.6798 49.9043 82.5628 52.597C82.6534 52.8696 82.5062 53.1594 82.2345 53.2503C82.1836 53.2673 82.127 53.2787 82.076 53.2787H82.0703Z" fill="#683F09"/>
<path d="M56.8519 53.2787C56.8009 53.2787 56.7443 53.273 56.6934 53.2503C56.4216 53.1594 56.2745 52.8696 56.365 52.597C57.2424 49.9043 60.5709 48.5694 63.7862 49.626C64.0579 49.7169 64.2051 50.0066 64.1145 50.2793C64.024 50.5519 63.7353 50.6996 63.4636 50.6087C60.7917 49.7339 58.0519 50.7678 57.35 52.9208C57.2764 53.1423 57.0783 53.2787 56.8575 53.2787H56.8519Z" fill="#683F09"/>
<path d="M47.7098 63.0721C48.1819 63.0721 48.5645 62.688 48.5645 62.2143C48.5645 61.7405 48.1819 61.3565 47.7098 61.3565C47.2377 61.3565 46.855 61.7405 46.855 62.2143C46.855 62.688 47.2377 63.0721 47.7098 63.0721Z" fill="#FFED00"/>
<path d="M91.2123 63.0721C91.6844 63.0721 92.0671 62.688 92.0671 62.2143C92.0671 61.7405 91.6844 61.3565 91.2123 61.3565C90.7403 61.3565 90.3576 61.7405 90.3576 62.2143C90.3576 62.688 90.7403 63.0721 91.2123 63.0721Z" fill="#FFED00"/>
<path d="M40.1244 93.1172L24.7386 149.441C23.9405 152.366 25.6557 155.389 28.5709 156.195C29.0577 156.326 29.5446 156.394 30.0201 156.394C32.4259 156.394 34.6335 154.792 35.2959 152.349L50.6817 96.0257L40.1188 93.1172H40.1244Z" fill="#FAFAFA"/>
<path d="M98.8034 93.1172L114.189 149.441C114.987 152.366 113.272 155.389 110.357 156.195C109.87 156.326 109.383 156.394 108.908 156.394C106.502 156.394 104.294 154.792 103.632 152.349L88.2462 96.0257L98.809 93.1172H98.8034Z" fill="#D0D0D0"/>
<path d="M98.8034 93.1172L114.189 149.441C114.987 152.366 113.272 155.389 110.357 156.195C109.87 156.326 109.383 156.394 108.908 156.394C106.502 156.394 104.294 154.792 103.632 152.349L93.7087 94.526L98.8034 93.1229V93.1172Z" fill="#FAFAFA"/>
<path d="M40.1244 93.1172L24.7386 149.441C23.9405 152.366 25.6557 155.389 28.5709 156.195C29.0577 156.326 29.5446 156.394 30.0201 156.394C32.4259 156.394 34.6335 154.792 35.2959 152.349L50.6817 96.0257L40.1188 93.1172H40.1244Z" fill="#D0D0D0"/>
<path d="M40.1244 93.1172L24.7386 149.441C23.9405 152.366 25.6557 155.389 28.5709 156.195C29.0577 156.326 29.5446 156.394 30.0201 156.394C32.4259 156.394 34.6336 154.792 35.2959 152.349L45.2191 94.526L40.1244 93.1229V93.1172Z" fill="#FAFAFA"/>
<path d="M92.8823 156.388H46.0399L40.181 93.1172H62.2125L69.5658 94.4181L77.5304 93.1172H98.7411L92.8823 156.388Z" fill="#FAFAFA"/>
<path d="M71.1055 99.5704L69.6734 93.3615H69.4639L68.0318 99.5704L66.0279 148.521L69.5658 156.144L73.1094 148.521L71.1055 99.5704Z" fill="#1D2362"/>
<path d="M72.6849 98.5877L69.6734 100.457L66.56 98.7751L66.4524 95.2247L69.4639 93.3615L72.5773 95.0429L72.6849 98.5877Z" fill="#1D2362"/>
<g style="mix-blend-mode:multiply">
<path d="M64.6863 101.951L59.7218 94.4521V89.7087L69.4639 93.3614L64.6863 101.951Z" fill="#D0D0D0"/>
</g>
<g style="mix-blend-mode:multiply">
<path d="M74.2359 101.951L79.206 94.4521V89.7087L69.6733 93.3614L74.2359 101.951Z" fill="#D0D0D0"/>
</g>
<path d="M83.7176 128.883C79.3192 128.883 75.736 125.287 75.736 120.873V110.199H91.6992V120.873C91.6992 125.292 88.116 128.883 83.7176 128.883ZM76.3021 110.767V120.873C76.3021 124.974 79.6306 128.314 83.7176 128.314C87.8046 128.314 91.1331 124.974 91.1331 120.873V110.767H76.3021Z" fill="#D0D0D0"/>
<path d="M91.4161 113.823H76.019V114.778H91.4161V113.823Z" fill="#D0D0D0"/>
<path d="M80.4457 93.1058H97.6543C97.6543 95.7985 95.4806 97.9798 92.7974 97.9798H80.4457V93.1058Z" fill="#35477C"/>
<path d="M94.1729 93.1058H93.2389V97.9798H94.1729V93.1058Z" fill="#EAAE00"/>
<path d="M92.6106 93.1058H91.6766V97.9798H92.6106V93.1058Z" fill="#EAAE00"/>
<path d="M58.4765 97.9855H46.1248C43.4416 97.9855 41.2679 95.8041 41.2679 93.1115H58.4765V97.9855Z" fill="#35477C"/>
<path d="M44.7492 97.9855H45.6833V93.1115H44.7492V97.9855Z" fill="#EAAE00"/>
<path d="M46.3116 97.9855H47.2456V93.1115H46.3116V97.9855Z" fill="#EAAE00"/>
<path d="M64.6863 99.1273L59.7218 93.3614V89.7087L69.4639 93.3614L64.6863 99.1273Z" fill="#FAFAFA"/>
<path d="M74.2359 99.1273L79.206 93.3614V89.7087L69.4639 93.3614L74.2359 99.1273Z" fill="#FAFAFA"/>
</g>
</svg>
