<svg width="139" height="139" viewBox="0 0 139 139" fill="none" xmlns="http://www.w3.org/2000/svg">
<path d="M69.1852 138.477C107.395 138.477 138.37 107.478 138.37 69.2385C138.37 30.9991 107.395 0 69.1852 0C30.9753 0 0 30.9991 0 69.2385C0 107.478 30.9753 138.477 69.1852 138.477Z" fill="#56A6DC"/>
<mask id="mask0_1479_1695" style="mask-type:luminance" maskUnits="userSpaceOnUse" x="0" y="0" width="139" height="139">
<path d="M69.1852 138.477C107.395 138.477 138.37 107.478 138.37 69.2385C138.37 30.9991 107.395 0 69.1852 0C30.9753 0 0 30.9991 0 69.2385C0 107.478 30.9753 138.477 69.1852 138.477Z" fill="white"/>
</mask>
<g mask="url(#mask0_1479_1695)">
<path d="M78.9273 88.613H59.4431V92.0007H78.9273V88.613Z" fill="#848484"/>
<path d="M75.7347 82.727H62.6245V94.4197H75.7347V82.727Z" fill="#DE8A52"/>
<path d="M89.66 62.0099C92.7019 62.0099 95.1679 59.542 95.1679 56.4978C95.1679 53.4535 92.7019 50.9857 89.66 50.9857C86.6181 50.9857 84.1522 53.4535 84.1522 56.4978C84.1522 59.542 86.6181 62.0099 89.66 62.0099Z" fill="#F8A46D"/>
<path d="M86.6655 56.4977C86.6655 58.1519 88.0071 59.4946 89.66 59.4946C91.313 59.4946 92.6546 58.1519 92.6546 56.4977C92.6546 54.8435 91.313 53.5009 89.66 53.5009C88.0071 53.5009 86.6655 54.8435 86.6655 56.4977Z" fill="#DE8A52"/>
<path d="M48.7048 62.0099C51.7467 62.0099 54.2126 59.542 54.2126 56.4978C54.2126 53.4535 51.7467 50.9857 48.7048 50.9857C45.6629 50.9857 43.1969 53.4535 43.1969 56.4978C43.1969 59.542 45.6629 62.0099 48.7048 62.0099Z" fill="#F8A46D"/>
<path d="M45.7103 56.4977C45.7103 58.1519 47.0519 59.4946 48.7048 59.4946C50.3577 59.4946 51.6993 58.1519 51.6993 56.4977C51.6993 54.8435 50.3577 53.5009 48.7048 53.5009C47.0519 53.5009 45.7103 54.8435 45.7103 56.4977Z" fill="#DE8A52"/>
<path d="M71.1269 5.78405C49.8596 5.78405 38.0853 26.3652 36.6814 32.6931C35.2776 39.0267 54.7844 45.0033 54.7844 45.0033L82.3804 43.9496C89.9374 42.5447 98.904 32.5175 98.904 30.9313C98.904 29.3451 92.3998 5.77838 71.1325 5.77838L71.1269 5.78405Z" fill="#1D2362"/>
<path d="M89.1392 42.1425C89.1392 31.1137 80.2055 22.1731 69.1852 22.1731C58.1649 22.1731 49.2312 31.1137 49.2312 42.1425V66.4513C49.2312 77.48 58.1649 86.4206 69.1852 86.4206C80.2055 86.4206 89.1392 77.48 89.1392 66.4513V42.1425Z" fill="#F8A46D"/>
<path d="M85.0522 30.0362C81.4067 25.2606 75.6554 22.1731 69.1852 22.1731C62.715 22.1731 56.9637 25.2549 53.3182 30.0362C52.8088 30.699 52.3446 31.3958 51.92 32.1266C50.2105 35.0725 49.2312 38.4942 49.2312 42.1425V53.7842C52.1182 49.3711 53.9013 43.2925 53.9013 36.585C53.9013 35.7636 53.873 34.9535 53.822 34.149C59.5054 39.4232 69.3833 42.9129 80.6142 42.9129C82.0973 42.9129 83.5578 42.8506 84.9843 42.7316C85.7088 46.9748 87.1693 50.7647 89.1392 53.7842V42.1425C89.1392 37.5877 87.6165 33.3956 85.0522 30.0362Z" fill="#683F09"/>
<path d="M61.0225 54.0618C59.862 54.0618 58.8827 55.0872 58.5374 56.4978C58.6733 56.4468 58.8148 56.4128 58.9676 56.4128C59.6186 56.4128 60.1451 56.9397 60.1451 57.5911C60.1451 58.2426 59.6186 58.7695 58.9676 58.7695C58.8148 58.7695 58.6676 58.7411 58.5374 58.6845C58.8771 60.1008 59.862 61.1205 61.0225 61.1205C62.4659 61.1205 63.6377 59.5399 63.6377 57.5855C63.6377 55.631 62.4659 54.0505 61.0225 54.0505V54.0618Z" fill="#402E24"/>
<path d="M77.2121 54.0618C76.0517 54.0618 75.0724 55.0872 74.7271 56.4978C74.8629 56.4468 75.0044 56.4128 75.1573 56.4128C75.8083 56.4128 76.3347 56.9397 76.3347 57.5911C76.3347 58.2426 75.8083 58.7695 75.1573 58.7695C75.0044 58.7695 74.8572 58.7411 74.7271 58.6845C75.0667 60.1008 76.0517 61.1205 77.2121 61.1205C78.6556 61.1205 79.8274 59.5399 79.8274 57.5855C79.8274 55.631 78.6556 54.0505 77.2121 54.0505V54.0618Z" fill="#402E24"/>
<path d="M56.4769 52.2263C55.8939 52.2263 55.3731 51.8127 55.2599 51.2179C55.1297 50.5438 55.5712 49.8923 56.2448 49.762L63.0717 48.4364C63.7453 48.3061 64.3963 48.7479 64.5265 49.4164C64.6567 50.0906 64.2151 50.7421 63.5415 50.8723L56.7147 52.198C56.6354 52.215 56.5562 52.2206 56.4769 52.2206V52.2263Z" fill="#402E24"/>
<path d="M81.8935 52.2263C82.4766 52.2263 82.9974 51.8127 83.1106 51.2179C83.2408 50.5438 82.7992 49.8923 82.1256 49.762L75.2988 48.4364C74.6252 48.3061 73.9742 48.7479 73.844 49.4164C73.7138 50.0906 74.1553 50.7421 74.829 50.8723L81.6558 52.198C81.735 52.215 81.8143 52.2206 81.8935 52.2206V52.2263Z" fill="#402E24"/>
<path d="M69.1852 72.1107C66.236 72.1107 63.3434 71.8501 60.5356 71.3516C61.7301 74.9886 65.1491 77.6115 69.1852 77.6115C73.2213 77.6115 76.6347 74.9886 77.8348 71.3516C75.0271 71.8501 72.1401 72.1107 69.1852 72.1107Z" fill="white"/>
<path d="M71.0759 6.40722C58.5827 6.40722 49.4973 13.7321 44.0007 20.8191C45.5348 28.3933 55.5373 34.2397 67.6512 34.2397C80.8293 34.2397 91.5111 27.3226 91.5111 18.7854C91.5111 18.0943 91.4318 17.4088 91.296 16.7403C87.124 11.3358 80.6595 6.40155 71.0759 6.40155V6.40722Z" fill="#35477C"/>
<path d="M50.0917 34.7099L50.7766 36.2338C66.5643 41.8309 77.5461 38.4545 86.6429 34.8742L86.8127 32.8575C86.8127 32.8575 66.0492 24.6658 50.0917 34.7099Z" fill="#020000"/>
<path d="M49.2425 42.0688L46.5764 36.517C46.5764 36.517 48.7331 23.9009 68.789 23.9009C88.8449 23.9009 90.4922 35.0045 90.4922 35.0045L89.094 40.6809C88.5845 26.2293 48.7331 27.6172 49.2425 42.0688Z" fill="#051028"/>
<path d="M51.4106 29.0448C51.4106 29.0731 51.3993 29.1071 51.3993 29.1355C51.3993 30.8746 52.8201 32.4665 55.1863 33.7185C62.5679 29.8266 75.1007 29.4131 82.686 32.8178C84.1635 31.7357 85.0296 30.4837 85.0296 29.1355C85.0296 28.569 84.8598 28.0138 84.5767 27.4869C81.3501 25.5042 76.397 23.9009 68.7833 23.9009C59.9979 23.9009 54.6429 26.3256 51.4049 29.0448H51.4106Z" fill="#122349"/>
<path d="M55.158 37.5764C66.3832 40.5619 75.0384 38.9474 82.3747 36.4491C79.9859 34.1774 75.0045 32.6082 69.2362 32.6082C62.5509 32.6082 56.9242 34.7099 55.1637 37.5764H55.158Z" fill="#210805"/>
<path d="M70.4136 19.0177C70.4532 18.1283 69.7569 17.4031 68.8569 17.4031C67.9568 17.4031 67.187 18.1226 67.1474 19.0177C67.1077 19.9128 67.804 20.6322 68.7041 20.6322C69.6041 20.6322 70.374 19.9128 70.4136 19.0177Z" fill="#E29D4B"/>
<path d="M68.0588 19.7485C65.1322 20.128 65.1492 19.1933 65.1492 19.1933C65.1492 19.1933 63.4906 19.1026 63.4509 18.7514C63.4509 18.7514 61.6678 18.8081 61.6905 18.3095C61.7131 17.811 68.3192 17.5164 68.4041 17.5164C68.489 17.5164 68.0588 19.7428 68.0588 19.7428V19.7485Z" fill="#E29D4B"/>
<path d="M69.4796 19.7485C72.2817 20.128 72.3553 19.1933 72.3553 19.1933C72.3553 19.1933 73.9686 19.1026 74.0422 18.7514C74.0422 18.7514 75.763 18.8081 75.7857 18.3095C75.8083 17.811 69.44 17.5164 69.3551 17.5164C69.2702 17.5164 69.4796 19.7428 69.4796 19.7428V19.7485Z" fill="#E29D4B"/>
<path d="M68.789 29.0335C69.4205 29.0335 69.9324 28.2802 69.9324 27.351C69.9324 26.4217 69.4205 25.6685 68.789 25.6685C68.1575 25.6685 67.6455 26.4217 67.6455 27.351C67.6455 28.2802 68.1575 29.0335 68.789 29.0335Z" fill="#E29D4B"/>
<path d="M39.8458 92.0121L24.4599 148.181C23.6618 151.099 25.377 154.113 28.2922 154.917C28.7791 155.047 29.2659 155.115 29.7414 155.115C32.1472 155.115 34.3549 153.518 35.0172 151.082L50.403 94.9126L39.8401 92.0121H39.8458Z" fill="#FAFAFA"/>
<path d="M98.5247 92.0121L113.91 148.181C114.709 151.099 112.993 154.113 110.078 154.917C109.591 155.047 109.105 155.115 108.629 155.115C106.223 155.115 104.016 153.518 103.353 151.082L87.9674 94.9126L98.5303 92.0121H98.5247Z" fill="#D0D0D0"/>
<path d="M98.5247 92.0121L113.91 148.181C114.709 151.099 112.993 154.113 110.078 154.917C109.591 155.047 109.105 155.115 108.629 155.115C106.223 155.115 104.016 153.518 103.353 151.082L93.43 93.417L98.5247 92.0177V92.0121Z" fill="#FAFAFA"/>
<path d="M39.8458 92.0121L24.4599 148.181C23.6618 151.099 25.377 154.113 28.2922 154.917C28.7791 155.047 29.2659 155.115 29.7414 155.115C32.1472 155.115 34.3549 153.518 35.0172 151.082L50.403 94.9126L39.8401 92.0121H39.8458Z" fill="#D0D0D0"/>
<path d="M39.8458 92.0121L24.4599 148.181C23.6618 151.099 25.377 154.113 28.2922 154.917C28.7791 155.047 29.2659 155.115 29.7414 155.115C32.1472 155.115 34.3549 153.518 35.0172 151.082L44.9404 93.417L39.8458 92.0177V92.0121Z" fill="#FAFAFA"/>
<path d="M92.6036 155.11H45.7612L39.9023 92.0121H61.9338L69.2871 93.3094L77.2517 92.0121H98.4624L92.6036 155.11Z" fill="#FAFAFA"/>
<path d="M70.8268 98.4476L69.3946 92.2557H69.1852L67.753 98.4476L65.7491 147.263L69.2871 154.866L72.8307 147.263L70.8268 98.4476Z" fill="#1D2362"/>
<path d="M72.4062 97.4675L69.3946 99.3313L66.2813 97.6545L66.1737 94.1138L69.1852 92.2557L72.2986 93.9325L72.4062 97.4675Z" fill="#1D2362"/>
<g style="mix-blend-mode:multiply">
<path d="M64.4076 100.821L59.4431 93.3434V88.613L69.1852 92.2557L64.4076 100.821Z" fill="#D0D0D0"/>
</g>
<g style="mix-blend-mode:multiply">
<path d="M73.9572 100.821L78.9273 93.3434V88.613L69.3947 92.2557L73.9572 100.821Z" fill="#D0D0D0"/>
</g>
<path d="M83.4389 127.679C79.0405 127.679 75.4573 124.093 75.4573 119.692V109.047H91.4205V119.692C91.4205 124.099 87.8372 127.679 83.4389 127.679ZM76.0233 109.613V119.692C76.0233 123.782 79.3518 127.113 83.4389 127.113C87.5259 127.113 90.8544 123.782 90.8544 119.692V109.613H76.0233Z" fill="#D0D0D0"/>
<path d="M91.1374 112.656H75.7403V113.607H91.1374V112.656Z" fill="#D0D0D0"/>
<path d="M80.167 92.0008H97.3756C97.3756 94.686 95.2018 96.8614 92.5187 96.8614H80.167V92.0008Z" fill="#35477C"/>
<path d="M93.8942 92.0008H92.9602V96.8614H93.8942V92.0008Z" fill="#EAAE00"/>
<path d="M92.3319 92.0008H91.3979V96.8614H92.3319V92.0008Z" fill="#EAAE00"/>
<path d="M58.1978 96.8614H45.8461C43.1629 96.8614 40.9892 94.686 40.9892 92.0008H58.1978V96.8614Z" fill="#35477C"/>
<path d="M44.4705 96.8614H45.4045V92.0008H44.4705V96.8614Z" fill="#EAAE00"/>
<path d="M46.0329 96.8614H46.9669V92.0008H46.0329V96.8614Z" fill="#EAAE00"/>
<path d="M64.4076 98.0057L59.4431 92.2557V88.613L69.1852 92.2557L64.4076 98.0057Z" fill="#FAFAFA"/>
<path d="M73.9572 98.0057L78.9273 92.2557V88.613L69.1852 92.2557L73.9572 98.0057Z" fill="#FAFAFA"/>
</g>
</svg>
