<svg width="139" height="139" viewBox="0 0 139 139" fill="none" xmlns="http://www.w3.org/2000/svg">
<path d="M69.6393 138.721C107.946 138.721 139 107.667 139 69.3606C139 31.0538 107.946 0 69.6393 0C31.3325 0 0.278687 31.0538 0.278687 69.3606C0.278687 107.667 31.3325 138.721 69.6393 138.721Z" fill="#56A6DC"/>
<mask id="mask0_1479_1763" style="mask-type:luminance" maskUnits="userSpaceOnUse" x="0" y="0" width="139" height="139">
<path d="M69.6393 138.721C107.946 138.721 139 107.667 139 69.3606C139 31.0538 107.946 0 69.6393 0C31.3325 0 0.278687 31.0538 0.278687 69.3606C0.278687 107.667 31.3325 138.721 69.6393 138.721Z" fill="white"/>
</mask>
<g mask="url(#mask0_1479_1763)">
<path d="M59.3221 54.9403C59.1405 54.3672 58.9021 53.8224 58.607 53.3059C59.4412 52.1482 59.935 50.7238 59.935 49.1858C59.935 45.2927 56.7796 42.1374 52.8865 42.1374C52.4042 42.1374 51.9275 42.1885 51.4734 42.2793C51.0819 40.5597 49.5496 39.2715 47.7109 39.2715C45.98 39.2715 44.5158 40.4122 44.0221 41.9785C43.3297 41.3202 42.3933 40.9116 41.3605 40.9116C39.2267 40.9116 37.4958 42.6425 37.4958 44.7763C37.4958 46.2064 38.2732 47.4549 39.431 48.1189C38.3924 49.2426 37.7568 50.7465 37.7568 52.3979C37.7568 53.0222 37.8476 53.6237 38.0179 54.1969C36.7013 54.8098 35.7819 56.1435 35.7819 57.6984C35.7819 59.0207 36.4459 60.1841 37.456 60.8765C36.7353 61.915 36.3097 63.1805 36.3097 64.5426C36.3097 67.1871 37.9044 69.4572 40.1914 70.4503C39.7261 71.0859 39.4537 71.8691 39.4537 72.7146C39.4537 74.8485 41.1846 76.5794 43.3184 76.5794C43.8348 76.5794 44.3285 76.4772 44.7769 76.2899C44.9301 78.2819 46.5929 79.8482 48.6246 79.8482C48.8629 79.8482 49.0956 79.8255 49.3226 79.7801C49.6574 80.7051 50.5371 81.3691 51.5813 81.3691C51.9331 81.3691 52.268 81.2897 52.5687 81.1535C53.1987 81.5905 53.9591 81.8515 54.782 81.8515C55.7978 81.8515 56.7229 81.4542 57.4096 80.813C57.6649 80.83 57.926 80.8357 58.1814 80.8357C65.349 80.8357 71.1603 75.0244 71.1603 67.8568C71.1603 61.0751 65.9619 55.5135 59.3277 54.929L59.3221 54.9403ZM45.0379 45.934C45.1571 46.0475 45.2876 46.1553 45.4238 46.2575C45.2706 46.2234 45.1117 46.1951 44.9471 46.1667C44.9755 46.0872 45.0095 46.0135 45.0322 45.934H45.0379Z" fill="black"/>
<path d="M68.1241 67.8681C68.1241 75.0357 73.9353 80.847 81.103 80.847C81.364 80.847 81.6194 80.8357 81.8748 80.8243C82.5671 81.4656 83.4865 81.8629 84.5023 81.8629C85.3252 81.8629 86.0913 81.6018 86.7156 81.1648C87.0164 81.301 87.3512 81.3805 87.7031 81.3805C88.7416 81.3805 89.6269 80.7165 89.9617 79.7915C90.1887 79.8312 90.4214 79.8596 90.6598 79.8596C92.6914 79.8596 94.3542 78.2932 94.5075 76.3013C94.9558 76.4829 95.4495 76.5907 95.966 76.5907C98.0998 76.5907 99.8307 74.8598 99.8307 72.726C99.8307 71.8804 99.5526 71.0973 99.0929 70.4616C101.374 69.4742 102.975 67.2042 102.975 64.5539C102.975 63.1919 102.549 61.9263 101.828 60.8878C102.838 60.1898 103.502 59.0264 103.502 57.7098C103.502 56.1605 102.589 54.8268 101.266 54.2083C101.437 53.6407 101.528 53.0392 101.528 52.4093C101.528 50.7578 100.892 49.2539 99.8534 48.1303C101.011 47.4606 101.789 46.2178 101.789 44.7876C101.789 42.6538 100.058 40.9229 97.9239 40.9229C96.891 40.9229 95.9546 41.3315 95.2622 41.9898C94.7742 40.4178 93.3043 39.2828 91.5735 39.2828C89.7347 39.2828 88.1968 40.5711 87.8109 42.2906C87.3512 42.1998 86.8802 42.1487 86.3978 42.1487C82.5047 42.1487 79.3494 45.3041 79.3494 49.1972C79.3494 50.7351 79.8431 52.1539 80.6773 53.3173C80.3822 53.828 80.1382 54.3728 79.9623 54.9517C73.3338 55.5362 68.1298 61.0978 68.1298 67.8795L68.1241 67.8681ZM94.3202 46.1667C94.1613 46.1894 94.0024 46.2178 93.8435 46.2575C93.9797 46.1553 94.1102 46.0532 94.2294 45.934C94.2521 46.0135 94.2861 46.0929 94.3145 46.1667H94.3202Z" fill="black"/>
<path d="M79.4061 88.7693H59.8726V92.163H79.4061V88.7693Z" fill="#848484"/>
<path d="M76.2054 82.873H63.0619V94.5863H76.2054V82.873Z" fill="#4F230E"/>
<path d="M90.1661 62.1192C93.2157 62.1192 95.6879 59.647 95.6879 56.5974C95.6879 53.5478 93.2157 51.0756 90.1661 51.0756C87.1164 51.0756 84.6442 53.5478 84.6442 56.5974C84.6442 59.647 87.1164 62.1192 90.1661 62.1192Z" fill="#6D381B"/>
<path d="M87.1639 56.5974C87.1639 58.2546 88.5089 59.5996 90.166 59.5996C91.8231 59.5996 93.1681 58.2546 93.1681 56.5974C93.1681 54.9403 91.8231 53.5953 90.166 53.5953C88.5089 53.5953 87.1639 54.9403 87.1639 56.5974Z" fill="#4F230E"/>
<path d="M49.107 62.1192C52.1566 62.1192 54.6288 59.647 54.6288 56.5974C54.6288 53.5478 52.1566 51.0756 49.107 51.0756C46.0573 51.0756 43.5851 53.5478 43.5851 56.5974C43.5851 59.647 46.0573 62.1192 49.107 62.1192Z" fill="#6D381B"/>
<path d="M46.1048 56.5974C46.1048 58.2546 47.4498 59.5996 49.1069 59.5996C50.7641 59.5996 52.109 58.2546 52.109 56.5974C52.109 54.9403 50.7641 53.5953 49.1069 53.5953C47.4498 53.5953 46.1048 54.9403 46.1048 56.5974Z" fill="#4F230E"/>
<path d="M89.644 42.2168C89.644 31.1686 80.6876 22.2122 69.6393 22.2122C58.5911 22.2122 49.6347 31.1686 49.6347 42.2168V66.5685C49.6347 77.6168 58.5911 86.5731 69.6393 86.5731C80.6876 86.5731 89.644 77.6168 89.644 66.5685V42.2168Z" fill="#6D381B"/>
<path d="M69.6393 22.2122C58.59 22.2122 49.6347 31.1675 49.6347 42.2168V63.1578L55.5538 39.8276C59.9861 40.3668 64.7191 40.6619 69.6393 40.6619C74.5596 40.6619 79.2926 40.3668 83.7249 39.8276L89.644 63.1578V42.2168C89.644 31.1675 80.6887 22.2122 69.6393 22.2122Z" fill="black"/>
<path d="M71.5859 5.79425C50.2647 5.79425 38.4605 26.4118 37.0531 32.7508C35.6457 39.0955 55.202 45.0827 55.202 45.0827L82.8679 44.0272C90.4441 42.6198 99.4334 32.5749 99.4334 30.9859C99.4334 29.3968 92.9128 5.78857 71.5916 5.78857L71.5859 5.79425Z" fill="#1D2362"/>
<path d="M71.5348 6.41852C59.0099 6.41852 49.9014 13.7564 44.391 20.8559C45.9289 28.4434 55.9567 34.3001 68.1014 34.3001C81.3129 34.3001 92.0218 27.3709 92.0218 18.8185C92.0218 18.1262 91.9423 17.4395 91.8061 16.7698C87.6236 11.3558 81.1427 6.41284 71.5348 6.41284V6.41852Z" fill="#35477C"/>
<path d="M50.4973 34.7711L51.184 36.2977C67.0118 41.9047 78.0214 38.5224 87.1412 34.9357L87.3115 32.9154C87.3115 32.9154 66.4953 24.7092 50.4973 34.7711Z" fill="#020000"/>
<path d="M49.6461 42.1431L46.9731 36.5815C46.9731 36.5815 49.1353 23.9431 69.2421 23.9431C89.3488 23.9431 91.0003 35.0662 91.0003 35.0662L89.5985 40.7527C89.0878 26.2756 49.1353 27.666 49.6461 42.1431Z" fill="#051028"/>
<path d="M51.8196 29.0961C51.8196 29.1245 51.8083 29.1585 51.8083 29.1869C51.8083 30.9291 53.2327 32.5238 55.6049 33.778C63.0052 29.8792 75.5698 29.465 83.1744 32.8757C84.6555 31.7917 85.5238 30.5375 85.5238 29.1869C85.5238 28.6194 85.3536 28.0632 85.0698 27.5354C81.835 25.5492 76.8693 23.9431 69.2364 23.9431C60.4287 23.9431 55.0601 26.372 51.8139 29.0961H51.8196Z" fill="#122349"/>
<path d="M55.5765 37.6427C66.8302 40.6335 75.5073 39.0161 82.8622 36.5134C80.4673 34.2377 75.4733 32.6657 69.6904 32.6657C62.9881 32.6657 57.3471 34.7712 55.5822 37.6427H55.5765Z" fill="#210805"/>
<path d="M70.8708 19.0512C70.9105 18.1602 70.2125 17.4338 69.3101 17.4338C68.4078 17.4338 67.636 18.1546 67.5963 19.0512C67.5566 19.9479 68.2546 20.6686 69.1569 20.6686C70.0593 20.6686 70.8311 19.9479 70.8708 19.0512Z" fill="#E29D4B"/>
<path d="M68.51 19.7833C65.576 20.1636 65.593 19.2272 65.593 19.2272C65.593 19.2272 63.9302 19.1364 63.8905 18.7845C63.8905 18.7845 62.1028 18.8413 62.1256 18.3419C62.1483 17.8425 68.771 17.5474 68.8562 17.5474C68.9413 17.5474 68.51 19.7777 68.51 19.7777V19.7833Z" fill="#E29D4B"/>
<path d="M69.9344 19.7833C72.7436 20.1636 72.8173 19.2272 72.8173 19.2272C72.8173 19.2272 74.4347 19.1364 74.5085 18.7845C74.5085 18.7845 76.2337 18.8413 76.2564 18.3419C76.2791 17.8425 69.8947 17.5474 69.8096 17.5474C69.7244 17.5474 69.9344 19.7777 69.9344 19.7777V19.7833Z" fill="#E29D4B"/>
<path d="M69.2421 29.0847C69.8752 29.0847 70.3884 28.3301 70.3884 27.3992C70.3884 26.4684 69.8752 25.7137 69.2421 25.7137C68.6089 25.7137 68.0957 26.4684 68.0957 27.3992C68.0957 28.3301 68.6089 29.0847 69.2421 29.0847Z" fill="#E29D4B"/>
<path d="M61.4559 54.1571C60.2925 54.1571 59.3107 55.1843 58.9645 56.5974C59.1007 56.5463 59.2426 56.5123 59.3958 56.5123C60.0484 56.5123 60.5762 57.04 60.5762 57.6927C60.5762 58.3453 60.0484 58.8731 59.3958 58.8731C59.2426 58.8731 59.095 58.8447 58.9645 58.788C59.305 60.2067 60.2925 61.2282 61.4559 61.2282C62.903 61.2282 64.0777 59.6449 64.0777 57.687C64.0777 55.7291 62.903 54.1458 61.4559 54.1458V54.1571Z" fill="black"/>
<path d="M77.6865 54.1571C76.5232 54.1571 75.5414 55.1843 75.1952 56.5974C75.3314 56.5463 75.4733 56.5123 75.6265 56.5123C76.2791 56.5123 76.8069 57.04 76.8069 57.6927C76.8069 58.3453 76.2791 58.8731 75.6265 58.8731C75.4733 58.8731 75.3257 58.8447 75.1952 58.788C75.5357 60.2067 76.5232 61.2282 77.6865 61.2282C79.1337 61.2282 80.3084 59.6449 80.3084 57.687C80.3084 55.7291 79.1337 54.1458 77.6865 54.1458V54.1571Z" fill="black"/>
<path d="M69.6393 72.2379C66.6826 72.2379 63.7827 71.9768 60.9678 71.4774C62.1653 75.1208 65.593 77.7484 69.6393 77.7484C73.6857 77.7484 77.1077 75.1208 78.3108 71.4774C75.496 71.9768 72.6017 72.2379 69.6393 72.2379Z" fill="white"/>
<path d="M82.2777 52.3751C82.0621 52.3751 81.8578 52.2389 81.784 52.0176C81.4492 50.9961 80.6433 50.1902 79.5083 49.7476C78.3392 49.2936 76.9715 49.2766 75.6549 49.7079C75.3825 49.7987 75.0874 49.6454 75.0023 49.3787C74.9115 49.1063 75.059 48.8169 75.3314 48.7261C76.8751 48.221 78.4924 48.2437 79.8828 48.7828C81.313 49.339 82.3345 50.3718 82.7714 51.6941C82.8622 51.9665 82.7147 52.256 82.4423 52.3468C82.3912 52.3638 82.3345 52.3751 82.2834 52.3751H82.2777Z" fill="black"/>
<path d="M56.9953 52.3751C56.9442 52.3751 56.8875 52.3695 56.8364 52.3468C56.564 52.256 56.4164 51.9665 56.5072 51.6941C56.9385 50.3718 57.9657 49.339 59.3958 48.7828C60.7862 48.2437 62.4036 48.221 63.9472 48.7261C64.2196 48.8169 64.3672 49.1063 64.2764 49.3787C64.1856 49.6511 63.8962 49.7987 63.6238 49.7079C62.3071 49.2766 60.9395 49.2936 59.7704 49.7476C58.6354 50.1902 57.8295 50.9961 57.4947 52.0176C57.4209 52.2389 57.2223 52.3751 57.001 52.3751H56.9953Z" fill="black"/>
<path d="M47.8301 62.159C48.3034 62.159 48.687 61.7753 48.687 61.3021C48.687 60.8288 48.3034 60.4451 47.8301 60.4451C47.3568 60.4451 46.9731 60.8288 46.9731 61.3021C46.9731 61.7753 47.3568 62.159 47.8301 62.159Z" fill="#FFED00"/>
<path d="M91.443 62.159C91.9162 62.159 92.2999 61.7753 92.2999 61.3021C92.2999 60.8288 91.9162 60.4451 91.443 60.4451C90.9697 60.4451 90.586 60.8288 90.586 61.3021C90.586 61.7753 90.9697 62.159 91.443 62.159Z" fill="#FFED00"/>
<path d="M40.2255 92.1744L24.8006 148.443C24.0005 151.365 25.72 154.384 28.6427 155.19C29.1307 155.321 29.6188 155.389 30.0955 155.389C32.5074 155.389 34.7207 153.789 35.3846 151.348L50.8095 95.08L40.2198 92.1744H40.2255Z" fill="#FAFAFA"/>
<path d="M99.0532 92.1744L114.478 148.443C115.278 151.365 113.559 154.384 110.636 155.19C110.148 155.321 109.66 155.389 109.183 155.389C106.771 155.389 104.558 153.789 103.894 151.348L88.4692 95.08L99.0589 92.1744H99.0532Z" fill="#D0D0D0"/>
<path d="M99.0532 92.1744L114.478 148.443C115.278 151.365 113.559 154.384 110.636 155.19C110.148 155.321 109.66 155.389 109.183 155.389C106.771 155.389 104.558 153.789 103.894 151.348L93.9457 93.5818L99.0532 92.18V92.1744Z" fill="#FAFAFA"/>
<path d="M40.2255 92.1744L24.8006 148.443C24.0005 151.365 25.72 154.384 28.6427 155.19C29.1307 155.321 29.6188 155.389 30.0955 155.389C32.5074 155.389 34.7207 153.789 35.3846 151.348L50.8095 95.08L40.2198 92.1744H40.2255Z" fill="#D0D0D0"/>
<path d="M40.2255 92.1744L24.8006 148.443C24.0005 151.365 25.72 154.384 28.6427 155.19C29.1307 155.321 29.6188 155.389 30.0955 155.389C32.5074 155.389 34.7207 153.789 35.3846 151.348L45.333 93.5818L40.2255 92.18V92.1744Z" fill="#FAFAFA"/>
<path d="M93.1171 155.383H46.1559L40.2822 92.1744H62.3696L69.7415 93.474L77.7263 92.1744H98.9908L93.1171 155.383Z" fill="#FAFAFA"/>
<path d="M71.2851 98.6213L69.8493 92.4185H69.6393L68.2036 98.6213L66.1946 147.523L69.7415 155.139L73.2941 147.523L71.2851 98.6213Z" fill="#1D2362"/>
<path d="M72.8685 97.6395L69.8493 99.5066L66.728 97.8268L66.6202 94.2799L69.6393 92.4185L72.7606 94.0983L72.8685 97.6395Z" fill="#1D2362"/>
<g style="mix-blend-mode:multiply">
<path d="M64.8496 100.999L59.8726 93.508V88.7693L69.6393 92.4184L64.8496 100.999Z" fill="#D0D0D0"/>
</g>
<g style="mix-blend-mode:multiply">
<path d="M74.4234 100.999L79.4061 93.508V88.7693L69.8493 92.4184L74.4234 100.999Z" fill="#D0D0D0"/>
</g>
<path d="M83.9291 127.905C79.5196 127.905 75.9273 124.312 75.9273 119.903V109.239H91.931V119.903C91.931 124.318 88.3387 127.905 83.9291 127.905ZM76.4948 109.807V119.903C76.4948 124 79.8317 127.337 83.9291 127.337C88.0265 127.337 91.3635 124 91.3635 119.903V109.807H76.4948Z" fill="#D0D0D0"/>
<path d="M91.6472 112.854H76.2111V113.808H91.6472V112.854Z" fill="#D0D0D0"/>
<path d="M80.649 92.163H97.9012C97.9012 94.853 95.7219 97.0322 93.032 97.0322H80.649V92.163Z" fill="#35477C"/>
<path d="M94.411 92.163H93.4746V97.0322H94.411V92.163Z" fill="#EAAE00"/>
<path d="M92.8447 92.163H91.9083V97.0322H92.8447V92.163Z" fill="#EAAE00"/>
<path d="M58.6241 97.0323H46.2411C43.5511 97.0323 41.3719 94.8531 41.3719 92.1631H58.6241V97.0323Z" fill="#35477C"/>
<path d="M44.862 97.0323H45.7984V92.1631H44.862V97.0323Z" fill="#EAAE00"/>
<path d="M46.4283 97.0323H47.3647V92.1631H46.4283V97.0323Z" fill="#EAAE00"/>
<path d="M64.8496 98.1786L59.8726 92.4184V88.7693L69.6393 92.4184L64.8496 98.1786Z" fill="#FAFAFA"/>
<path d="M74.4234 98.1786L79.4061 92.4184V88.7693L69.6393 92.4184L74.4234 98.1786Z" fill="#FAFAFA"/>
</g>
</svg>
