<svg width="139" height="140" viewBox="0 0 139 140" fill="none" xmlns="http://www.w3.org/2000/svg">
<path d="M69.1852 139.255C107.395 139.255 138.37 108.171 138.37 69.8265C138.37 31.4819 107.395 0.397461 69.1852 0.397461C30.9753 0.397461 0 31.4819 0 69.8265C0 108.171 30.9753 139.255 69.1852 139.255Z" fill="#56A6DC"/>
<mask id="mask0_1479_1900" style="mask-type:luminance" maskUnits="userSpaceOnUse" x="0" y="0" width="139" height="140">
<path d="M69.1852 139.255C107.395 139.255 138.37 108.171 138.37 69.8265C138.37 31.4819 107.395 0.397461 69.1852 0.397461C30.9753 0.397461 0 31.4819 0 69.8265C0 108.171 30.9753 139.255 69.1852 139.255Z" fill="white"/>
</mask>
<g mask="url(#mask0_1479_1900)">
<path d="M78.9273 89.7087H59.4431V93.1058H78.9273V89.7087Z" fill="#848484"/>
<path d="M75.7347 83.8065H62.6245V95.5314H75.7347V83.8065Z" fill="#4F230E"/>
<path d="M89.66 63.0323C92.7019 63.0323 95.1679 60.5577 95.1679 57.5051C95.1679 54.4524 92.7019 51.9778 89.66 51.9778C86.6181 51.9778 84.1522 54.4524 84.1522 57.5051C84.1522 60.5577 86.6181 63.0323 89.66 63.0323Z" fill="#6D381B"/>
<path d="M86.6655 57.5051C86.6655 59.1638 88.0071 60.5101 89.66 60.5101C91.313 60.5101 92.6546 59.1638 92.6546 57.5051C92.6546 55.8463 91.313 54.5 89.66 54.5C88.0071 54.5 86.6655 55.8463 86.6655 57.5051Z" fill="#4F230E"/>
<path d="M48.7048 63.0323C51.7467 63.0323 54.2126 60.5577 54.2126 57.5051C54.2126 54.4524 51.7467 51.9778 48.7048 51.9778C45.6629 51.9778 43.1969 54.4524 43.1969 57.5051C43.1969 60.5577 45.6629 63.0323 48.7048 63.0323Z" fill="#6D381B"/>
<path d="M45.7103 57.5051C45.7103 59.1638 47.0519 60.5101 48.7048 60.5101C50.3577 60.5101 51.6993 59.1638 51.6993 57.5051C51.6993 55.8463 50.3577 54.5 48.7048 54.5C47.0519 54.5 45.7103 55.8463 45.7103 57.5051Z" fill="#4F230E"/>
<path d="M89.1392 43.1103C89.1392 32.0511 80.2055 23.0859 69.1852 23.0859C58.1649 23.0859 49.2312 32.0511 49.2312 43.1103V67.486C49.2312 78.5451 58.1649 87.5103 69.1852 87.5103C80.2055 87.5103 89.1392 78.5451 89.1392 67.486V43.1103Z" fill="#6D381B"/>
<path d="M61.0225 55.0625C59.8621 55.0625 58.8828 56.0907 58.5375 57.5052C58.6733 57.4541 58.8148 57.42 58.9677 57.42C59.6187 57.42 60.1451 57.9483 60.1451 58.6016C60.1451 59.2548 59.6187 59.7831 58.9677 59.7831C58.8148 59.7831 58.6677 59.7547 58.5375 59.6979C58.8771 61.1181 59.8621 62.1406 61.0225 62.1406C62.466 62.1406 63.6378 60.5557 63.6378 58.5959C63.6378 56.636 62.466 55.0511 61.0225 55.0511V55.0625Z" fill="black"/>
<path d="M77.2122 55.0625C76.0517 55.0625 75.0724 56.0907 74.7271 57.5052C74.863 57.4541 75.0045 57.42 75.1573 57.42C75.8083 57.42 76.3348 57.9483 76.3348 58.6016C76.3348 59.2548 75.8083 59.7831 75.1573 59.7831C75.0045 59.7831 74.8573 59.7547 74.7271 59.6979C75.0668 61.1181 76.0517 62.1406 77.2122 62.1406C78.6556 62.1406 79.8274 60.5557 79.8274 58.5959C79.8274 56.636 78.6556 55.0511 77.2122 55.0511V55.0625Z" fill="black"/>
<path d="M56.4769 53.2219C55.8939 53.2219 55.3731 52.8072 55.2599 52.2107C55.1297 51.5347 55.5712 50.8815 56.2448 50.7508L63.0717 49.4215C63.7453 49.2909 64.3963 49.734 64.5265 50.4043C64.6567 51.0803 64.2151 51.7336 63.5415 51.8642L56.7147 53.1935C56.6354 53.2105 56.5562 53.2162 56.4769 53.2162V53.2219Z" fill="black"/>
<path d="M81.8935 53.2219C82.4766 53.2219 82.9974 52.8072 83.1106 52.2107C83.2408 51.5347 82.7992 50.8815 82.1256 50.7508L75.2988 49.4215C74.6252 49.2909 73.9742 49.734 73.844 50.4043C73.7138 51.0803 74.1553 51.7336 74.829 51.8642L81.6558 53.1935C81.735 53.2105 81.8143 53.2162 81.8935 53.2162V53.2219Z" fill="black"/>
<path d="M69.1852 73.1611C66.236 73.1611 63.3434 72.8998 60.5356 72.3999C61.7301 76.0469 65.1491 78.677 69.1852 78.677C73.2213 78.677 76.6347 76.0469 77.8348 72.3999C75.0271 72.8998 72.1401 73.1611 69.1852 73.1611Z" fill="white"/>
<path d="M69.1852 23.0859C58.1638 23.0859 49.2312 32.05 49.2312 43.1103V64.0719L55.1353 40.7187C59.5563 41.2584 64.2774 41.5538 69.1852 41.5538C74.093 41.5538 78.8141 41.2584 83.2351 40.7187L89.1392 64.0719V43.1103C89.1392 32.05 80.2066 23.0859 69.1852 23.0859Z" fill="black"/>
<path d="M39.8458 93.1171L24.4599 149.441C23.6618 152.366 25.377 155.388 28.2922 156.195C28.7791 156.326 29.2659 156.394 29.7414 156.394C32.1472 156.394 34.3549 154.792 35.0172 152.349L50.403 96.0256L39.8401 93.1171H39.8458Z" fill="#FAFAFA"/>
<path d="M98.5247 93.1171L113.911 149.441C114.709 152.366 112.993 155.388 110.078 156.195C109.591 156.326 109.105 156.394 108.629 156.394C106.223 156.394 104.016 154.792 103.353 152.349L87.9675 96.0256L98.5304 93.1171H98.5247Z" fill="#D0D0D0"/>
<path d="M98.5247 93.1171L113.911 149.441C114.709 152.366 112.993 155.388 110.078 156.195C109.591 156.326 109.105 156.394 108.629 156.394C106.223 156.394 104.016 154.792 103.353 152.349L93.4301 94.5259L98.5247 93.1227V93.1171Z" fill="#FAFAFA"/>
<path d="M39.8458 93.1171L24.4599 149.441C23.6618 152.366 25.377 155.388 28.2922 156.195C28.7791 156.326 29.2659 156.394 29.7414 156.394C32.1472 156.394 34.3549 154.792 35.0172 152.349L50.403 96.0256L39.8401 93.1171H39.8458Z" fill="#D0D0D0"/>
<path d="M39.8458 93.1171L24.4599 149.441C23.6618 152.366 25.377 155.388 28.2922 156.195C28.7791 156.326 29.2659 156.394 29.7414 156.394C32.1472 156.394 34.3549 154.792 35.0172 152.349L44.9404 94.5259L39.8458 93.1227V93.1171Z" fill="#FAFAFA"/>
<path d="M92.6036 156.388H45.7612L39.9023 93.1171H61.9338L69.2871 94.4179L77.2517 93.1171H98.4624L92.6036 156.388Z" fill="#FAFAFA"/>
<path d="M70.8268 99.5703L69.3946 93.3613H69.1852L67.753 99.5703L65.7491 148.521L69.2871 156.144L72.8307 148.521L70.8268 99.5703Z" fill="#1D2362"/>
<path d="M71.1269 6.6518C49.8596 6.6518 38.0853 27.2896 36.6814 33.6349C35.2776 39.9859 54.7844 45.979 54.7844 45.979L82.3804 44.9224C89.9374 43.5136 98.904 33.4588 98.904 31.8682C98.904 30.2777 92.3998 6.64612 71.1325 6.64612L71.1269 6.6518Z" fill="#1D2362"/>
<path d="M71.0759 7.27662C58.5827 7.27662 49.4973 14.6217 44.0007 21.7282C45.5348 29.3232 55.5373 35.1857 67.6512 35.1857C80.8293 35.1857 91.5111 28.2496 91.5111 19.6889C91.5111 18.9958 91.4318 18.3085 91.296 17.6381C87.124 12.2188 80.6595 7.27094 71.0759 7.27094V7.27662Z" fill="#35477C"/>
<path d="M50.0917 35.6572L50.7766 37.1853C66.5643 42.7978 77.5461 39.4121 86.6429 35.822L86.8127 33.7997C86.8127 33.7997 66.0492 25.5854 50.0917 35.6572Z" fill="#020000"/>
<path d="M49.2425 43.0363L46.5764 37.4693C46.5764 37.4693 48.7331 24.8185 68.789 24.8185C88.8449 24.8185 90.4922 35.9526 90.4922 35.9526L89.094 41.6446C88.5845 27.1532 48.7331 28.545 49.2425 43.0363Z" fill="#051028"/>
<path d="M51.4106 29.9765C51.4106 30.0049 51.3993 30.039 51.3993 30.0674C51.3993 31.8114 52.8201 33.4076 55.1863 34.6631C62.5679 30.7604 75.1007 30.3458 82.686 33.7598C84.1635 32.6748 85.0296 31.4194 85.0296 30.0674C85.0296 29.4993 84.8598 28.9426 84.5767 28.4143C81.3501 26.4261 76.397 24.8185 68.7833 24.8185C59.9979 24.8185 54.6429 27.2498 51.4049 29.9765H51.4106Z" fill="#122349"/>
<path d="M55.158 38.5316C66.3832 41.5253 75.0384 39.9063 82.3747 37.4012C79.9859 35.1232 75.0045 33.5497 69.2362 33.5497C62.5509 33.5497 56.9242 35.6572 55.1637 38.5316H55.158Z" fill="#210805"/>
<path d="M70.4136 19.9217C70.4532 19.0299 69.7569 18.3027 68.8569 18.3027C67.9568 18.3027 67.187 19.0242 67.1474 19.9217C67.1077 20.8193 67.804 21.5407 68.7041 21.5407C69.6041 21.5407 70.374 20.8193 70.4136 19.9217Z" fill="#E29D4B"/>
<path d="M68.0588 20.6546C65.1322 21.0352 65.1492 20.0979 65.1492 20.0979C65.1492 20.0979 63.4906 20.007 63.4509 19.6548C63.4509 19.6548 61.6678 19.7116 61.6905 19.2117C61.7131 18.7118 68.3192 18.4164 68.4041 18.4164C68.489 18.4164 68.0588 20.6489 68.0588 20.6489V20.6546Z" fill="#E29D4B"/>
<path d="M69.4796 20.6546C72.2817 21.0352 72.3553 20.0979 72.3553 20.0979C72.3553 20.0979 73.9686 20.007 74.0422 19.6548C74.0422 19.6548 75.763 19.7116 75.7857 19.2117C75.8083 18.7118 69.44 18.4164 69.3551 18.4164C69.2702 18.4164 69.4796 20.6489 69.4796 20.6489V20.6546Z" fill="#E29D4B"/>
<path d="M68.789 29.9652C69.4205 29.9652 69.9324 29.2098 69.9324 28.278C69.9324 27.3462 69.4205 26.5909 68.789 26.5909C68.1575 26.5909 67.6455 27.3462 67.6455 28.278C67.6455 29.2098 68.1575 29.9652 68.789 29.9652Z" fill="#E29D4B"/>
<path d="M72.4062 98.5875L69.3946 100.456L66.2813 98.775L66.1737 95.2246L69.1852 93.3613L72.2986 95.0428L72.4062 98.5875Z" fill="#1D2362"/>
<g style="mix-blend-mode:multiply">
<path d="M64.4076 101.951L59.4431 94.4521V89.7087L69.1852 93.3614L64.4076 101.951Z" fill="#D0D0D0"/>
</g>
<g style="mix-blend-mode:multiply">
<path d="M73.9572 101.951L78.9273 94.4521V89.7087L69.3947 93.3614L73.9572 101.951Z" fill="#D0D0D0"/>
</g>
<path d="M83.4389 128.883C79.0405 128.883 75.4573 125.287 75.4573 120.873V110.199H91.4205V120.873C91.4205 125.292 87.8372 128.883 83.4389 128.883ZM76.0233 110.767V120.873C76.0233 124.974 79.3518 128.314 83.4389 128.314C87.5259 128.314 90.8544 124.974 90.8544 120.873V110.767H76.0233Z" fill="#D0D0D0"/>
<path d="M91.1374 113.823H75.7403V114.778H91.1374V113.823Z" fill="#D0D0D0"/>
<path d="M80.167 93.1057H97.3756C97.3756 95.7983 95.2018 97.9797 92.5187 97.9797H80.167V93.1057Z" fill="#35477C"/>
<path d="M93.8942 93.1057H92.9602V97.9797H93.8942V93.1057Z" fill="#EAAE00"/>
<path d="M92.3319 93.1057H91.3979V97.9797H92.3319V93.1057Z" fill="#EAAE00"/>
<path d="M58.1978 97.9854H45.8461C43.1629 97.9854 40.9892 95.804 40.9892 93.1113H58.1978V97.9854Z" fill="#35477C"/>
<path d="M44.4705 97.9854H45.4045V93.1113H44.4705V97.9854Z" fill="#EAAE00"/>
<path d="M46.0329 97.9854H46.9669V93.1113H46.0329V97.9854Z" fill="#EAAE00"/>
<path d="M64.4076 99.1273L59.4431 93.3614V89.7087L69.1852 93.3614L64.4076 99.1273Z" fill="#FAFAFA"/>
<path d="M73.9572 99.1273L78.9273 93.3614V89.7087L69.1852 93.3614L73.9572 99.1273Z" fill="#FAFAFA"/>
</g>
</svg>
