<svg width="320" height="164" viewBox="0 0 320 164" fill="none" xmlns="http://www.w3.org/2000/svg">
<path d="M201.182 11.4059C203.076 11.6531 204.811 12.8525 205.502 14.6573C209.185 11.0546 214.628 9.48784 219.309 10.6872C223.991 11.8842 227.744 15.8011 228.827 20.6239C232.402 20.818 235.728 20.9821 238.846 22.8054C239.934 23.4386 240.97 24.2404 241.542 25.3843C242.665 27.6351 241.607 30.6901 239.641 32.4856C238.192 33.8075 235.048 35.469 233.093 35.2333C233.276 40.0884 230.597 45.1538 226.429 47.8275C222.261 50.5012 216.799 50.663 212.849 48.225C211.018 49.7248 208.524 50.0437 206.332 49.6138C204.14 49.184 202.178 48.0933 200.251 47.0164C198.118 51.0004 194.194 53.5331 189.543 52.9045C187.75 52.6619 179.086 48.4353 180.309 45.9095C177.834 51.0165 171.207 53.4037 165.661 51.9409C160.114 50.4781 155.82 45.7917 153.881 40.4628C150.941 39.5916 148.032 38.3969 145.737 36.3887C143.44 34.3782 141.827 31.4434 142.015 28.4231C142.39 22.4218 149.073 21.0653 153.977 20.5985C154.474 20.55 154.99 20.4991 155.435 20.245C156.075 19.8798 156.453 19.175 156.811 18.5187C158.009 16.335 159.479 14.2089 161.516 12.8132C163.553 11.4174 166.258 10.8836 168.286 11.9951C170.979 3.62977 178.153 -1.31549 186.242 0.306739C192.014 1.46218 196.798 6.00997 198.331 11.7964C199.248 11.3989 200.235 11.2834 201.182 11.4059Z" fill="#F7FAF7"/>
<path d="M295.917 138.887C297.035 139.036 298.058 139.76 298.466 140.85C300.639 138.674 303.851 137.729 306.613 138.453C309.375 139.175 311.589 141.54 312.228 144.452C314.337 144.569 316.3 144.668 318.139 145.769C318.781 146.152 319.392 146.636 319.73 147.326C320.392 148.685 319.768 150.53 318.608 151.614C317.753 152.412 315.898 153.415 314.745 153.273C314.853 156.204 313.272 159.263 310.813 160.877C308.354 162.491 305.131 162.589 302.801 161.117C301.721 162.022 300.249 162.215 298.956 161.956C297.663 161.696 296.505 161.037 295.368 160.387C294.11 162.793 291.794 164.322 289.05 163.942C287.992 163.796 282.881 161.244 283.603 159.719C282.142 162.802 278.232 164.244 274.96 163.361C271.687 162.477 269.154 159.648 268.01 156.43C266.275 155.904 264.559 155.183 263.205 153.971C261.85 152.757 260.898 150.985 261.009 149.161C261.23 145.538 265.173 144.719 268.067 144.437C268.36 144.408 268.664 144.377 268.927 144.223C269.304 144.003 269.527 143.577 269.739 143.181C270.445 141.863 271.313 140.579 272.514 139.736C273.716 138.894 275.312 138.571 276.509 139.242C278.098 134.192 282.33 131.206 287.103 132.185C290.508 132.883 293.331 135.629 294.236 139.122C294.776 138.882 295.359 138.813 295.917 138.887Z" fill="#F7FAF7"/>
<path d="M42.0192 119.393C43.364 119.575 44.5956 120.457 45.0866 121.786C47.7013 119.135 51.566 117.982 54.8897 118.864C58.2135 119.745 60.8781 122.627 61.6471 126.176C64.1852 126.319 66.547 126.44 68.7606 127.781C69.5328 128.247 70.2685 128.837 70.6746 129.679C71.4718 131.335 70.7212 133.583 69.3248 134.905C68.2962 135.877 66.0643 137.1 64.6762 136.926C64.806 140.499 62.9036 144.226 59.9444 146.194C56.9852 148.161 53.1072 148.28 50.3027 146.486C49.0029 147.59 47.232 147.825 45.6758 147.508C44.1196 147.192 42.7265 146.389 41.3584 145.597C39.8438 148.529 37.0577 150.392 33.7556 149.93C32.4823 149.751 26.3308 146.641 27.1996 144.782C25.4421 148.54 20.7369 150.297 16.799 149.221C12.8611 148.144 9.81198 144.696 8.43555 140.774C6.34843 140.133 4.28295 139.254 2.65353 137.777C1.02245 136.297 -0.122632 134.138 0.010517 131.915C0.276816 127.499 5.02193 126.501 8.50379 126.157C8.85663 126.122 9.22279 126.084 9.53902 125.897C9.9934 125.629 10.2614 125.11 10.516 124.627C11.3665 123.02 12.4101 121.456 13.8564 120.429C15.3027 119.401 17.2234 119.009 18.6631 119.827C20.5754 113.671 25.6684 110.032 31.4121 111.226C35.5098 112.076 38.9068 115.422 39.9953 119.68C40.6461 119.388 41.3468 119.303 42.0192 119.393Z" fill="#F7FAF7"/>
<path d="M68.0192 26.393C69.364 26.5749 70.5956 27.4575 71.0866 28.7855C73.7013 26.1345 77.566 24.9816 80.8897 25.8642C84.2135 26.745 86.8781 29.6273 87.6471 33.1761C90.1852 33.3189 92.547 33.4397 94.7606 34.7813C95.5328 35.2473 96.2685 35.8373 96.6746 36.679C97.4718 38.3353 96.7212 40.5833 95.3248 41.9045C94.2962 42.8772 92.0643 44.0998 90.6762 43.9264C90.806 47.499 88.9036 51.2264 85.9444 53.1938C82.9852 55.1613 79.1072 55.2803 76.3027 53.4863C75.0029 54.5899 73.232 54.8246 71.6758 54.5083C70.1196 54.192 68.7265 53.3894 67.3584 52.597C65.8438 55.5286 63.0577 57.3923 59.7556 56.9297C58.4823 56.7512 52.3308 53.6411 53.1996 51.7825C51.4421 55.5405 46.7369 57.297 42.799 56.2207C38.8611 55.1443 35.812 51.6957 34.4355 47.7745C32.3484 47.1334 30.2829 46.2543 28.6535 44.7766C27.0225 43.2972 25.8774 41.1376 26.0105 38.9151C26.2768 34.4991 31.0219 33.5009 34.5038 33.1574C34.8566 33.1217 35.2228 33.0843 35.539 32.8972C35.9934 32.6286 36.2614 32.1099 36.516 31.627C37.3665 30.0201 38.4101 28.4556 39.8564 27.4286C41.3027 26.4015 43.2234 26.0087 44.6631 26.8266C46.5754 20.671 51.6684 17.032 57.4121 18.2257C61.5098 19.0759 64.9068 22.4224 65.9953 26.6804C66.6461 26.3879 67.3468 26.3029 68.0192 26.393Z" fill="#F7FAF7"/>
</svg>
