<svg width="178" height="296" viewBox="0 0 178 296" fill="none" xmlns="http://www.w3.org/2000/svg">
<path d="M142.138 139.427C144.123 136.092 144.572 131.904 142.991 128.03C142.957 127.951 142.923 127.862 142.878 127.783C142.105 130.04 140.389 131.971 138.011 132.948C135.364 134.037 132.482 133.689 130.228 132.286C129.824 131.14 129.6 129.916 129.6 128.636C129.6 125.133 131.248 122.011 133.816 120.024C133.659 120.013 133.502 120.001 133.345 119.99C142.979 116.128 149.776 106.707 149.776 95.6912C149.776 81.2399 138.067 69.5171 123.633 69.5171C109.199 69.5171 97.4901 81.2399 97.4901 95.6912C97.4901 110.143 109.199 121.865 123.633 121.865C123.992 121.865 124.34 121.854 124.687 121.843C124.014 122.236 123.397 122.685 122.825 123.179C118.866 126.132 116.298 130.86 116.298 136.182C116.298 145.131 123.543 152.385 132.482 152.385C141.42 152.385 148.666 145.131 148.666 136.182C148.666 136.07 148.666 135.957 148.666 135.845C147.017 137.732 144.718 139.034 142.127 139.438L142.138 139.427Z" fill="#683F09"/>
<path d="M126.953 94.602C130.297 94.602 133.009 88.9111 133.009 81.8911C133.009 74.871 130.297 69.1802 126.953 69.1802C123.608 69.1802 120.896 74.871 120.896 81.8911C120.896 88.9111 123.608 94.602 126.953 94.602Z" fill="#EAAE00"/>
<path d="M108.302 164.186H69.6985V170.901H108.302V164.186Z" fill="#707070"/>
<path d="M101.976 152.52H76.0015V175.696H101.976V152.52Z" fill="#DE8A52"/>
<path d="M129.566 111.456C135.593 111.456 140.478 106.565 140.478 100.531C140.478 94.4965 135.593 89.605 129.566 89.605C123.539 89.605 118.653 94.4965 118.653 100.531C118.653 106.565 123.539 111.456 129.566 111.456Z" fill="#F8A46D"/>
<path d="M123.633 100.53C123.633 103.809 126.291 106.47 129.566 106.47C132.841 106.47 135.499 103.809 135.499 100.53C135.499 97.2515 132.841 94.5903 129.566 94.5903C126.291 94.5903 123.633 97.2515 123.633 100.53Z" fill="#DE8A52"/>
<path d="M48.423 111.456C54.4499 111.456 59.3355 106.565 59.3355 100.531C59.3355 94.4965 54.4499 89.605 48.423 89.605C42.3962 89.605 37.5105 94.4965 37.5105 100.531C37.5105 106.565 42.3962 111.456 48.423 111.456Z" fill="#F8A46D"/>
<path d="M42.4901 100.53C42.4901 103.809 45.1482 106.47 48.423 106.47C51.6979 106.47 54.356 103.809 54.356 100.53C54.356 97.2515 51.6979 94.5903 48.423 94.5903C45.1482 94.5903 42.4901 97.2515 42.4901 100.53Z" fill="#DE8A52"/>
<path d="M92.8469 0.011229C50.711 0.011229 27.3831 40.8052 24.6017 53.3477C21.8203 65.9014 60.4683 77.7477 60.4683 77.7477L115.143 75.6591C130.115 72.8744 147.881 52.9996 147.881 49.8555C147.881 46.7115 134.994 0 92.8581 0L92.8469 0.011229Z" fill="#1D2362"/>
<path d="M128.534 72.0769C128.534 50.2167 110.834 32.4956 89 32.4956C67.166 32.4956 49.466 50.2167 49.466 72.0769V120.259C49.466 142.119 67.166 159.841 89 159.841C110.834 159.841 128.534 142.119 128.534 120.259V72.0769Z" fill="#F8A46D"/>
<path d="M120.437 48.0811C113.214 38.6153 101.819 32.4956 89 32.4956C76.1809 32.4956 64.7862 38.604 57.5635 48.0811C56.5541 49.3948 55.6345 50.776 54.7933 52.2245C51.4063 58.0634 49.466 64.8456 49.466 72.0769V95.1519C55.1858 86.4047 58.7187 74.3563 58.7187 61.0615C58.7187 59.4333 58.6626 57.8276 58.5617 56.2331C69.8218 66.6871 89.3926 73.604 111.644 73.604C114.582 73.604 117.476 73.4805 120.302 73.2446C121.738 81.655 124.631 89.167 128.534 95.1519V72.0769C128.534 63.049 125.517 54.7397 120.437 48.0811Z" fill="#683F09"/>
<path d="M105.789 76.1639C88.3832 76.1639 73.2089 67.5852 65.246 54.8855C61.0515 58.2317 56.2513 60.7693 51.0586 62.2628C59.0551 74.8389 74.1622 83.3166 91.4674 83.3166C102.638 83.3166 112.889 79.7796 120.908 73.907C116.164 75.3667 111.083 76.1639 105.789 76.1639Z" fill="#683F09"/>
<path d="M92.746 1.24634C67.9938 1.24634 49.9932 15.7651 39.1031 29.8122C42.1425 44.825 61.9599 56.4131 85.9607 56.4131C112.07 56.4131 133.233 42.7028 133.233 25.7811C133.233 24.4112 133.076 23.0525 132.807 21.7275C124.541 11.0153 111.734 1.23511 92.746 1.23511V1.24634Z" fill="#35477C"/>
<path d="M51.1707 57.345L52.5278 60.3655C83.8073 71.4595 105.565 64.7672 123.588 57.6706L123.924 53.6732C123.924 53.6732 82.7867 37.4365 51.1707 57.345Z" fill="#020000"/>
<path d="M49.4885 71.9309L44.2061 60.9268C44.2061 60.9268 48.4791 35.9204 88.215 35.9204C127.951 35.9204 131.215 57.9287 131.215 57.9287L128.444 69.1799C127.435 40.5354 48.4791 43.2864 49.4885 71.9309Z" fill="#051028"/>
<path d="M53.784 46.1161C53.784 46.1722 53.7616 46.2396 53.7616 46.2957C53.7616 49.743 56.5766 52.8982 61.2646 55.3798C75.8894 47.6657 100.72 46.846 115.749 53.5944C118.676 51.4497 120.392 48.9682 120.392 46.2957C120.392 45.1729 120.055 44.0725 119.495 43.0282C113.102 39.0981 103.288 35.9204 88.2038 35.9204C70.7976 35.9204 60.1879 40.7263 53.7728 46.1161H53.784Z" fill="#122349"/>
<path d="M61.2085 63.0268C83.4484 68.9443 100.597 65.7441 115.132 60.7923C110.399 56.2896 100.529 53.1792 89.101 53.1792C75.8557 53.1792 64.7076 57.3451 61.2197 63.0268H61.2085Z" fill="#210805"/>
<path d="M91.4337 26.2417C91.5123 24.4788 90.1328 23.0415 88.3495 23.0415C86.5663 23.0415 85.041 24.4676 84.9625 26.2417C84.884 28.0158 86.2635 29.4419 88.0467 29.4419C89.83 29.4419 91.3552 28.0158 91.4337 26.2417Z" fill="#E29D4B"/>
<path d="M86.7683 27.6897C80.9699 28.4421 81.0036 26.5893 81.0036 26.5893C81.0036 26.5893 77.7175 26.4097 77.639 25.7135C77.639 25.7135 74.1062 25.8258 74.151 24.8376C74.1959 23.8495 87.2842 23.2656 87.4524 23.2656C87.6206 23.2656 86.7683 27.6785 86.7683 27.6785V27.6897Z" fill="#E29D4B"/>
<path d="M89.5832 27.6897C95.1348 28.4421 95.2806 26.5893 95.2806 26.5893C95.2806 26.5893 98.477 26.4097 98.6228 25.7135C98.6228 25.7135 102.032 25.8258 102.077 24.8376C102.122 23.8495 89.5047 23.2656 89.3365 23.2656C89.1683 23.2656 89.5832 27.6785 89.5832 27.6785V27.6897Z" fill="#E29D4B"/>
<path d="M88.215 46.0939C89.4662 46.0939 90.4805 44.6008 90.4805 42.759C90.4805 40.9172 89.4662 39.4241 88.215 39.4241C86.9638 39.4241 85.9495 40.9172 85.9495 42.759C85.9495 44.6008 86.9638 46.0939 88.215 46.0939Z" fill="#E29D4B"/>
<path d="M72.8276 95.7021C70.5284 95.7021 68.5882 97.7345 67.9041 100.53C68.1732 100.429 68.4536 100.362 68.7564 100.362C70.0462 100.362 71.0892 101.406 71.0892 102.698C71.0892 103.989 70.0462 105.033 68.7564 105.033C68.4536 105.033 68.162 104.977 67.9041 104.865C68.577 107.672 70.5284 109.693 72.8276 109.693C75.6875 109.693 78.009 106.56 78.009 102.686C78.009 98.8125 75.6875 95.6797 72.8276 95.6797V95.7021Z" fill="#402E24"/>
<path d="M104.903 95.7021C102.604 95.7021 100.664 97.7345 99.9799 100.53C100.249 100.429 100.529 100.362 100.832 100.362C102.122 100.362 103.165 101.406 103.165 102.698C103.165 103.989 102.122 105.033 100.832 105.033C100.529 105.033 100.238 104.977 99.9799 104.865C100.653 107.672 102.604 109.693 104.903 109.693C107.763 109.693 110.085 106.56 110.085 102.686C110.085 98.8125 107.763 95.6797 104.903 95.6797V95.7021Z" fill="#402E24"/>
<path d="M89 131.477C83.1569 131.477 77.4258 130.96 71.863 129.972C74.2295 137.181 81.0035 142.38 89 142.38C96.9966 142.38 103.759 137.181 106.137 129.972C100.574 130.96 94.8544 131.477 89 131.477Z" fill="white"/>
<path d="M113.977 92.1766C113.55 92.1766 113.147 91.9071 113.001 91.4692C111.61 87.2247 106.182 85.1699 100.888 86.8991C100.35 87.0788 99.7668 86.7868 99.5985 86.2478C99.4191 85.7089 99.7107 85.1362 100.249 84.9565C106.608 82.868 113.203 85.5068 114.952 90.8292C115.132 91.3681 114.84 91.9408 114.302 92.1205C114.201 92.1542 114.089 92.1766 113.988 92.1766H113.977Z" fill="#683F09"/>
<path d="M64.0124 92.1766C63.9114 92.1766 63.7993 92.1654 63.6983 92.1205C63.16 91.9408 62.8684 91.3681 63.0478 90.8292C64.7862 85.5068 71.3808 82.868 77.7511 84.9565C78.2895 85.1362 78.5811 85.7089 78.4016 86.2478C78.2222 86.7868 77.6502 87.0788 77.1119 86.8991C71.8182 85.1699 66.39 87.2135 64.9993 91.4692C64.8535 91.9071 64.461 92.1766 64.0236 92.1766H64.0124Z" fill="#683F09"/>
<path d="M45.8996 111.534C46.8349 111.534 47.5931 110.775 47.5931 109.839C47.5931 108.902 46.8349 108.143 45.8996 108.143C44.9643 108.143 44.2061 108.902 44.2061 109.839C44.2061 110.775 44.9643 111.534 45.8996 111.534Z" fill="#FFED00"/>
<path d="M132.089 111.535C133.025 111.535 133.783 110.776 133.783 109.839C133.783 108.903 133.025 108.144 132.089 108.144C131.154 108.144 130.396 108.903 130.396 109.839C130.396 110.776 131.154 111.535 132.089 111.535Z" fill="#FFED00"/>
<path d="M30.871 170.923L0.387766 282.256C-1.19359 288.039 2.20465 294.013 7.98054 295.607C8.94505 295.865 9.90957 296 10.8517 296C15.6182 296 19.9921 292.834 21.3043 288.005L51.7876 176.672L30.8598 170.923H30.871Z" fill="#FAFAFA"/>
<path d="M147.129 170.923L177.612 282.256C179.194 288.039 175.795 294.013 170.02 295.607C169.055 295.865 168.09 296 167.148 296C162.382 296 158.008 292.834 156.696 288.005L126.212 176.672L147.14 170.923H147.129Z" fill="#D0D0D0"/>
<path d="M147.129 170.923L177.612 282.256C179.194 288.039 175.795 294.013 170.02 295.607C169.055 295.865 168.09 296 167.148 296C162.382 296 158.008 292.834 156.696 288.005L137.035 173.708L147.129 170.935V170.923Z" fill="#FAFAFA"/>
<path d="M30.871 170.923L0.387766 282.256C-1.19359 288.039 2.20465 294.013 7.98054 295.607C8.94505 295.865 9.90957 296 10.8517 296C15.6182 296 19.9921 292.834 21.3043 288.005L51.7876 176.672L30.8598 170.923H30.871Z" fill="#D0D0D0"/>
<path d="M30.871 170.923L0.387766 282.256C-1.19359 288.039 2.20465 294.013 7.98054 295.607C8.94505 295.865 9.90957 296 10.8517 296C15.6182 296 19.9921 292.834 21.3043 288.005L40.9648 173.708L30.871 170.935V170.923Z" fill="#FAFAFA"/>
<path d="M135.398 295.989H42.591L30.9832 170.923H74.6332L89.2019 173.495L104.982 170.923H147.006L135.398 295.989Z" fill="#FAFAFA"/>
<path d="M92.2525 183.679L89.415 171.406H89L86.1625 183.679L82.1923 280.437L89.2019 295.506L96.2227 280.437L92.2525 183.679Z" fill="#1D2362"/>
<path d="M95.3815 181.737L89.415 185.431L83.2465 182.107L83.0334 175.09L89 171.406L95.1684 174.73L95.3815 181.737Z" fill="#1D2362"/>
<g style="mix-blend-mode:multiply">
<path d="M79.5343 188.384L69.6985 173.562V164.186L89 171.406L79.5343 188.384Z" fill="#D0D0D0"/>
</g>
<g style="mix-blend-mode:multiply">
<path d="M98.4545 188.384L108.302 173.562V164.186L89.415 171.406L98.4545 188.384Z" fill="#D0D0D0"/>
</g>
<path d="M117.24 241.62C108.526 241.62 101.427 234.512 101.427 225.787V204.688H133.054V225.787C133.054 234.523 125.954 241.62 117.24 241.62ZM102.548 205.811V225.787C102.548 233.894 109.143 240.497 117.24 240.497C125.338 240.497 131.932 233.894 131.932 225.787V205.811H102.548Z" fill="#D0D0D0"/>
<path d="M132.493 211.853H101.987V213.739H132.493V211.853Z" fill="#D0D0D0"/>
<path d="M110.758 170.901H144.852C144.852 176.223 140.546 180.535 135.23 180.535H110.758V170.901Z" fill="#35477C"/>
<path d="M137.955 170.901H136.104V180.535H137.955V170.901Z" fill="#EAAE00"/>
<path d="M134.859 170.901H133.009V180.535H134.859V170.901Z" fill="#EAAE00"/>
<path d="M67.231 180.546H42.7592C37.4432 180.546 33.1365 176.234 33.1365 170.912H67.231V180.546Z" fill="#35477C"/>
<path d="M40.0339 180.546H41.8844V170.912H40.0339V180.546Z" fill="#EAAE00"/>
<path d="M43.1294 180.546H44.9799V170.912H43.1294V180.546Z" fill="#EAAE00"/>
<path d="M79.5343 182.803L69.6985 171.406V164.186L89 171.406L79.5343 182.803Z" fill="#FAFAFA"/>
<path d="M98.4546 182.803L108.302 171.406V164.186L89.0001 171.406L98.4546 182.803Z" fill="#FAFAFA"/>
</svg>
