<svg width="178" height="296" viewBox="0 0 178 296" fill="none" xmlns="http://www.w3.org/2000/svg">
<path d="M68.6105 97.2519C68.2516 96.1178 67.7806 95.0399 67.1974 94.0181C68.846 91.7274 69.8218 88.909 69.8218 85.866C69.8218 78.1632 63.586 71.92 55.8923 71.92C54.939 71.92 53.9969 72.0211 53.0997 72.2007C52.3259 68.7984 49.2977 66.2495 45.664 66.2495C42.2433 66.2495 39.3497 68.5065 38.374 71.6056C37.0057 70.3031 35.1552 69.4946 33.114 69.4946C28.8971 69.4946 25.4764 72.9194 25.4764 77.1413C25.4764 79.971 27.0129 82.4413 29.3008 83.755C27.2484 85.9783 25.9923 88.9539 25.9923 92.2215C25.9923 93.4566 26.1717 94.6469 26.5082 95.781C23.9062 96.9937 22.0894 99.6324 22.0894 102.709C22.0894 105.325 23.4015 107.627 25.3979 108.997C23.9735 111.052 23.1324 113.556 23.1324 116.251C23.1324 121.483 26.2839 125.975 30.8037 127.94C29.884 129.198 29.3457 130.747 29.3457 132.42C29.3457 136.642 32.7663 140.067 36.9833 140.067C38.0039 140.067 38.9796 139.865 39.8656 139.494C40.1685 143.436 43.4545 146.535 47.4696 146.535C47.9407 146.535 48.4005 146.49 48.8491 146.4C49.5108 148.23 51.2492 149.544 53.3128 149.544C54.0082 149.544 54.6699 149.387 55.2643 149.117C56.5092 149.982 58.012 150.498 59.6382 150.498C61.6458 150.498 63.4739 149.712 64.8309 148.444C65.3356 148.477 65.8515 148.488 66.3562 148.488C80.5212 148.488 92.0057 136.99 92.0057 122.808C92.0057 109.39 81.7324 98.386 68.6217 97.2295L68.6105 97.2519ZM40.3815 79.432C40.6171 79.6566 40.875 79.8699 41.1442 80.072C40.8414 80.0047 40.5273 79.9485 40.2021 79.8924C40.2582 79.7352 40.3255 79.5892 40.3703 79.432H40.3815Z" fill="black"/>
<path d="M86.0054 122.831C86.0054 137.013 97.4899 148.511 111.655 148.511C112.171 148.511 112.675 148.488 113.18 148.466C114.548 149.735 116.365 150.521 118.373 150.521C119.999 150.521 121.513 150.004 122.747 149.14C123.341 149.409 124.003 149.566 124.698 149.566C126.751 149.566 128.5 148.253 129.162 146.422C129.611 146.501 130.07 146.557 130.541 146.557C134.557 146.557 137.843 143.458 138.145 139.517C139.031 139.876 140.007 140.089 141.028 140.089C145.245 140.089 148.665 136.665 148.665 132.443C148.665 130.77 148.116 129.22 147.207 127.962C151.716 126.009 154.879 121.517 154.879 116.273C154.879 113.578 154.038 111.074 152.613 109.02C154.61 107.638 155.922 105.337 155.922 102.732C155.922 99.6661 154.116 97.0274 151.503 95.8034C151.839 94.6806 152.019 93.4903 152.019 92.2439C152.019 88.9764 150.763 86.0008 148.71 83.7775C150.998 82.4525 152.535 79.9934 152.535 77.1638C152.535 72.9418 149.114 69.5171 144.897 69.5171C142.856 69.5171 141.005 70.3255 139.637 71.6281C138.673 68.5177 135.768 66.272 132.347 66.272C128.713 66.272 125.674 68.8209 124.911 72.2232C124.003 72.0435 123.072 71.9425 122.119 71.9425C114.425 71.9425 108.189 78.1856 108.189 85.8885C108.189 88.9315 109.165 91.7386 110.814 94.0405C110.23 95.0511 109.748 96.1291 109.401 97.2744C96.3011 98.431 86.0166 109.435 86.0166 122.853L86.0054 122.831ZM137.775 79.8924C137.461 79.9373 137.147 79.9934 136.833 80.072C137.102 79.8699 137.36 79.6678 137.596 79.432C137.641 79.5892 137.708 79.7464 137.764 79.8924H137.775Z" fill="black"/>
<path d="M108.302 164.186H69.6985V170.901H108.302V164.186Z" fill="#848484"/>
<path d="M101.976 152.52H76.0015V175.696H101.976V152.52Z" fill="#4F230E"/>
<path d="M129.566 111.456C135.593 111.456 140.478 106.565 140.478 100.531C140.478 94.4965 135.593 89.605 129.566 89.605C123.539 89.605 118.653 94.4965 118.653 100.531C118.653 106.565 123.539 111.456 129.566 111.456Z" fill="#6D381B"/>
<path d="M123.633 100.53C123.633 103.809 126.291 106.47 129.566 106.47C132.841 106.47 135.499 103.809 135.499 100.53C135.499 97.2515 132.841 94.5903 129.566 94.5903C126.291 94.5903 123.633 97.2515 123.633 100.53Z" fill="#4F230E"/>
<path d="M48.4229 111.456C54.4497 111.456 59.3354 106.565 59.3354 100.531C59.3354 94.4965 54.4497 89.605 48.4229 89.605C42.3961 89.605 37.5104 94.4965 37.5104 100.531C37.5104 106.565 42.3961 111.456 48.4229 111.456Z" fill="#6D381B"/>
<path d="M42.4901 100.53C42.4901 103.809 45.1481 106.47 48.423 106.47C51.6979 106.47 54.3559 103.809 54.3559 100.53C54.3559 97.2515 51.6979 94.5903 48.423 94.5903C45.1481 94.5903 42.4901 97.2515 42.4901 100.53Z" fill="#4F230E"/>
<path d="M128.534 72.077C128.534 50.2169 110.834 32.4958 89.0001 32.4958C67.166 32.4958 49.4661 50.2169 49.4661 72.077V120.259C49.4661 142.119 67.166 159.84 89.0001 159.84C110.834 159.84 128.534 142.119 128.534 120.259V72.077Z" fill="#6D381B"/>
<path d="M89.0001 32.4958C67.1638 32.4958 49.4661 50.2147 49.4661 72.077V113.511L61.1636 67.3497C69.9228 68.4164 79.2764 69.0003 89.0001 69.0003C98.7237 69.0003 108.077 68.4164 116.836 67.3497L128.534 113.511V72.077C128.534 50.2147 110.836 32.4958 89.0001 32.4958Z" fill="black"/>
<path d="M92.8469 0.011229C50.7109 0.011229 27.3831 40.8051 24.6017 53.3475C21.8203 65.9012 60.4683 77.7475 60.4683 77.7475L115.143 75.6589C130.115 72.8742 147.88 52.9994 147.88 49.8554C147.88 46.7114 134.994 0 92.8581 0L92.8469 0.011229Z" fill="#1D2362"/>
<path d="M92.7458 1.24658C67.9936 1.24658 49.993 15.7653 39.1029 29.8124C42.1423 44.8251 61.9598 56.4132 85.9605 56.4132C112.07 56.4132 133.233 42.7029 133.233 25.7813C133.233 24.4114 133.076 23.0527 132.807 21.7277C124.541 11.0155 111.733 1.23535 92.7458 1.23535V1.24658Z" fill="#35477C"/>
<path d="M51.1707 57.3452L52.5277 60.3657C83.8072 71.4597 105.565 64.7674 123.588 57.6709L123.924 53.6734C123.924 53.6734 82.7866 37.4367 51.1707 57.3452Z" fill="#020000"/>
<path d="M49.4883 71.9311L44.2059 60.927C44.2059 60.927 48.4789 35.9207 88.2148 35.9207C127.951 35.9207 131.214 57.9289 131.214 57.9289L128.444 69.18C127.435 40.5356 48.4789 43.2867 49.4883 71.9311Z" fill="#051028"/>
<path d="M53.7838 46.1163C53.7838 46.1725 53.7614 46.2398 53.7614 46.296C53.7614 49.7432 56.5764 52.8984 61.2644 55.38C75.8892 47.6659 100.72 46.8462 115.748 53.5946C118.676 51.4499 120.392 48.9684 120.392 46.296C120.392 45.1731 120.055 44.0727 119.494 43.0284C113.102 39.0984 103.288 35.9207 88.2036 35.9207C70.7974 35.9207 60.1877 40.7265 53.7726 46.1163H53.7838Z" fill="#122349"/>
<path d="M61.2083 63.027C83.4483 68.9445 100.597 65.7443 115.132 60.7925C110.399 56.2898 100.529 53.1794 89.1008 53.1794C75.8555 53.1794 64.7075 57.3453 61.2196 63.027H61.2083Z" fill="#210805"/>
<path d="M91.4337 26.2419C91.5122 24.479 90.1327 23.0417 88.3494 23.0417C86.5662 23.0417 85.0409 24.4678 84.9624 26.2419C84.8839 28.0161 86.2634 29.4421 88.0466 29.4421C89.8299 29.4421 91.3551 28.0161 91.4337 26.2419Z" fill="#E29D4B"/>
<path d="M86.7681 27.69C80.9698 28.4423 81.0034 26.5896 81.0034 26.5896C81.0034 26.5896 77.7173 26.4099 77.6388 25.7137C77.6388 25.7137 74.106 25.826 74.1508 24.8379C74.1957 23.8498 87.284 23.2659 87.4522 23.2659C87.6204 23.2659 86.7681 27.6787 86.7681 27.6787V27.69Z" fill="#E29D4B"/>
<path d="M89.5831 27.69C95.1347 28.4423 95.2805 26.5896 95.2805 26.5896C95.2805 26.5896 98.4769 26.4099 98.6227 25.7137C98.6227 25.7137 102.032 25.826 102.077 24.8379C102.122 23.8498 89.5046 23.2659 89.3364 23.2659C89.1682 23.2659 89.5831 27.6787 89.5831 27.6787V27.69Z" fill="#E29D4B"/>
<path d="M88.2149 46.0942C89.4661 46.0942 90.4804 44.6011 90.4804 42.7592C90.4804 40.9174 89.4661 39.4243 88.2149 39.4243C86.9637 39.4243 85.9494 40.9174 85.9494 42.7592C85.9494 44.6011 86.9637 46.0942 88.2149 46.0942Z" fill="#E29D4B"/>
<path d="M72.8274 95.7021C70.5282 95.7021 68.588 97.7345 67.9038 100.53C68.173 100.429 68.4534 100.362 68.7562 100.362C70.046 100.362 71.089 101.406 71.089 102.698C71.089 103.989 70.046 105.033 68.7562 105.033C68.4534 105.033 68.1618 104.977 67.9038 104.865C68.5768 107.672 70.5282 109.693 72.8274 109.693C75.6873 109.693 78.0088 106.56 78.0088 102.686C78.0088 98.8125 75.6873 95.6797 72.8274 95.6797V95.7021Z" fill="black"/>
<path d="M104.903 95.7021C102.604 95.7021 100.664 97.7345 99.9797 100.53C100.249 100.429 100.529 100.362 100.832 100.362C102.122 100.362 103.165 101.406 103.165 102.698C103.165 103.989 102.122 105.033 100.832 105.033C100.529 105.033 100.238 104.977 99.9797 104.865C100.653 107.672 102.604 109.693 104.903 109.693C107.763 109.693 110.085 106.56 110.085 102.686C110.085 98.8125 107.763 95.6797 104.903 95.6797V95.7021Z" fill="black"/>
<path d="M88.9999 131.477C83.1567 131.477 77.4257 130.96 71.8629 129.972C74.2293 137.181 81.0033 142.38 88.9999 142.38C96.9964 142.38 103.759 137.181 106.137 129.972C100.574 130.96 94.8543 131.477 88.9999 131.477Z" fill="white"/>
<path d="M113.976 92.1761C113.55 92.1761 113.147 91.9067 113.001 91.4687C112.339 89.4476 110.746 87.8531 108.503 86.9773C106.193 86.079 103.49 86.0453 100.888 86.8986C100.35 87.0783 99.7667 86.7751 99.5984 86.2474C99.419 85.7084 99.7106 85.1357 100.249 84.9561C103.299 83.9567 106.496 84.0016 109.244 85.0684C112.07 86.1688 114.089 88.2124 114.952 90.8287C115.132 91.3677 114.84 91.9403 114.302 92.12C114.201 92.1537 114.089 92.1761 113.988 92.1761H113.976Z" fill="black"/>
<path d="M64.0122 92.1761C63.9113 92.1761 63.7991 92.1649 63.6982 92.12C63.1598 91.9403 62.8682 91.3677 63.0477 90.8287C63.9001 88.2124 65.93 86.1688 68.7563 85.0684C71.504 84.0016 74.7004 83.9567 77.751 84.9561C78.2893 85.1357 78.5809 85.7084 78.4015 86.2474C78.222 86.7864 77.65 87.0783 77.1117 86.8986C74.5097 86.0453 71.8069 86.079 69.4965 86.9773C67.2534 87.8531 65.6609 89.4476 64.9992 91.4687C64.8534 91.9067 64.4608 92.1761 64.0234 92.1761H64.0122Z" fill="black"/>
<path d="M45.8996 111.535C46.8349 111.535 47.5931 110.775 47.5931 109.839C47.5931 108.903 46.8349 108.144 45.8996 108.144C44.9643 108.144 44.2061 108.903 44.2061 109.839C44.2061 110.775 44.9643 111.535 45.8996 111.535Z" fill="#FFED00"/>
<path d="M132.089 111.535C133.024 111.535 133.783 110.775 133.783 109.839C133.783 108.903 133.024 108.144 132.089 108.144C131.154 108.144 130.396 108.903 130.396 109.839C130.396 110.775 131.154 111.535 132.089 111.535Z" fill="#FFED00"/>
<path d="M30.871 170.923L0.387766 282.256C-1.19359 288.039 2.20465 294.012 7.98054 295.607C8.94505 295.865 9.90957 296 10.8517 296C15.6182 296 19.9921 292.833 21.3043 288.005L51.7876 176.672L30.8598 170.923H30.871Z" fill="#FAFAFA"/>
<path d="M147.129 170.923L177.612 282.256C179.194 288.039 175.795 294.012 170.02 295.607C169.055 295.865 168.091 296 167.148 296C162.382 296 158.008 292.833 156.696 288.005L126.213 176.672L147.14 170.923H147.129Z" fill="#D0D0D0"/>
<path d="M147.129 170.923L177.612 282.256C179.194 288.039 175.795 294.012 170.02 295.607C169.055 295.865 168.091 296 167.148 296C162.382 296 158.008 292.833 156.696 288.005L137.035 173.708L147.129 170.935V170.923Z" fill="#FAFAFA"/>
<path d="M30.871 170.923L0.387766 282.256C-1.19359 288.039 2.20465 294.012 7.98054 295.607C8.94505 295.865 9.90957 296 10.8517 296C15.6182 296 19.9921 292.833 21.3043 288.005L51.7876 176.672L30.8598 170.923H30.871Z" fill="#D0D0D0"/>
<path d="M30.871 170.923L0.387766 282.256C-1.19359 288.039 2.20465 294.012 7.98054 295.607C8.94505 295.865 9.90957 296 10.8517 296C15.6182 296 19.9921 292.833 21.3043 288.005L40.9648 173.708L30.871 170.935V170.923Z" fill="#FAFAFA"/>
<path d="M135.398 295.989H42.5911L30.9832 170.923H74.6332L89.2019 173.495L104.982 170.923H147.006L135.398 295.989Z" fill="#FAFAFA"/>
<path d="M92.2525 183.679L89.415 171.406H89.0001L86.1626 183.679L82.1924 280.437L89.2019 295.506L96.2227 280.437L92.2525 183.679Z" fill="#1D2362"/>
<path d="M95.3816 181.736L89.4151 185.431L83.2467 182.107L83.0336 175.089L89.0001 171.406L95.1685 174.73L95.3816 181.736Z" fill="#1D2362"/>
<g style="mix-blend-mode:multiply">
<path d="M79.5343 188.384L69.6985 173.562V164.186L89.0001 171.406L79.5343 188.384Z" fill="#D0D0D0"/>
</g>
<g style="mix-blend-mode:multiply">
<path d="M98.4545 188.384L108.302 173.562V164.186L89.415 171.406L98.4545 188.384Z" fill="#D0D0D0"/>
</g>
<path d="M117.24 241.619C108.526 241.619 101.427 234.511 101.427 225.787V204.688H133.054V225.787C133.054 234.523 125.954 241.619 117.24 241.619ZM102.548 205.811V225.787C102.548 233.894 109.143 240.496 117.24 240.496C125.338 240.496 131.932 233.894 131.932 225.787V205.811H102.548Z" fill="#D0D0D0"/>
<path d="M132.493 211.841H101.987V213.727H132.493V211.841Z" fill="#D0D0D0"/>
<path d="M110.758 170.901H144.852C144.852 176.223 140.546 180.535 135.23 180.535H110.758V170.901Z" fill="#35477C"/>
<path d="M137.955 170.901H136.104V180.535H137.955V170.901Z" fill="#EAAE00"/>
<path d="M134.859 170.901H133.009V180.535H134.859V170.901Z" fill="#EAAE00"/>
<path d="M67.2311 180.535H42.7593C37.4432 180.535 33.1365 176.223 33.1365 170.901H67.2311V180.535Z" fill="#35477C"/>
<path d="M40.0339 180.535H41.8844V170.901H40.0339V180.535Z" fill="#EAAE00"/>
<path d="M43.1294 180.535H44.9799V170.901H43.1294V180.535Z" fill="#EAAE00"/>
<path d="M79.5343 182.803L69.6985 171.406V164.186L89.0001 171.406L79.5343 182.803Z" fill="#FAFAFA"/>
<path d="M98.4544 182.803L108.301 171.406V164.186L88.9999 171.406L98.4544 182.803Z" fill="#FAFAFA"/>
</svg>
