<svg width="178" height="296" viewBox="0 0 178 296" fill="none" xmlns="http://www.w3.org/2000/svg">
<path d="M108.301 164.186H69.6984V170.901H108.301V164.186Z" fill="#848484"/>
<path d="M101.976 152.52H76.0015V175.696H101.976V152.52Z" fill="#DE8A52"/>
<path d="M129.566 111.456C135.593 111.456 140.478 106.565 140.478 100.531C140.478 94.4968 135.593 89.6052 129.566 89.6052C123.539 89.6052 118.653 94.4968 118.653 100.531C118.653 106.565 123.539 111.456 129.566 111.456Z" fill="#F8A46D"/>
<path d="M123.633 100.531C123.633 103.81 126.291 106.471 129.566 106.471C132.841 106.471 135.499 103.81 135.499 100.531C135.499 97.2523 132.841 94.5911 129.566 94.5911C126.291 94.5911 123.633 97.2523 123.633 100.531Z" fill="#DE8A52"/>
<path d="M48.423 111.456C54.4498 111.456 59.3355 106.565 59.3355 100.531C59.3355 94.4968 54.4498 89.6052 48.423 89.6052C42.3962 89.6052 37.5105 94.4968 37.5105 100.531C37.5105 106.565 42.3962 111.456 48.423 111.456Z" fill="#F8A46D"/>
<path d="M42.4901 100.531C42.4901 103.81 45.1481 106.471 48.423 106.471C51.6979 106.471 54.3559 103.81 54.3559 100.531C54.3559 97.2523 51.6979 94.5911 48.423 94.5911C45.1481 94.5911 42.4901 97.2523 42.4901 100.531Z" fill="#DE8A52"/>
<path d="M92.8469 0.011229C50.7109 0.011229 27.3831 40.8052 24.6017 53.3476C21.8203 65.9013 60.4682 77.7477 60.4682 77.7477L115.143 75.6591C130.115 72.8744 147.88 52.9995 147.88 49.8555C147.88 46.7115 134.994 0 92.8581 0L92.8469 0.011229Z" fill="#1D2362"/>
<path d="M128.534 72.0773C128.534 50.2172 110.834 32.4961 88.9999 32.4961C67.1659 32.4961 49.4659 50.2172 49.4659 72.0773V120.26C49.4659 142.12 67.1659 159.841 88.9999 159.841C110.834 159.841 128.534 142.12 128.534 120.26V72.0773Z" fill="#F8A46D"/>
<path d="M120.436 48.0816C113.214 38.6157 101.819 32.4961 88.9999 32.4961C76.1808 32.4961 64.7861 38.6045 57.5634 48.0816C56.554 49.3953 55.6344 50.7764 54.7932 52.225C51.4062 58.0639 49.4659 64.846 49.4659 72.0773V95.1523C55.1858 86.4052 58.7186 74.3568 58.7186 61.062C58.7186 59.4338 58.6625 57.8281 58.5616 56.2336C69.8217 66.6875 89.3925 73.6044 111.644 73.6044C114.582 73.6044 117.476 73.4809 120.302 73.2451C121.737 81.6554 124.631 89.1674 128.534 95.1523V72.0773C128.534 63.0494 125.517 54.7402 120.436 48.0816Z" fill="#683F09"/>
<path d="M72.8275 95.7024C70.5283 95.7024 68.5881 97.7348 67.9039 100.531C68.1731 100.43 68.4535 100.362 68.7563 100.362C70.046 100.362 71.0891 101.407 71.0891 102.698C71.0891 103.989 70.046 105.033 68.7563 105.033C68.4535 105.033 68.1619 104.977 67.9039 104.865C68.5768 107.672 70.5283 109.693 72.8275 109.693C75.6874 109.693 78.0089 106.561 78.0089 102.687C78.0089 98.8127 75.6874 95.6799 72.8275 95.6799V95.7024Z" fill="#402E24"/>
<path d="M104.903 95.7024C102.604 95.7024 100.664 97.7348 99.9797 100.531C100.249 100.43 100.529 100.362 100.832 100.362C102.122 100.362 103.165 101.407 103.165 102.698C103.165 103.989 102.122 105.033 100.832 105.033C100.529 105.033 100.238 104.977 99.9797 104.865C100.653 107.672 102.604 109.693 104.903 109.693C107.763 109.693 110.085 106.561 110.085 102.687C110.085 98.8127 107.763 95.6799 104.903 95.6799V95.7024Z" fill="#402E24"/>
<path d="M63.8217 92.0643C62.6665 92.0643 61.6347 91.2446 61.4104 90.0656C61.1524 88.7293 62.0272 87.438 63.3619 87.1798L76.8875 84.5523C78.2222 84.294 79.5119 85.1698 79.7699 86.4948C80.0278 87.831 79.153 89.1223 77.8184 89.3806L64.2927 92.0081C64.1357 92.0418 63.9787 92.053 63.8217 92.053V92.0643Z" fill="#402E24"/>
<path d="M114.178 92.0643C115.334 92.0643 116.365 91.2446 116.59 90.0656C116.848 88.7293 115.973 87.438 114.638 87.1798L101.113 84.5523C99.7779 84.294 98.4881 85.1698 98.2302 86.4948C97.9722 87.831 98.847 89.1223 100.182 89.3806L113.707 92.0081C113.864 92.0418 114.021 92.053 114.178 92.053V92.0643Z" fill="#402E24"/>
<path d="M89 131.477C83.1568 131.477 77.4258 130.961 71.863 129.972C74.2294 137.181 81.0035 142.38 89 142.38C96.9965 142.38 103.759 137.181 106.137 129.972C100.574 130.961 94.8544 131.477 89 131.477Z" fill="white"/>
<path d="M92.7459 1.24658C67.9937 1.24658 49.9932 15.7653 39.1031 29.8124C42.1424 44.8252 61.9599 56.4133 85.9607 56.4133C112.07 56.4133 133.233 42.703 133.233 25.7813C133.233 24.4114 133.076 23.0528 132.807 21.7278C124.541 11.0156 111.733 1.23535 92.7459 1.23535V1.24658Z" fill="#35477C"/>
<path d="M51.1708 57.345L52.5278 60.3655C83.8073 71.4595 105.565 64.7672 123.588 57.6706L123.925 53.6732C123.925 53.6732 82.7867 37.4365 51.1708 57.345Z" fill="#020000"/>
<path d="M49.4884 71.9314L44.206 60.9273C44.206 60.9273 48.479 35.9209 88.2149 35.9209C127.951 35.9209 131.214 57.9292 131.214 57.9292L128.444 69.1804C127.435 40.5359 48.479 43.2869 49.4884 71.9314Z" fill="#051028"/>
<path d="M53.7839 46.1166C53.7839 46.1727 53.7615 46.2401 53.7615 46.2962C53.7615 49.7435 56.5765 52.8987 61.2645 55.3803C75.8893 47.6661 100.72 46.8464 115.749 53.5949C118.676 51.4502 120.392 48.9687 120.392 46.2962C120.392 45.1734 120.055 44.073 119.494 43.0287C113.102 39.0986 103.288 35.9209 88.2037 35.9209C70.7975 35.9209 60.1878 40.7268 53.7727 46.1166H53.7839Z" fill="#122349"/>
<path d="M61.2085 63.0268C83.4485 68.9443 100.597 65.7441 115.132 60.7923C110.399 56.2895 100.529 53.1792 89.101 53.1792C75.8557 53.1792 64.7077 57.3451 61.2197 63.0268H61.2085Z" fill="#210805"/>
<path d="M91.4337 26.2414C91.5122 24.4785 90.1327 23.0413 88.3494 23.0413C86.5662 23.0413 85.0409 24.4673 84.9624 26.2414C84.8839 28.0156 86.2634 29.4416 88.0466 29.4416C89.8299 29.4416 91.3551 28.0156 91.4337 26.2414Z" fill="#E29D4B"/>
<path d="M86.7682 27.69C80.9698 28.4423 81.0035 26.5896 81.0035 26.5896C81.0035 26.5896 77.7174 26.4099 77.6389 25.7137C77.6389 25.7137 74.1061 25.826 74.1509 24.8379C74.1958 23.8498 87.2841 23.2659 87.4523 23.2659C87.6205 23.2659 86.7682 27.6788 86.7682 27.6788V27.69Z" fill="#E29D4B"/>
<path d="M89.5833 27.69C95.1348 28.4423 95.2806 26.5896 95.2806 26.5896C95.2806 26.5896 98.477 26.4099 98.6228 25.7137C98.6228 25.7137 102.032 25.826 102.077 24.8379C102.122 23.8498 89.5048 23.2659 89.3365 23.2659C89.1683 23.2659 89.5833 27.6788 89.5833 27.6788V27.69Z" fill="#E29D4B"/>
<path d="M88.215 46.0939C89.4662 46.0939 90.4805 44.6008 90.4805 42.759C90.4805 40.9172 89.4662 39.4241 88.215 39.4241C86.9638 39.4241 85.9495 40.9172 85.9495 42.759C85.9495 44.6008 86.9638 46.0939 88.215 46.0939Z" fill="#E29D4B"/>
<path d="M30.871 170.923L0.387765 282.256C-1.19359 288.039 2.20465 294.013 7.98053 295.607C8.94505 295.865 9.90957 296 10.8517 296C15.6182 296 19.9921 292.834 21.3043 288.005L51.7876 176.672L30.8598 170.923H30.871Z" fill="#FAFAFA"/>
<path d="M147.129 170.923L177.612 282.256C179.194 288.039 175.795 294.013 170.019 295.607C169.055 295.865 168.09 296 167.148 296C162.382 296 158.008 292.834 156.696 288.005L126.212 176.672L147.14 170.923H147.129Z" fill="#D0D0D0"/>
<path d="M147.129 170.923L177.612 282.256C179.194 288.039 175.795 294.013 170.019 295.607C169.055 295.865 168.09 296 167.148 296C162.382 296 158.008 292.834 156.696 288.005L137.035 173.708L147.129 170.935V170.923Z" fill="#FAFAFA"/>
<path d="M30.871 170.923L0.387765 282.256C-1.19359 288.039 2.20465 294.013 7.98053 295.607C8.94505 295.865 9.90957 296 10.8517 296C15.6182 296 19.9921 292.834 21.3043 288.005L51.7876 176.672L30.8598 170.923H30.871Z" fill="#D0D0D0"/>
<path d="M30.871 170.923L0.387765 282.256C-1.19359 288.039 2.20465 294.013 7.98053 295.607C8.94505 295.865 9.90957 296 10.8517 296C15.6182 296 19.9921 292.834 21.3043 288.005L40.9648 173.708L30.871 170.935V170.923Z" fill="#FAFAFA"/>
<path d="M135.398 295.989H42.5909L30.9831 170.923H74.6331L89.2018 173.495L104.982 170.923H147.006L135.398 295.989Z" fill="#FAFAFA"/>
<path d="M92.2523 183.679L89.4149 171.406H88.9999L86.1624 183.679L82.1922 280.437L89.2018 295.506L96.2226 280.437L92.2523 183.679Z" fill="#1D2362"/>
<path d="M95.3815 181.737L89.4149 185.431L83.2465 182.107L83.0334 175.089L88.9999 171.406L95.1684 174.73L95.3815 181.737Z" fill="#1D2362"/>
<g style="mix-blend-mode:multiply">
<path d="M79.5342 188.384L69.6984 173.562V164.186L88.9999 171.406L79.5342 188.384Z" fill="#D0D0D0"/>
</g>
<g style="mix-blend-mode:multiply">
<path d="M98.4545 188.384L108.302 173.562V164.186L89.415 171.406L98.4545 188.384Z" fill="#D0D0D0"/>
</g>
<path d="M117.24 241.619C108.526 241.619 101.427 234.511 101.427 225.787V204.688H133.054V225.787C133.054 234.523 125.954 241.619 117.24 241.619ZM102.548 205.811V225.787C102.548 233.894 109.143 240.496 117.24 240.496C125.338 240.496 131.932 233.894 131.932 225.787V205.811H102.548Z" fill="#D0D0D0"/>
<path d="M132.493 211.841H101.987V213.727H132.493V211.841Z" fill="#D0D0D0"/>
<path d="M110.758 170.901H144.852C144.852 176.223 140.546 180.535 135.229 180.535H110.758V170.901Z" fill="#35477C"/>
<path d="M137.955 170.901H136.104V180.535H137.955V170.901Z" fill="#EAAE00"/>
<path d="M134.859 170.901H133.009V180.535H134.859V170.901Z" fill="#EAAE00"/>
<path d="M67.231 180.536H42.7592C37.4431 180.536 33.1365 176.224 33.1365 170.901H67.231V180.536Z" fill="#35477C"/>
<path d="M40.0338 180.536H41.8843V170.901H40.0338V180.536Z" fill="#EAAE00"/>
<path d="M43.1293 180.536H44.9799V170.901H43.1293V180.536Z" fill="#EAAE00"/>
<path d="M79.5342 182.803L69.6984 171.406V164.186L88.9999 171.406L79.5342 182.803Z" fill="#FAFAFA"/>
<path d="M98.4546 182.803L108.302 171.406V164.186L89.0001 171.406L98.4546 182.803Z" fill="#FAFAFA"/>
</svg>
