<svg width="178" height="296" viewBox="0 0 178 296" fill="none" xmlns="http://www.w3.org/2000/svg">
<path d="M108.301 164.186H69.6984V170.901H108.301V164.186Z" fill="#848484"/>
<path d="M101.976 152.52H76.0015V175.696H101.976V152.52Z" fill="#4F230E"/>
<path d="M129.566 111.456C135.593 111.456 140.478 106.565 140.478 100.531C140.478 94.4965 135.593 89.605 129.566 89.605C123.539 89.605 118.653 94.4965 118.653 100.531C118.653 106.565 123.539 111.456 129.566 111.456Z" fill="#6D381B"/>
<path d="M123.633 100.53C123.633 103.809 126.291 106.47 129.566 106.47C132.841 106.47 135.499 103.809 135.499 100.53C135.499 97.2515 132.841 94.5903 129.566 94.5903C126.291 94.5903 123.633 97.2515 123.633 100.53Z" fill="#4F230E"/>
<path d="M48.423 111.456C54.4498 111.456 59.3355 106.565 59.3355 100.531C59.3355 94.4965 54.4498 89.605 48.423 89.605C42.3962 89.605 37.5105 94.4965 37.5105 100.531C37.5105 106.565 42.3962 111.456 48.423 111.456Z" fill="#6D381B"/>
<path d="M42.4902 100.53C42.4902 103.809 45.1482 106.47 48.4231 106.47C51.698 106.47 54.356 103.809 54.356 100.53C54.356 97.2515 51.698 94.5903 48.4231 94.5903C45.1482 94.5903 42.4902 97.2515 42.4902 100.53Z" fill="#4F230E"/>
<path d="M128.534 72.0768C128.534 50.2167 110.834 32.4956 89 32.4956C67.166 32.4956 49.466 50.2167 49.466 72.0768V120.259C49.466 142.119 67.166 159.84 89 159.84C110.834 159.84 128.534 142.119 128.534 120.259V72.0768Z" fill="#6D381B"/>
<path d="M72.8276 95.7021C70.5285 95.7021 68.5882 97.7345 67.9041 100.53C68.1733 100.429 68.4537 100.362 68.7565 100.362C70.0462 100.362 71.0893 101.406 71.0893 102.698C71.0893 103.989 70.0462 105.033 68.7565 105.033C68.4537 105.033 68.1621 104.977 67.9041 104.865C68.577 107.672 70.5285 109.693 72.8276 109.693C75.6875 109.693 78.0091 106.56 78.0091 102.686C78.0091 98.8125 75.6875 95.6797 72.8276 95.6797V95.7021Z" fill="black"/>
<path d="M104.904 95.7021C102.604 95.7021 100.664 97.7345 99.98 100.53C100.249 100.429 100.53 100.362 100.832 100.362C102.122 100.362 103.165 101.406 103.165 102.698C103.165 103.989 102.122 105.033 100.832 105.033C100.53 105.033 100.238 104.977 99.98 104.865C100.653 107.672 102.604 109.693 104.904 109.693C107.763 109.693 110.085 106.56 110.085 102.686C110.085 98.8125 107.763 95.6797 104.904 95.6797V95.7021Z" fill="black"/>
<path d="M63.8216 92.064C62.6664 92.064 61.6346 91.2443 61.4103 90.0653C61.1524 88.7291 62.0272 87.4378 63.3618 87.1795L76.8875 84.552C78.2221 84.2938 79.5119 85.1696 79.7698 86.4946C80.0278 87.8308 79.153 89.1221 77.8183 89.3804L64.2927 92.0079C64.1357 92.0416 63.9786 92.0528 63.8216 92.0528V92.064Z" fill="black"/>
<path d="M114.178 92.064C115.334 92.064 116.365 91.2443 116.59 90.0653C116.848 88.7291 115.973 87.4378 114.638 87.1795L101.113 84.552C99.778 84.2938 98.4882 85.1696 98.2303 86.4946C97.9723 87.8308 98.8471 89.1221 100.182 89.3804L113.707 92.0079C113.864 92.0416 114.021 92.0528 114.178 92.0528V92.064Z" fill="black"/>
<path d="M89 131.477C83.1569 131.477 77.4258 130.96 71.863 129.972C74.2295 137.181 81.0035 142.38 89 142.38C96.9966 142.38 103.759 137.181 106.137 129.972C100.574 130.96 94.8544 131.477 89 131.477Z" fill="white"/>
<path d="M89 32.4956C67.1638 32.4956 49.466 50.2145 49.466 72.0768V113.511L61.1636 67.3496C69.9227 68.4163 79.2763 69.0002 89 69.0002C98.7237 69.0002 108.077 68.4163 116.836 67.3496L128.534 113.511V72.0768C128.534 50.2145 110.836 32.4956 89 32.4956Z" fill="black"/>
<path d="M30.871 170.923L0.387766 282.256C-1.19359 288.039 2.20465 294.013 7.98054 295.607C8.94505 295.865 9.90957 296 10.8517 296C15.6182 296 19.9921 292.834 21.3043 288.005L51.7876 176.672L30.8598 170.923H30.871Z" fill="#FAFAFA"/>
<path d="M147.129 170.923L177.612 282.256C179.194 288.039 175.795 294.013 170.019 295.607C169.055 295.865 168.09 296 167.148 296C162.382 296 158.008 292.834 156.696 288.005L126.212 176.672L147.14 170.923H147.129Z" fill="#D0D0D0"/>
<path d="M147.129 170.923L177.612 282.256C179.194 288.039 175.795 294.013 170.02 295.607C169.055 295.865 168.09 296 167.148 296C162.382 296 158.008 292.834 156.696 288.005L137.035 173.708L147.129 170.935V170.923Z" fill="#FAFAFA"/>
<path d="M30.871 170.923L0.387766 282.256C-1.19359 288.039 2.20465 294.013 7.98054 295.607C8.94505 295.865 9.90957 296 10.8517 296C15.6182 296 19.9921 292.834 21.3043 288.005L51.7876 176.672L30.8598 170.923H30.871Z" fill="#D0D0D0"/>
<path d="M30.871 170.923L0.387766 282.256C-1.19359 288.039 2.20465 294.013 7.98054 295.607C8.94505 295.865 9.90957 296 10.8517 296C15.6182 296 19.9921 292.834 21.3043 288.005L40.9648 173.708L30.871 170.935V170.923Z" fill="#FAFAFA"/>
<path d="M135.398 295.989H42.591L30.9832 170.923H74.6332L89.2019 173.495L104.982 170.923H147.006L135.398 295.989Z" fill="#FAFAFA"/>
<path d="M92.2524 183.679L89.4149 171.406H89L86.1625 183.679L82.1923 280.437L89.2018 295.506L96.2226 280.437L92.2524 183.679Z" fill="#1D2362"/>
<path d="M92.8469 0.011229C50.7109 0.011229 27.3831 40.8052 24.6017 53.3476C21.8203 65.9013 60.4683 77.7476 60.4683 77.7476L115.143 75.6591C130.115 72.8744 147.88 52.9996 147.88 49.8555C147.88 46.7115 134.994 0 92.8581 0L92.8469 0.011229Z" fill="#1D2362"/>
<path d="M92.746 1.24634C67.9938 1.24634 49.9932 15.7651 39.1031 29.8122C42.1425 44.825 61.96 56.413 85.9608 56.413C112.07 56.413 133.233 42.7028 133.233 25.7811C133.233 24.4112 133.076 23.0525 132.807 21.7275C124.541 11.0153 111.734 1.23511 92.746 1.23511V1.24634Z" fill="#35477C"/>
<path d="M51.1708 57.345L52.5279 60.3655C83.8074 71.4595 105.565 64.7672 123.588 57.6706L123.925 53.6732C123.925 53.6732 82.7868 37.4365 51.1708 57.345Z" fill="#020000"/>
<path d="M49.4885 71.9307L44.2061 60.9265C44.2061 60.9265 48.4791 35.9202 88.215 35.9202C127.951 35.9202 131.215 57.9285 131.215 57.9285L128.444 69.1796C127.435 40.5352 48.4791 43.2862 49.4885 71.9307Z" fill="#051028"/>
<path d="M53.784 46.1158C53.784 46.172 53.7615 46.2394 53.7615 46.2955C53.7615 49.7427 56.5766 52.898 61.2646 55.3795C75.8894 47.6654 100.72 46.8457 115.749 53.5942C118.676 51.4495 120.392 48.9679 120.392 46.2955C120.392 45.1726 120.055 44.0722 119.495 43.0279C113.102 39.0979 103.288 35.9202 88.2038 35.9202C70.7976 35.9202 60.1879 40.7261 53.7727 46.1158H53.784Z" fill="#122349"/>
<path d="M61.2086 63.0268C83.4485 68.9443 100.597 65.7441 115.132 60.7923C110.399 56.2896 100.529 53.1792 89.1011 53.1792C75.8558 53.1792 64.7077 57.3451 61.2198 63.0268H61.2086Z" fill="#210805"/>
<path d="M91.4338 26.241C91.5123 24.478 90.1328 23.0408 88.3496 23.0408C86.5663 23.0408 85.041 24.4668 84.9625 26.241C84.884 28.0151 86.2635 29.4411 88.0468 29.4411C89.83 29.4411 91.3553 28.0151 91.4338 26.241Z" fill="#E29D4B"/>
<path d="M86.7682 27.6897C80.9699 28.4421 81.0035 26.5893 81.0035 26.5893C81.0035 26.5893 77.7175 26.4097 77.639 25.7135C77.639 25.7135 74.1061 25.8258 74.151 24.8376C74.1959 23.8495 87.2841 23.2656 87.4524 23.2656C87.6206 23.2656 86.7682 27.6785 86.7682 27.6785V27.6897Z" fill="#E29D4B"/>
<path d="M89.5833 27.6897C95.1349 28.4421 95.2807 26.5893 95.2807 26.5893C95.2807 26.5893 98.4771 26.4097 98.6229 25.7135C98.6229 25.7135 102.032 25.8258 102.077 24.8376C102.122 23.8495 89.5048 23.2656 89.3366 23.2656C89.1684 23.2656 89.5833 27.6785 89.5833 27.6785V27.6897Z" fill="#E29D4B"/>
<path d="M88.215 46.0939C89.4662 46.0939 90.4805 44.6008 90.4805 42.759C90.4805 40.9172 89.4662 39.4241 88.215 39.4241C86.9638 39.4241 85.9495 40.9172 85.9495 42.759C85.9495 44.6008 86.9638 46.0939 88.215 46.0939Z" fill="#E29D4B"/>
<path d="M95.3815 181.736L89.415 185.43L83.2465 182.107L83.0334 175.089L89 171.406L95.1684 174.729L95.3815 181.736Z" fill="#1D2362"/>
<g style="mix-blend-mode:multiply">
<path d="M79.5342 188.384L69.6984 173.562V164.186L88.9999 171.406L79.5342 188.384Z" fill="#D0D0D0"/>
</g>
<g style="mix-blend-mode:multiply">
<path d="M98.4545 188.384L108.302 173.562V164.186L89.415 171.406L98.4545 188.384Z" fill="#D0D0D0"/>
</g>
<path d="M117.24 241.619C108.526 241.619 101.427 234.512 101.427 225.787V204.688H133.054V225.787C133.054 234.523 125.955 241.619 117.24 241.619ZM102.548 205.811V225.787C102.548 233.894 109.143 240.497 117.24 240.497C125.338 240.497 131.932 233.894 131.932 225.787V205.811H102.548Z" fill="#D0D0D0"/>
<path d="M132.493 211.853H101.987V213.739H132.493V211.853Z" fill="#D0D0D0"/>
<path d="M110.758 170.901H144.852C144.852 176.223 140.546 180.535 135.23 180.535H110.758V170.901Z" fill="#35477C"/>
<path d="M137.955 170.901H136.104V180.535H137.955V170.901Z" fill="#EAAE00"/>
<path d="M134.86 170.901H133.009V180.535H134.86V170.901Z" fill="#EAAE00"/>
<path d="M67.2311 180.546H42.7593C37.4433 180.546 33.1366 176.234 33.1366 170.912H67.2311V180.546Z" fill="#35477C"/>
<path d="M40.0339 180.546H41.8844V170.912H40.0339V180.546Z" fill="#EAAE00"/>
<path d="M43.1293 180.546H44.9799V170.912H43.1293V180.546Z" fill="#EAAE00"/>
<path d="M79.5342 182.803L69.6984 171.406V164.186L88.9999 171.406L79.5342 182.803Z" fill="#FAFAFA"/>
<path d="M98.4546 182.803L108.302 171.406V164.186L89.0001 171.406L98.4546 182.803Z" fill="#FAFAFA"/>
</svg>
