<svg width="1207" height="752" viewBox="0 0 1207 752" fill="none" xmlns="http://www.w3.org/2000/svg">
<path d="M957.005 0.436035C958.537 1.84602 959.533 3.2565 960.549 5.06921C960.854 5.60899 961.159 6.14876 961.473 6.7049C961.633 6.99066 961.793 7.27642 961.957 7.57084C962.635 8.78423 963.32 9.9937 964.004 11.2034C964.355 11.8238 964.706 12.4445 965.056 13.0653C966.666 15.9173 968.312 18.7478 969.968 21.5735C973.192 27.0839 976.384 32.6125 979.57 38.1447C981.069 40.7453 982.569 43.3448 984.069 45.9444C984.668 46.9823 985.266 48.0202 985.865 49.0582C986.161 49.5719 986.458 50.0857 986.763 50.615C989.458 55.2856 989.458 55.2856 990.356 56.8427C990.954 57.8799 991.553 58.917 992.151 59.9541C993.655 62.5603 995.158 65.1669 996.66 67.7742C999.555 72.8003 1002.46 77.8218 1005.38 82.8302C1008.62 88.3617 1011.82 93.9098 1015.02 99.4612C1016.52 102.062 1018.02 104.661 1019.52 107.261C1020.11 108.299 1020.71 109.337 1021.31 110.375C1021.76 111.145 1021.76 111.145 1022.21 111.932C1032.09 129.057 1032.09 129.057 1032.99 130.614C1033.59 131.651 1034.18 132.688 1034.78 133.726C1036.29 136.332 1037.79 138.938 1039.29 141.546C1042.19 146.572 1045.09 151.593 1048.02 156.602C1051.25 162.133 1054.45 167.681 1057.65 173.233C1059.15 175.833 1060.65 178.433 1062.15 181.032C1062.75 182.07 1063.34 183.108 1063.94 184.146C1064.39 184.917 1064.39 184.917 1064.84 185.703C1067.54 190.374 1067.54 190.374 1068.43 191.931C1069.03 192.968 1069.63 194.005 1070.23 195.042C1071.73 197.648 1073.24 200.255 1074.74 202.862C1077.63 207.888 1080.54 212.91 1083.46 217.918C1086.69 223.45 1089.9 228.998 1093.09 234.549C1094.59 237.15 1096.09 239.749 1097.59 242.349C1098.19 243.387 1098.79 244.425 1099.39 245.463C1099.83 246.233 1099.83 246.233 1100.29 247.02C1102.98 251.69 1102.98 251.69 1103.88 253.247C1104.48 254.284 1105.08 255.322 1105.67 256.359C1107.18 258.965 1108.68 261.572 1110.18 264.179C1113.08 269.205 1115.98 274.226 1118.91 279.235C1122.76 285.83 1126.57 292.449 1130.39 299.069C1131.32 300.691 1132.25 302.313 1133.19 303.935C1133.49 304.451 1133.78 304.967 1134.09 305.499C1136.07 308.924 1138.06 312.338 1140.08 315.733C1141.42 317.986 1141.42 317.986 1141.42 318.516C1020.02 318.516 898.624 318.516 773.547 318.516C776.816 311.977 776.816 311.977 778.546 309.115C778.963 308.415 779.38 307.714 779.796 307.013C780.021 306.634 780.246 306.256 780.478 305.865C781.888 303.476 783.269 301.07 784.653 298.666C785.111 297.872 785.111 297.872 785.578 297.062C786.517 295.431 787.456 293.8 788.396 292.169C792.168 285.618 795.95 279.072 799.764 272.545C802.717 267.486 805.642 262.41 808.566 257.334C810.064 254.734 811.564 252.134 813.064 249.535C813.663 248.497 814.262 247.459 814.861 246.421C816.058 244.345 817.256 242.269 818.453 240.193C818.75 239.68 819.046 239.166 819.351 238.636C819.95 237.599 820.548 236.562 821.146 235.525C822.65 232.919 824.153 230.312 825.655 227.705C828.825 222.203 832.007 216.71 835.21 211.228C838.164 206.169 841.088 201.094 844.012 196.018C845.511 193.417 847.011 190.818 848.511 188.218C849.109 187.18 849.708 186.142 850.307 185.104C851.504 183.028 852.702 180.953 853.899 178.877C854.196 178.363 854.492 177.849 854.798 177.32C855.396 176.283 855.994 175.245 856.593 174.208C858.097 171.602 859.6 168.996 861.101 166.388C864.271 160.887 867.454 155.394 870.656 149.912C873.61 144.853 876.535 139.777 879.459 134.701C880.957 132.101 882.457 129.501 883.957 126.901C884.556 125.864 885.154 124.826 885.753 123.788C886.951 121.712 888.148 119.636 889.346 117.56C889.642 117.046 889.939 116.533 890.244 116.003C890.842 114.966 891.441 113.929 892.039 112.892C893.543 110.286 895.046 107.679 896.548 105.072C899.717 99.5703 902.9 94.077 906.103 88.595C909.056 83.5362 911.981 78.4608 914.905 73.3847C916.403 70.7841 917.903 68.1845 919.403 65.5849C920.002 64.547 920.601 63.5091 921.2 62.4712C924.792 56.2437 928.385 50.0162 931.977 43.7888C932.274 43.2749 932.57 42.7611 932.875 42.2317C933.474 41.1945 934.072 40.1574 934.67 39.1203C936.174 36.5141 937.677 33.9075 939.179 31.3002C942.376 25.7512 945.587 20.2111 948.819 14.6824C951.581 9.95251 954.298 5.19756 957.005 0.436035Z" fill="#F1592E"/>
<path d="M797.976 396.599C801.62 399.787 804.898 403.737 807.077 408.096C808.886 407.33 810.209 406.123 811.657 404.832C826.539 391.947 846.127 382.832 865.994 382.228C866.599 382.209 867.205 382.189 867.828 382.17C879.273 381.932 890.176 383.866 900.483 388.934C900.948 389.155 901.413 389.375 901.892 389.602C913.892 395.664 921.778 406.636 926.02 419.143C929.449 429.764 929.847 440.536 929.811 451.607C929.81 452.774 929.811 453.941 929.811 455.108C929.811 457.924 929.807 460.739 929.801 463.555C929.794 466.836 929.793 470.118 929.792 473.4C929.79 479.25 929.783 485.101 929.774 490.951C929.765 496.628 929.759 502.305 929.755 507.981C929.754 508.508 929.754 508.508 929.754 509.045C929.753 510.806 929.751 512.568 929.75 514.329C929.74 528.897 929.723 543.466 929.702 558.034C915.634 558.034 901.565 558.034 887.071 558.034C887.06 553.135 887.06 553.135 887.049 548.137C887.026 537.661 886.996 527.184 886.961 516.708C886.955 515.078 886.95 513.447 886.945 511.817C886.943 511.331 886.943 511.331 886.942 510.834C886.925 505.595 886.913 500.356 886.903 495.117C886.892 489.733 886.876 484.348 886.856 478.964C886.844 475.943 886.835 472.922 886.832 469.902C886.829 467.053 886.82 464.205 886.805 461.356C886.801 460.316 886.799 459.276 886.8 458.235C886.806 447.307 885.916 436.208 878.112 427.802C872.04 422.153 864.261 420.176 856.147 420.401C840.627 421.239 826.481 429.408 815.699 440.191C815.652 441.705 815.637 443.208 815.641 444.722C815.641 445.204 815.64 445.686 815.64 446.182C815.639 447.809 815.642 449.436 815.645 451.063C815.645 452.224 815.645 453.385 815.644 454.546C815.644 457.053 815.646 459.559 815.648 462.066C815.652 465.69 815.653 469.314 815.654 472.938C815.655 478.817 815.658 484.696 815.663 490.575C815.667 496.287 815.671 502 815.673 507.712C815.673 508.064 815.673 508.416 815.673 508.779C815.674 510.544 815.674 512.309 815.675 514.074C815.68 528.727 815.689 543.381 815.699 558.034C801.631 558.034 787.562 558.034 773.068 558.034C773.058 554.862 773.049 551.691 773.039 548.424C773.007 537.927 772.97 527.43 772.93 516.933C772.906 510.571 772.884 504.209 772.865 497.847C772.85 492.298 772.83 486.749 772.808 481.2C772.795 478.265 772.785 475.33 772.779 472.396C772.772 469.626 772.762 466.857 772.748 464.087C772.744 463.077 772.741 462.068 772.74 461.059C772.916 445.047 772.916 445.047 766.84 430.61C766.606 430.277 766.371 429.943 766.129 429.6C762.066 424.41 755.737 421.831 749.396 420.751C734.925 419.062 720.508 424.954 709.222 433.772C706.59 435.925 704.099 438.266 701.696 440.67C701.643 442.178 701.622 443.675 701.62 445.183C701.618 445.663 701.615 446.143 701.613 446.637C701.606 448.257 701.602 449.878 701.598 451.498C701.593 452.654 701.588 453.811 701.583 454.967C701.573 457.463 701.564 459.96 701.557 462.456C701.546 466.065 701.532 469.675 701.518 473.284C701.495 479.139 701.474 484.994 701.455 490.849C701.436 496.539 701.416 502.228 701.395 507.917C701.394 508.267 701.393 508.618 701.391 508.979C701.385 510.737 701.378 512.495 701.372 514.253C701.317 528.846 701.266 543.44 701.217 558.034C687.149 558.034 673.08 558.034 658.586 558.034C658.586 501.282 658.586 444.531 658.586 386.06C672.654 386.06 686.722 386.06 701.217 386.06C701.375 391.909 701.533 397.758 701.696 403.784C703.435 402.362 705.173 400.939 706.965 399.473C732.629 379.587 771.963 374.469 797.976 396.599Z" fill="#0D153A"/>
<path d="M457.837 382.198C473.622 381.757 490.012 385.207 502.131 395.91C502.873 396.614 503.612 397.322 504.346 398.036C504.679 398.339 505.013 398.643 505.356 398.956C508.059 401.491 510.156 404.411 512.01 407.616C512.01 407.932 512.01 408.249 512.01 408.574C513.854 407.22 515.673 405.846 517.444 404.398C531.182 393.174 547.285 384.597 565.18 382.706C565.625 382.654 566.07 382.601 566.529 382.547C583.097 380.857 601.109 383.807 614.427 394.383C615.265 395.11 616.093 395.849 616.912 396.598C617.349 396.991 617.786 397.384 618.237 397.789C631.494 410.306 634.495 428.498 635.114 445.939C635.194 449.695 635.175 453.452 635.169 457.208C635.168 458.314 635.169 459.419 635.169 460.525C635.169 463.499 635.166 466.474 635.163 469.449C635.16 472.567 635.159 475.686 635.159 478.804C635.158 484.03 635.155 489.256 635.15 494.481C635.146 499.859 635.143 505.237 635.14 510.615C635.14 510.948 635.14 511.28 635.14 511.623C635.139 513.292 635.139 514.96 635.138 516.629C635.133 530.431 635.125 544.232 635.114 558.033C621.046 558.033 606.977 558.033 592.483 558.033C592.473 554.92 592.464 551.807 592.454 548.599C592.422 538.293 592.385 527.988 592.345 517.682C592.321 511.436 592.299 505.19 592.281 498.944C592.265 493.496 592.246 488.048 592.223 482.6C592.211 479.719 592.2 476.838 592.194 473.957C592.188 471.237 592.177 468.518 592.163 465.799C592.159 464.808 592.156 463.817 592.155 462.826C592.143 443.914 592.143 443.914 583.094 427.872C577.019 422.084 569.41 420.258 561.14 420.421C546.147 421.082 531.562 429.26 521.111 439.712C521.058 441.231 521.037 442.741 521.035 444.261C521.032 444.987 521.032 444.987 521.028 445.727C521.021 447.36 521.017 448.994 521.013 450.628C521.008 451.793 521.003 452.959 520.998 454.125C520.988 456.642 520.979 459.158 520.972 461.675C520.961 465.314 520.947 468.952 520.933 472.591C520.911 478.494 520.89 484.397 520.87 490.3C520.852 496.036 520.832 501.772 520.811 507.507C520.809 508.037 520.809 508.037 520.807 508.578C520.8 510.35 520.793 512.123 520.787 513.895C520.732 528.608 520.681 543.321 520.632 558.033C506.564 558.033 492.495 558.033 478.001 558.033C477.994 554.758 477.987 551.483 477.98 548.108C477.956 537.596 477.926 527.085 477.891 516.573C477.886 514.937 477.88 513.301 477.875 511.665C477.874 511.176 477.874 511.176 477.872 510.678C477.855 505.423 477.843 500.167 477.833 494.912C477.823 489.509 477.807 484.106 477.786 478.703C477.774 475.673 477.765 472.643 477.762 469.612C477.76 466.754 477.75 463.895 477.735 461.036C477.731 459.993 477.729 458.95 477.73 457.907C477.736 446.856 477.316 436.111 469.382 427.68C463.892 422.35 456.528 420.559 449.051 420.371C433.212 420.75 418.113 429.185 407.108 440.191C406.962 441.097 406.962 441.097 406.983 442.149C406.979 442.561 406.976 442.974 406.972 443.399C406.973 443.854 406.974 444.31 406.975 444.78C406.972 445.262 406.969 445.744 406.966 446.24C406.958 447.866 406.957 449.491 406.955 451.117C406.951 452.278 406.946 453.439 406.941 454.6C406.93 457.106 406.923 459.611 406.918 462.116C406.911 465.738 406.899 469.36 406.885 472.982C406.864 478.858 406.846 484.735 406.831 490.611C406.817 496.32 406.8 502.029 406.781 507.738C406.78 508.09 406.779 508.442 406.778 508.804C406.772 510.569 406.766 512.333 406.76 514.098C406.71 528.743 406.668 543.388 406.629 558.033C392.561 558.033 378.492 558.033 363.998 558.033C363.998 501.282 363.998 444.531 363.998 386.06C377.908 386.06 391.818 386.06 406.15 386.06C406.15 392.067 406.15 398.074 406.15 404.263C409.47 401.655 409.47 401.655 412.856 398.994C425.712 389.127 441.542 382.728 457.837 382.198Z" fill="#0D153A"/>
<path d="M0.433716 147.021C15.2924 147.021 30.1511 147.021 45.4601 147.021C46.6106 149.898 47.7227 152.713 48.6788 155.647C48.7956 156.001 48.9123 156.355 49.0327 156.72C49.4169 157.887 49.7989 159.054 50.1809 160.221C50.4567 161.059 50.7326 161.898 51.0087 162.736C51.7508 164.992 52.4911 167.248 53.231 169.504C54.0088 171.876 54.7881 174.247 55.5673 176.618C56.5257 179.535 57.484 182.451 58.4415 185.368C60.3479 191.175 62.2613 196.979 64.1828 202.781C69.5492 218.986 74.8537 235.198 79.7722 251.546C80.9197 255.355 82.111 259.151 83.3014 262.948C83.4274 262.567 83.5533 262.186 83.6831 261.793C89.4649 244.307 95.286 226.846 101.5 209.508C103.377 204.261 105.193 198.994 107.012 193.727C109.776 185.732 112.569 177.748 115.395 169.775C115.557 169.316 115.72 168.857 115.888 168.383C118.414 161.254 120.976 154.138 123.538 147.021C133.97 147.021 144.403 147.021 155.152 147.021C157.582 153.898 157.582 153.898 160.062 160.913C163.524 170.704 166.996 180.49 170.495 190.268C177.574 210.053 184.565 229.866 191.298 249.772C191.447 250.211 191.595 250.65 191.748 251.102C192.417 253.084 193.082 255.067 193.735 257.053C193.902 257.562 193.902 257.562 194.074 258.082C194.366 258.971 194.656 259.861 194.946 260.751C195.271 261.941 195.271 261.941 195.867 262.469C195.945 262.213 196.023 261.957 196.104 261.694C196.965 258.869 197.829 256.044 198.695 253.221C199.011 252.186 199.327 251.152 199.643 250.117C206.014 229.218 212.86 208.466 219.726 187.726C220.455 185.523 221.183 183.321 221.91 181.119C222.804 178.416 223.697 175.713 224.591 173.011C224.832 172.282 224.832 172.282 225.077 171.539C227.782 163.362 230.506 155.192 233.23 147.021C247.456 147.021 261.683 147.021 276.34 147.021C275.973 148.855 275.549 150.461 274.953 152.22C274.671 153.056 274.671 153.056 274.384 153.909C274.176 154.518 273.969 155.128 273.762 155.737C273.546 156.375 273.33 157.013 273.114 157.651C272.535 159.362 271.955 161.072 271.373 162.782C271.01 163.85 270.648 164.919 270.285 165.988C267.294 174.811 264.275 183.624 261.189 192.414C258.686 199.542 256.248 206.691 253.827 213.846C251.239 221.494 248.626 229.132 245.953 236.75C243.176 244.667 240.467 252.605 237.78 260.552C234.945 268.937 232.08 277.309 229.15 285.661C225.32 296.585 221.617 307.552 217.902 318.516C203.833 318.516 189.765 318.516 175.27 318.516C173.64 313.902 172.01 309.288 170.331 304.534C166.907 294.849 163.471 285.17 159.996 275.503C154.251 259.516 148.641 243.495 143.267 227.379C143.104 226.892 143.104 226.892 142.938 226.394C142.215 224.226 141.493 222.056 140.773 219.887C140.587 219.329 140.401 218.771 140.21 218.196C139.954 217.425 139.954 217.425 139.693 216.638C139.544 216.189 139.396 215.741 139.242 215.279C138.917 214.248 138.634 213.222 138.387 212.17C137.408 215.024 136.43 217.878 135.453 220.733C135.302 221.173 135.152 221.613 134.996 222.067C133.32 226.966 131.654 231.869 130.029 236.786C129.83 237.388 129.83 237.388 129.627 238.001C129.428 238.603 129.428 238.603 129.225 239.217C126.303 248.061 123.261 256.855 120.134 265.628C118.119 271.286 116.118 276.949 114.139 282.62C114.024 282.951 113.908 283.281 113.79 283.622C112.648 286.893 111.509 290.165 110.37 293.437C110.047 294.364 109.724 295.29 109.402 296.216C109.012 297.334 108.623 298.451 108.235 299.569C106.029 305.898 103.758 312.203 101.504 318.516C87.5933 318.516 73.683 318.516 59.3512 318.516C57.196 313.666 57.196 313.666 56.4523 311.447C56.2835 310.948 56.1148 310.448 55.9409 309.933C55.7641 309.402 55.5873 308.872 55.4051 308.325C55.2148 307.76 55.0244 307.195 54.8284 306.613C54.4207 305.402 54.0137 304.192 53.608 302.98C52.5313 299.767 51.4466 296.557 50.3624 293.346C50.1999 292.864 50.1999 292.864 50.0341 292.373C48.1372 286.753 46.1993 281.148 44.2327 275.552C41.4738 267.696 38.7863 259.817 36.1195 251.93C33.4426 244.012 30.7442 236.104 27.9765 228.218C25.2087 220.331 22.5104 212.423 19.8334 204.505C17.126 196.498 14.3968 188.5 11.6005 180.524C9.15315 173.539 6.73124 166.547 4.34064 159.543C3.99336 158.526 3.64559 157.509 3.29729 156.493C2.8159 155.087 2.33646 153.68 1.85763 152.274C1.71283 151.851 1.56802 151.429 1.41883 150.995C1.28828 150.61 1.15773 150.224 1.02323 149.828C0.908753 149.492 0.794273 149.156 0.676324 148.81C0.433716 147.979 0.433716 147.979 0.433716 147.021Z" fill="#0D153A"/>
<path d="M471.295 52.1719C485.363 52.1719 499.432 52.1719 513.926 52.1719C513.926 86.3175 513.926 120.463 513.926 155.644C516.455 154.221 518.985 152.798 521.59 151.332C523.175 150.6 524.699 149.916 526.321 149.296C526.719 149.141 527.118 148.986 527.529 148.825C548.411 140.876 571.93 140.852 592.575 149.536C613.717 159.07 628.396 175.575 636.727 197.095C638.01 200.697 638.926 204.339 639.755 208.068C639.852 208.501 639.949 208.934 640.049 209.381C641.493 216.177 642.017 222.877 642 229.804C642 230.187 642 230.57 642 230.964C641.973 241.219 640.609 251.233 637.509 261.031C637.397 261.391 637.284 261.751 637.168 262.121C633.333 274.053 626.949 284.983 618.349 294.085C617.798 294.732 617.249 295.38 616.703 296.031C602.928 311.72 580.779 320.549 560.39 322.348C558.888 322.423 557.388 322.448 555.884 322.462C555.465 322.467 555.046 322.472 554.615 322.476C545.519 322.557 536.716 322.546 527.817 320.432C527.142 320.274 527.142 320.274 526.453 320.113C521.225 318.858 516.154 317.278 511.172 315.251C510.654 315.046 510.654 315.046 510.126 314.837C509.829 314.715 509.533 314.592 509.227 314.467C506.653 313.823 504.04 314.27 501.47 314.732C501.153 314.788 500.836 314.844 500.51 314.902C499.475 315.086 498.441 315.274 497.406 315.462C496.683 315.591 495.96 315.72 495.237 315.848C493.341 316.186 491.446 316.527 489.552 316.869C486.511 317.417 483.469 317.96 480.427 318.503C479.365 318.693 478.303 318.885 477.242 319.076C476.594 319.193 475.946 319.309 475.299 319.425C474.732 319.527 474.166 319.629 473.582 319.735C472.253 319.953 472.253 319.953 471.295 319.953C471.295 231.585 471.295 143.217 471.295 52.1719ZM513.926 191.571C513.785 192.747 513.739 193.802 513.753 194.978C513.752 195.333 513.751 195.688 513.75 196.054C513.747 197.249 513.755 198.444 513.763 199.639C513.764 200.494 513.763 201.348 513.763 202.202C513.762 204.527 513.771 206.852 513.781 209.177C513.79 211.604 513.79 214.032 513.792 216.459C513.797 221.059 513.808 225.658 513.823 230.257C513.839 235.492 513.847 240.728 513.854 245.963C513.869 256.734 513.894 267.505 513.926 278.277C515.077 278.818 516.227 279.358 517.378 279.898C517.864 280.127 517.864 280.126 518.359 280.36C520.625 281.421 522.89 282.386 525.273 283.157C525.623 283.272 525.974 283.387 526.335 283.506C541.33 288.242 557.9 288.811 572.232 281.735C584.456 275.318 592.178 264.046 596.399 251.17C598.297 244.917 598.908 238.771 598.89 232.259C598.889 231.914 598.889 231.568 598.889 231.211C598.842 217.738 595.024 204.548 585.777 194.445C585.426 194.061 585.075 193.677 584.714 193.282C575.79 183.949 563.188 179.827 550.51 179.506C537.122 179.716 524.968 184.209 513.926 191.571Z" fill="#0D153A"/>
<path d="M767.798 100.076C769.33 101.486 770.326 102.896 771.342 104.709C771.647 105.249 771.952 105.788 772.267 106.345C772.426 106.63 772.586 106.916 772.75 107.21C773.428 108.424 774.113 109.633 774.797 110.843C775.148 111.463 775.499 112.084 775.849 112.705C777.459 115.557 779.105 118.387 780.761 121.213C783.985 126.724 787.177 132.252 790.364 137.784C791.862 140.385 793.362 142.984 794.862 145.584C795.461 146.622 796.06 147.66 796.658 148.698C796.955 149.212 797.251 149.725 797.557 150.255C807.436 167.38 807.436 167.38 808.335 168.939C808.93 169.97 809.525 171.001 810.12 172.032C811.513 174.446 812.906 176.861 814.295 179.278C814.785 180.131 815.276 180.984 815.767 181.837C816.382 182.906 816.996 183.975 817.61 185.045C818.029 185.773 818.029 185.773 818.457 186.515C818.719 186.973 818.982 187.431 819.253 187.902C820.119 189.36 821.056 190.758 822.044 192.136C822.564 193.392 822.32 194.118 821.926 195.404C821.37 196.533 821.37 196.533 820.665 197.715C820.401 198.161 820.137 198.608 819.865 199.068C819.577 199.549 819.289 200.029 818.992 200.523C818.376 201.564 817.76 202.605 817.145 203.647C816.826 204.184 816.508 204.722 816.179 205.276C814.652 207.862 813.155 210.465 811.657 213.068C811.054 214.115 810.451 215.162 809.848 216.208C809.548 216.728 809.249 217.248 808.941 217.783C807.442 220.384 805.942 222.983 804.442 225.583C803.843 226.621 803.245 227.659 802.646 228.697C801.448 230.773 800.251 232.848 799.053 234.924C798.757 235.438 798.461 235.952 798.155 236.481C797.557 237.518 796.958 238.556 796.36 239.593C794.856 242.199 793.353 244.806 791.852 247.413C788.682 252.914 785.499 258.407 782.296 263.89C779.343 268.948 776.418 274.024 773.494 279.1C771.996 281.7 770.496 284.3 768.996 286.9C768.397 287.938 767.798 288.975 767.2 290.013C766.002 292.089 764.805 294.165 763.607 296.241C763.162 297.013 763.162 297.013 762.707 297.801C762.114 298.829 761.521 299.857 760.927 300.885C759.516 303.331 758.106 305.777 756.699 308.225C756.03 309.389 755.36 310.552 754.691 311.716C754.215 312.544 753.74 313.372 753.265 314.2C752.836 314.944 752.836 314.944 752.399 315.703C752.146 316.144 751.894 316.584 751.633 317.037C751.033 318.037 751.033 318.037 750.554 318.516C749.155 318.563 747.768 318.578 746.369 318.574C745.924 318.574 745.48 318.574 745.022 318.575C743.521 318.576 742.02 318.573 740.518 318.57C739.447 318.57 738.376 318.57 737.304 318.571C734.386 318.571 731.468 318.568 728.549 318.565C725.503 318.562 722.457 318.561 719.41 318.561C714.294 318.559 709.178 318.556 704.062 318.552C698.791 318.548 693.521 318.544 688.25 318.542C687.763 318.542 687.763 318.542 687.266 318.542C685.638 318.541 684.009 318.541 682.38 318.54C668.86 318.535 655.34 318.527 641.82 318.516C642.429 316.632 643.074 314.987 644.086 313.284C644.48 312.616 644.48 312.616 644.881 311.935C645.165 311.459 645.449 310.983 645.742 310.492C646.354 309.456 646.965 308.419 647.576 307.382C647.892 306.848 648.208 306.313 648.533 305.762C650.054 303.177 651.551 300.577 653.047 297.977C653.649 296.932 654.252 295.887 654.854 294.841C655.459 293.791 656.064 292.74 656.669 291.69C660.442 285.139 664.224 278.593 668.038 272.066C670.991 267.007 673.916 261.932 676.84 256.856C678.338 254.255 679.838 251.655 681.338 249.056C681.937 248.018 682.536 246.98 683.134 245.942C684.332 243.866 685.529 241.79 686.727 239.715C687.023 239.201 687.32 238.687 687.625 238.157C688.224 237.12 688.822 236.083 689.42 235.046C690.924 232.44 692.427 229.833 693.929 227.226C697.098 221.725 700.281 216.231 703.484 210.749C706.438 205.69 709.362 200.615 712.286 195.539C713.784 192.938 715.285 190.339 716.784 187.739C717.383 186.701 717.982 185.663 718.581 184.625C719.778 182.55 720.976 180.474 722.173 178.398C722.47 177.884 722.766 177.37 723.072 176.841C723.67 175.804 724.268 174.767 724.867 173.73C726.37 171.123 727.873 168.517 729.375 165.909C732.545 160.408 735.727 154.915 738.93 149.433C741.884 144.374 744.809 139.299 747.732 134.222C749.528 131.107 751.325 127.992 753.122 124.878C754.657 122.218 756.19 119.558 757.721 116.896C763.104 107.538 763.104 107.538 765.583 103.399C765.844 102.963 765.844 102.963 766.11 102.517C767.257 100.617 767.257 100.617 767.798 100.076Z" fill="#F99D1B"/>
<path d="M365.046 143.039C365.412 143.04 365.779 143.041 366.157 143.042C371.926 143.065 377.513 143.347 383.158 144.626C383.537 144.711 383.917 144.795 384.308 144.883C404.073 149.428 421.756 160.47 432.705 177.816C437.955 186.402 441.506 195.491 443.632 205.314C443.705 205.648 443.777 205.983 443.852 206.328C445.212 213.073 445.573 219.667 445.527 226.529C445.518 227.895 445.517 229.261 445.517 230.627C445.496 241.666 445.496 241.666 444.471 244.744C383.534 244.981 383.534 244.981 321.366 245.223C323.784 254.291 326.726 262.04 332.863 269.175C333.232 269.641 333.602 270.108 333.983 270.588C335.282 272.144 336.743 273.386 338.341 274.624C338.78 274.964 338.78 274.964 339.227 275.311C353.551 286.181 371.945 288.426 389.362 286.137C405.594 283.809 422.468 277.586 435.369 267.259C435.686 267.259 436.002 267.259 436.327 267.259C436.439 272.331 436.524 277.402 436.576 282.475C436.601 284.83 436.635 287.185 436.689 289.54C436.741 291.814 436.77 294.087 436.782 296.361C436.791 297.228 436.808 298.095 436.834 298.961C437.029 305.756 437.029 305.756 435.3 307.689C434.06 308.445 432.908 308.943 431.537 309.414C430.864 309.761 430.195 310.117 429.533 310.486C418.95 315.748 407.683 318.816 396.091 320.911C395.648 320.996 395.204 321.081 394.747 321.169C380.256 323.871 363.514 323.622 349.149 320.432C348.439 320.278 348.439 320.278 347.716 320.121C331.114 316.409 316.195 308.931 303.643 297.438C303.191 297.026 302.739 296.614 302.274 296.19C287.629 282.2 278.193 260.952 277.7 240.695C277.691 239.952 277.684 239.208 277.68 238.464C277.676 238.062 277.673 237.659 277.67 237.244C277.56 220.437 277.56 220.437 279.214 213.128C279.309 212.693 279.404 212.259 279.503 211.811C284.58 189.2 297.72 169.035 317.445 156.542C325.668 151.461 334.333 147.719 343.73 145.434C344.207 145.318 344.685 145.202 345.176 145.082C351.785 143.556 358.289 143.005 365.046 143.039ZM331.968 191.736C329.669 194.338 327.86 197.177 326.157 200.194C325.923 200.601 325.688 201.008 325.447 201.427C323.182 205.645 321.672 210.337 320.887 215.044C348.866 215.044 376.845 215.044 405.671 215.044C405.347 212.126 405 209.577 404.174 206.811C404.07 206.462 403.966 206.113 403.859 205.753C402.203 200.455 399.728 195.79 396.091 191.571C395.71 191.087 395.71 191.087 395.32 190.593C389.08 182.911 378.89 178.8 369.267 177.679C355.023 176.775 341.804 181.174 331.968 191.736Z" fill="#0D153A"/>
<path d="M174.312 386.06C188.381 386.06 202.449 386.06 216.944 386.06C216.953 389.144 216.963 392.228 216.972 395.406C217.005 405.616 217.042 415.826 217.081 426.036C217.105 432.224 217.128 438.412 217.146 444.601C217.162 449.998 217.181 455.395 217.204 460.793C217.216 463.647 217.226 466.501 217.233 469.356C217.239 472.05 217.249 474.744 217.263 477.438C217.268 478.42 217.27 479.401 217.271 480.383C217.287 493.091 217.356 506.922 226.696 516.64C232.269 521.727 239.547 523.737 246.941 523.692C247.403 523.69 247.866 523.688 248.342 523.685C252.241 523.622 255.802 523.145 259.575 522.106C260.141 521.954 260.707 521.802 261.291 521.645C271.703 518.518 280.591 512.363 288.315 504.86C288.56 504.667 288.806 504.474 289.058 504.275C290.24 503.28 291.06 502.484 291.456 500.962C291.559 499.713 291.572 498.493 291.553 497.24C291.558 496.764 291.562 496.288 291.566 495.798C291.578 494.204 291.569 492.612 291.56 491.018C291.563 489.876 291.569 488.733 291.575 487.591C291.587 484.811 291.586 482.031 291.58 479.252C291.572 476.017 291.582 472.782 291.592 469.547C291.609 463.778 291.614 458.009 291.611 452.24C291.608 446.637 291.611 441.034 291.622 435.431C291.623 434.913 291.623 434.913 291.624 434.384C291.627 432.65 291.631 430.917 291.634 429.184C291.664 414.809 291.671 400.434 291.668 386.06C305.737 386.06 319.805 386.06 334.3 386.06C334.3 442.811 334.3 499.562 334.3 558.033C320.231 558.033 306.163 558.033 291.668 558.033C291.51 551.868 291.352 545.703 291.189 539.351C289.451 540.932 287.712 542.513 285.92 544.141C268.938 557.638 248.247 563.675 226.653 561.645C217.912 560.626 209.744 558.064 202.095 553.722C201.624 553.457 201.153 553.191 200.669 552.917C188.524 545.602 180.638 533.577 177.214 519.954C174.52 508.672 174.162 497.138 174.204 485.58C174.204 484.483 174.204 483.386 174.203 482.29C174.203 479.357 174.208 476.424 174.215 473.491C174.221 470.41 174.222 467.328 174.223 464.247C174.225 459.089 174.231 453.931 174.24 448.774C174.249 443.468 174.256 438.163 174.26 432.858C174.26 432.529 174.26 432.201 174.26 431.862C174.262 430.212 174.263 428.563 174.264 426.914C174.274 413.296 174.292 399.678 174.312 386.06Z" fill="#0D153A"/>
<path d="M142.698 395.641C142.698 408.603 142.698 421.566 142.698 434.922C139.695 433.499 136.691 432.076 133.597 430.61C119.446 424.09 104.531 419.936 89.0495 418.155C88.5228 418.092 87.9961 418.029 87.4534 417.965C76.6184 416.868 63.1193 416.969 54.0822 423.904C51.161 426.698 49.6843 430.24 49.5616 434.263C49.713 437.731 50.6873 440.633 53.083 443.198C56.4275 445.96 60.551 447.437 64.697 448.516C65.0821 448.617 65.4673 448.717 65.8641 448.821C71.1885 450.158 76.6071 451.041 82.0117 451.985C132.162 460.76 132.162 460.76 144.81 478.14C152.495 489.252 153.984 502.962 151.712 516.118C149.003 529.539 141.512 540.765 130.274 548.483C119.595 555.506 107.746 558.795 95.2765 560.908C94.902 560.972 94.5275 561.037 94.1417 561.103C69.2292 565.132 32.8254 561.746 11.4508 547.495C11.3136 546.205 11.2696 545.026 11.2877 543.736C11.2875 543.348 11.2872 542.961 11.287 542.561C11.288 541.275 11.2992 539.99 11.3105 538.704C11.3131 537.814 11.3152 536.924 11.3166 536.034C11.3221 533.688 11.3362 531.343 11.3521 528.998C11.3668 526.606 11.3734 524.214 11.3806 521.822C11.3961 517.126 11.4206 512.431 11.4508 507.735C12.9804 508.337 14.4226 508.971 15.8591 509.771C38.526 522.165 69.9872 531.861 95.7499 524.453C100.713 522.828 105.226 520.22 107.731 515.445C109.369 511.475 109.53 507.511 108.21 503.424C106.005 498.42 101.556 496.289 96.7135 494.322C95.0757 493.777 93.4254 493.362 91.7439 492.975C91.0056 492.8 91.0056 492.8 90.2525 492.622C84.8684 491.398 79.4288 490.479 73.9908 489.532C58.5538 486.836 42.4657 484.018 28.6949 476.119C28.0262 475.752 28.0262 475.752 27.344 475.378C17.4851 469.769 10.6792 461.474 7.65245 450.561C4.45103 437.541 6.05669 423.031 12.8148 411.357C14.9329 408.06 17.368 405.174 20.0729 402.347C20.5573 401.809 20.5573 401.809 21.0515 401.26C33.5887 387.828 55.0722 382.866 72.7133 382.256C96.9575 381.581 120.603 385.442 142.698 395.641Z" fill="#0D153A"/>
<path d="M1050.89 340.551C1064.96 340.551 1079.03 340.551 1093.52 340.551C1093.52 355.569 1093.52 370.587 1093.52 386.06C1109.49 386.06 1125.45 386.06 1141.9 386.06C1141.9 398.074 1141.9 410.088 1141.9 422.466C1125.94 422.466 1109.97 422.466 1093.52 422.466C1093.58 434.992 1093.58 434.992 1093.64 447.517C1093.67 452.633 1093.7 457.748 1093.72 462.863C1093.74 466.59 1093.76 470.317 1093.78 474.044C1093.79 476.013 1093.8 477.982 1093.81 479.951C1093.08 500.983 1093.08 500.983 1101.51 519.441C1106.18 523.704 1112.32 524.74 1118.43 524.501C1122.9 524.106 1127.26 523.123 1131.51 521.717C1132 521.556 1132 521.556 1132.5 521.392C1135.76 520.253 1138.72 518.782 1141.9 517.315C1141.9 529.488 1141.9 541.66 1141.9 554.201C1133.53 558.11 1133.53 558.11 1129.39 559.111C1128.92 559.227 1128.45 559.344 1127.97 559.463C1109.57 563.874 1090.63 563.034 1074.17 553.232C1062.55 545.659 1055.99 534.295 1053.05 520.942C1051.16 511.529 1050.81 501.975 1050.84 492.403C1050.84 491.632 1050.84 490.861 1050.84 490.091C1050.84 488.03 1050.84 485.969 1050.84 483.908C1050.84 481.742 1050.84 479.577 1050.85 477.412C1050.85 473.325 1050.85 469.238 1050.86 465.151C1050.86 460.493 1050.86 455.835 1050.87 451.176C1050.87 441.606 1050.88 432.036 1050.89 422.466C1041.09 422.466 1031.29 422.466 1021.19 422.466C1021.19 410.452 1021.19 398.438 1021.19 386.06C1030.99 386.06 1040.79 386.06 1050.89 386.06C1050.89 371.042 1050.89 356.024 1050.89 340.551Z" fill="#0D153A"/>
<path d="M958.442 386.06C972.51 386.06 986.579 386.06 1001.07 386.06C1001.07 442.811 1001.07 499.562 1001.07 558.033C987.005 558.033 972.937 558.033 958.442 558.033C958.442 501.282 958.442 444.531 958.442 386.06Z" fill="#0D153A"/>
<path d="M10.4928 622.224C78.172 622.224 78.172 622.224 90.4865 633.721C98.2569 641.673 100.669 652.548 100.665 663.317C100.546 673.164 97.4325 682.916 90.5931 690.204C87.4435 693.166 82.0647 697.912 77.5534 697.912C82.588 707.367 82.588 707.367 87.7516 716.753C89.4096 719.719 91.0276 722.706 92.642 725.696C94.4911 729.119 96.3484 732.536 98.2404 735.935C98.4289 736.274 98.6175 736.613 98.8118 736.963C99.8381 738.805 100.87 740.644 101.906 742.481C102.241 743.077 102.241 743.077 102.582 743.685C103.012 744.451 103.443 745.215 103.877 745.979C105.336 748.582 105.336 748.582 105.336 749.648C97.9063 749.648 90.4769 749.648 82.8224 749.648C79.8193 744.041 76.8162 738.435 73.813 732.829C73.5204 732.283 73.2278 731.737 72.9264 731.174C72.3362 730.072 71.746 728.97 71.1558 727.868C69.7772 725.295 68.3985 722.721 67.0195 720.148C66.3826 718.959 65.7457 717.77 65.1089 716.582C64.6704 715.764 64.2318 714.945 63.7932 714.127C61.6687 710.162 59.5521 706.192 57.4352 702.223C48.5832 702.065 39.7312 701.907 30.611 701.744C30.611 717.552 30.611 733.36 30.611 749.648C23.972 749.648 17.333 749.648 10.4928 749.648C10.4928 707.598 10.4928 665.548 10.4928 622.224ZM30.611 638.99C30.611 654.008 30.611 669.026 30.611 684.499C35.3729 684.528 40.1348 684.558 45.041 684.589C47.2751 684.608 47.2751 684.608 49.5543 684.628C50.7555 684.632 51.9567 684.636 53.1578 684.639C53.7648 684.646 54.3717 684.654 54.997 684.661C62.0839 684.663 69.4008 683.446 74.9263 678.666C75.9002 677.622 76.7407 676.57 77.5534 675.397C77.8525 674.973 77.8525 674.973 78.1578 674.54C81.5321 668.845 81.4774 660.885 80.0644 654.628C78.4467 649.265 75.4922 645.036 70.6583 642.134C62.4794 638.014 53.1395 638.818 44.2626 638.901C39.7576 638.93 35.2525 638.96 30.611 638.99Z" fill="#F1592E"/>
<path d="M267.269 633.871C279.937 645.661 286.263 661.792 287.297 678.921C288.017 699.903 284.336 719.903 269.634 735.756C259.711 746.083 245.808 751.053 231.71 751.626C216.45 751.889 202.038 747.323 190.862 736.723C178.313 724.391 172.4 706.975 172.242 689.584C172.238 688.428 172.241 687.272 172.247 686.116C172.248 685.716 172.249 685.315 172.25 684.903C172.275 678.77 172.462 672.778 173.833 666.775C173.926 666.366 174.019 665.958 174.114 665.538C177.714 650.341 186.101 636.9 199.34 628.362C220.611 615.797 248.532 617.522 267.269 633.871ZM204.49 648.571C204.133 648.907 203.776 649.243 203.408 649.589C194.724 658.304 191.823 671.515 191.839 683.43C191.842 683.799 191.845 684.168 191.848 684.548C191.856 685.665 191.848 686.781 191.839 687.898C191.821 700.488 194.968 712.798 203.532 722.343C203.779 722.635 204.027 722.927 204.282 723.228C208.532 727.904 214.327 730.674 220.297 732.403C220.676 732.52 221.055 732.637 221.446 732.758C230.913 735.183 240.856 732.914 249.14 728.132C257.874 722.821 263.219 713.571 265.894 703.906C269.589 687.857 269.042 669.761 260.533 655.278C259.192 653.274 257.762 651.384 256.222 649.529C255.963 649.216 255.705 648.902 255.438 648.579C250.262 642.894 241.933 639.027 234.326 638.406C222.722 637.94 212.824 640.034 204.49 648.571Z" fill="#F1592E"/>
<path d="M128.328 622.224C134.809 622.224 141.29 622.224 147.967 622.224C147.967 664.274 147.967 706.324 147.967 749.648C141.486 749.648 135.005 749.648 128.328 749.648C128.328 707.598 128.328 665.548 128.328 622.224Z" fill="#F1592E"/>
<path d="M1199.47 520.729C1203.96 524.905 1206.26 530.441 1206.66 536.481C1206.77 543.382 1205.06 549.379 1200.34 554.561C1195.71 558.894 1190 560.879 1183.72 560.919C1178.2 560.707 1173.7 559.329 1169.2 556.118C1168.48 555.614 1168.48 555.614 1167.74 555.1C1163.55 551.423 1161.28 545.697 1160.88 540.238C1160.59 533.515 1162.2 527.119 1166.79 522.018C1175.75 513.447 1189.81 512.962 1199.47 520.729ZM1170.25 524.591C1166.56 528.537 1164.98 532.996 1164.86 538.365C1165.09 543.799 1167.07 548.27 1170.83 552.19C1175.53 556.154 1180.51 556.952 1186.43 556.68C1191.31 556.261 1195.28 553.866 1198.42 550.214C1202.17 545.238 1202.79 540.151 1202.26 534.082C1201.19 529.186 1198.31 524.874 1194.11 522.106C1186.14 517.825 1176.99 518.285 1170.25 524.591Z" fill="#0D153A"/>
<path d="M1175.43 525.459C1188.81 525.459 1188.81 525.459 1192.02 528.543C1193.69 530.45 1193.85 532.449 1193.78 534.907C1193.52 536.792 1192.86 537.816 1191.72 539.351C1190.77 540.01 1189.82 540.652 1188.84 541.267C1189 541.509 1189.16 541.751 1189.33 542C1190.05 543.091 1190.76 544.185 1191.48 545.279C1191.73 545.659 1191.98 546.04 1192.24 546.432C1192.48 546.796 1192.71 547.16 1192.96 547.536C1193.18 547.872 1193.4 548.208 1193.63 548.554C1194.11 549.411 1194.11 549.411 1194.11 550.369C1192.22 550.369 1190.32 550.369 1188.36 550.369C1188.06 549.821 1187.75 549.273 1187.44 548.709C1187.04 547.995 1186.64 547.281 1186.24 546.566C1185.94 546.024 1185.94 546.024 1185.63 545.471C1185.34 544.954 1185.34 544.954 1185.04 544.428C1184.86 544.109 1184.69 543.79 1184.5 543.462C1184.1 542.711 1184.1 542.711 1183.57 542.225C1182.47 542.067 1181.36 541.909 1180.22 541.746C1180.22 544.592 1180.22 547.437 1180.22 550.369C1178.64 550.369 1177.06 550.369 1175.43 550.369C1175.43 542.149 1175.43 533.928 1175.43 525.459ZM1180.22 530.249C1180.22 532.621 1180.22 534.992 1180.22 537.435C1184 537.726 1184 537.726 1187.5 536.627C1188.47 535.383 1188.8 534.701 1188.84 533.124C1188.46 531.907 1188.14 531.377 1187.07 530.678C1185.66 530.128 1184.49 530.156 1182.98 530.189C1182.07 530.209 1181.16 530.229 1180.22 530.249Z" fill="#0D153A"/>
</svg>
