<svg width="315" height="65" viewBox="0 0 315 65" fill="none" xmlns="http://www.w3.org/2000/svg">
<g clip-path="url(#clip0_1479_1649)">
<path d="M116.694 38.7782C116.694 39.9621 116.494 41.9001 116.257 42.8099C115.665 44.9847 114.4 45.5393 111.788 45.5393H103.878C103.679 47.1594 103.604 48.2686 103.604 49.1784C103.604 51.7894 104.632 52.4624 108.865 52.4624C111.277 52.4624 113.378 52.344 114.761 52.0698L114.998 52.2692L114.917 53.0606C114.718 54.4066 113.134 54.8802 108.11 54.8802C102.257 54.8802 100.512 54.0078 100.475 49.6582C100.437 47.0847 101.185 40.5604 102.257 37.993C103.442 34.9458 105.542 34.6343 110.093 34.6343C114.917 34.6343 116.7 35.1889 116.7 38.7844L116.694 38.7782ZM104.152 43.3271H110.915C112.337 43.3271 113.01 43.0093 113.247 42.0621C113.446 41.3081 113.521 40.2799 113.521 39.4138C113.521 37.32 112.648 37.0396 109.606 37.0396C105.374 37.0396 104.9 37.5568 104.146 43.3271H104.152Z" fill="#1D2362"/>
<path d="M133.711 36.1734C133.711 36.4102 133.673 36.6844 133.673 36.809L133.592 37.2452L133.393 37.401C132.09 37.2016 130.581 37.0832 128.643 37.0832C125.321 37.0832 124.292 37.1642 123.775 38.1924C123.419 38.828 123.22 40.766 123.22 41.3954C123.22 42.6604 123.856 42.8161 125.794 43.0155L129.316 43.4081C131.89 43.7259 133.156 44.3553 133.156 46.9663C133.156 48.2686 132.801 51.2784 132.09 52.6244C131.18 54.4066 129.397 54.8802 125.165 54.8802C120.34 54.8802 118.557 54.5624 118.557 53.3784C118.557 53.1042 118.638 52.7428 118.638 52.587L118.719 52.1134L118.919 51.9576C120.222 52.1944 122.085 52.4312 124.616 52.4312C127.702 52.4312 128.849 52.3128 129.366 51.2473C129.721 50.4559 129.958 48.4805 129.958 47.7639C129.958 46.4989 129.403 46.1811 127.502 45.9817L123.98 45.5891C120.895 45.2339 120.022 44.3241 120.022 42.3488C120.022 41.2022 120.296 38.6722 120.895 37.3636C121.768 34.9895 123.825 34.6343 128.256 34.6343C131.697 34.6343 133.717 34.8337 133.717 36.1797L133.711 36.1734Z" fill="#1D2362"/>
<path d="M154.274 39.4511C154.274 41.8627 153.52 48.387 152.809 50.7238C151.744 54.1635 149.923 54.8739 145.292 54.8739C141.808 54.8739 140.386 54.5187 139.557 52.8985L138.329 62.8626L135.163 63.3362L138.647 35.0954L139.003 34.8586H140.231C141.178 34.8586 141.496 35.0954 141.577 36.6407C142.606 35.2574 143.833 34.6218 148.028 34.6218C152.816 34.6218 154.28 35.4942 154.28 39.4449L154.274 39.4511ZM141.097 40.4793L140.106 48.6674C139.988 49.2594 139.95 49.6956 139.95 50.0134C139.95 51.7146 141.016 52.4249 144.7 52.4249C147.785 52.4249 149.013 52.0698 149.761 49.7766C150.353 47.9944 151.064 42.2989 151.064 40.3235C151.027 37.4384 149.955 37.0832 146.551 37.0832C143.503 37.0832 141.446 37.5568 141.091 40.4855L141.097 40.4793Z" fill="#1D2362"/>
<path d="M172.301 36.6844C172.694 35.0642 173.13 34.8648 174.084 34.8648H175.349L175.549 35.1016L173.174 54.4003L172.856 54.6371H172.027C170.799 54.6371 170.643 54.4813 170.406 52.1071C169.652 53.6089 168.031 54.8739 163.562 54.8739C159.093 54.8739 157.628 53.8083 157.628 49.8888C157.628 47.122 158.338 40.9529 159.211 38.5351C160.321 35.2511 162.141 34.6218 166.373 34.6218C170.132 34.6218 171.516 34.9396 172.307 36.6781L172.301 36.6844ZM162.134 39.5321C161.499 41.3143 160.788 46.9662 160.788 49.1036C160.788 52.0324 161.935 52.4249 165.102 52.4249C169.06 52.4249 170.481 50.8422 170.88 47.9134L171.752 40.9155C171.871 40.1615 171.871 39.8063 171.871 39.4947C171.871 37.7562 170.88 37.0832 167.121 37.0832C164.191 37.0832 162.851 37.3574 162.134 39.5384V39.5321Z" fill="#1D2362"/>
<path d="M194.248 36.0488C194.248 36.2482 194.167 36.7592 194.167 36.7592L194.13 37.1518L193.775 37.3886C192.353 37.1518 190.77 37.0708 188.751 37.0708C185.428 37.0708 184.044 37.1518 183.172 39.6443C182.58 41.3829 181.869 47.1968 181.869 49.0164C181.869 52.1384 183.097 52.4188 186.856 52.4188C189.15 52.4188 190.889 52.263 192.198 52.0262L192.435 52.2256L192.353 52.936C192.198 54.282 190.733 54.8739 185.983 54.8739L185.628 57.6843C188.395 57.8027 189.424 58.0021 189.424 59.9775C189.424 60.8873 189.224 62.7879 188.713 63.654C188.077 64.8006 186.737 65 184.437 65C182.461 65 181.389 64.7632 181.389 63.9718C181.389 63.816 181.427 63.5792 181.427 63.4608L181.464 63.1057L181.701 62.9873C182.218 63.143 183.122 63.2241 184.275 63.2241C185.659 63.2241 186.295 63.143 186.65 62.6695C186.924 62.2769 187.043 61.2051 187.043 60.7689C187.043 59.5039 186.332 59.3855 183.203 59.3855L183.758 54.7992C179.8 54.5624 178.653 53.3348 178.653 49.8576C178.653 47.4835 179.444 41.3518 180.199 38.9838C181.464 34.9521 183.602 34.6343 188.626 34.6343C192.304 34.6343 194.242 34.9521 194.242 36.055L194.248 36.0488Z" fill="#1D2362"/>
<path d="M213.422 39.9683C213.422 42.2241 212.711 48.4306 211.876 50.7238C210.729 54.1261 208.591 54.8739 203.486 54.8739C197.752 54.8739 196.006 53.9267 196.006 49.4526C196.006 47.041 196.679 40.7535 197.708 38.2609C198.936 35.2948 201.068 34.6218 205.936 34.6218C211.633 34.6218 213.416 35.5689 213.416 39.9621L213.422 39.9683ZM200.6 39.3327C199.89 41.1523 199.216 47.122 199.216 48.9852C199.216 52.0698 200.363 52.4249 203.767 52.4249C206.89 52.4249 208.161 52.1071 208.947 49.7766C209.62 47.8386 210.212 42.3799 210.212 40.5229C210.212 37.4384 209.065 37.0832 205.662 37.0832C202.732 37.0832 201.386 37.3574 200.6 39.339V39.3327Z" fill="#1D2362"/>
<path d="M240.437 36.6844C240.83 35.0642 241.266 34.8648 242.22 34.8648H243.485L243.685 35.1016L241.31 54.4003L240.992 54.6371H240.163C238.935 54.6371 238.779 54.4813 238.542 52.1071C237.788 53.6089 236.167 54.8739 231.698 54.8739C227.229 54.8739 225.764 53.8083 225.764 49.8888C225.764 47.122 226.475 40.9529 227.347 38.5351C228.457 35.2511 230.277 34.6218 234.509 34.6218C238.268 34.6218 239.652 34.9396 240.443 36.6781L240.437 36.6844ZM230.271 39.5321C229.635 41.3143 228.924 46.9662 228.924 49.1036C228.924 52.0324 230.071 52.4249 233.238 52.4249C237.196 52.4249 238.617 50.8422 239.016 47.9134L239.889 40.9155C240.007 40.1615 240.007 39.8063 240.007 39.4947C240.007 37.7562 239.016 37.0832 235.257 37.0832C232.328 37.0832 230.988 37.3574 230.271 39.5384V39.5321Z" fill="#1D2362"/>
<path d="M263.077 38.7781C263.077 39.9621 262.877 41.9001 262.64 42.8099C262.048 44.9846 260.783 45.5392 258.171 45.5392H250.261C250.061 47.1594 249.987 48.2686 249.987 49.1784C249.987 51.7894 251.015 52.4624 255.248 52.4624C257.66 52.4624 259.76 52.344 261.144 52.0698L261.381 52.2692L261.3 53.0606C261.101 54.4066 259.517 54.8802 254.493 54.8802C248.64 54.8802 246.895 54.0078 246.857 49.6582C246.82 47.0846 247.568 40.5603 248.64 37.993C249.825 34.9458 251.925 34.6343 256.475 34.6343C261.3 34.6343 263.083 35.1888 263.083 38.7844L263.077 38.7781ZM250.535 43.3271H257.298C258.719 43.3271 259.393 43.0093 259.63 42.0621C259.829 41.3081 259.904 40.2799 259.904 39.4138C259.904 37.32 259.031 37.0396 255.989 37.0396C251.757 37.0396 251.283 37.5568 250.529 43.3271H250.535ZM255.516 32.1354L259.548 25.6111H262.833L257.89 32.1354H255.516Z" fill="#1D2362"/>
<path d="M277.276 37.32C272.925 37.32 270.631 37.5194 270.232 40.5604L268.493 54.6434H265.37L267.783 35.1079L268.101 34.8711H269.366C270.357 34.8711 270.669 35.0705 270.631 36.8464C271.978 34.9458 273.324 34.6343 277.357 34.6343L277.594 34.8711L277.276 37.3263V37.32Z" fill="#1D2362"/>
<path d="M294.985 38.7782C294.985 39.9621 294.785 41.9001 294.549 42.8099C293.956 44.9847 292.691 45.5393 290.079 45.5393H282.169C281.97 47.1594 281.895 48.2686 281.895 49.1784C281.895 51.7894 282.923 52.4624 287.156 52.4624C289.568 52.4624 291.669 52.344 293.053 52.0698L293.289 52.2692L293.208 53.0606C293.009 54.4066 291.426 54.8802 286.402 54.8802C280.549 54.8802 278.803 54.0078 278.766 49.6582C278.728 47.0847 279.476 40.5604 280.548 37.993C281.733 34.9458 283.833 34.6343 288.384 34.6343C293.208 34.6343 294.991 35.1889 294.991 38.7844L294.985 38.7782ZM282.443 43.3271H289.207C290.628 43.3271 291.301 43.0093 291.538 42.0621C291.737 41.3081 291.812 40.2799 291.812 39.4138C291.812 37.32 290.939 37.0396 287.898 37.0396C283.665 37.0396 283.191 37.5568 282.437 43.3271H282.443Z" fill="#1D2362"/>
<path d="M315 39.9683C315 42.2241 314.289 48.4306 313.454 50.7238C312.307 54.1261 310.169 54.8739 305.064 54.8739C299.329 54.8739 297.584 53.9267 297.584 49.4526C297.584 47.041 298.257 40.7535 299.286 38.2609C300.514 35.2948 302.646 34.6218 307.514 34.6218C313.211 34.6218 314.994 35.5689 314.994 39.9621L315 39.9683ZM302.184 39.3327C301.474 41.1523 300.801 47.122 300.801 48.9852C300.801 52.0698 301.947 52.4249 305.351 52.4249C308.474 52.4249 309.745 52.1071 310.531 49.7766C311.204 47.8386 311.796 42.3799 311.796 40.5229C311.796 37.4384 310.649 37.0832 307.246 37.0832C304.316 37.0832 302.97 37.3574 302.184 39.339V39.3327Z" fill="#1D2362"/>
<path d="M140.499 7.8516C133.642 3.72016 124.89 0 114.481 0C108.796 0 102.625 1.71987 96.7657 4.9976C96.7657 4.9976 46.9055 34.5906 28.4985 39.2767C19.8841 41.4452 10.7523 42.6541 2.16906 41.9313L0.0995997 41.6882C0.0310333 41.6882 -0.0749328 41.7256 0.0310333 41.8253L0.860063 42.7227C9.54305 51.9576 19.535 58.9493 34.5261 58.6751C39.4193 58.5692 44.5181 57.3291 49.7915 54.6808C77.2928 40.9342 118.296 15.3418 140.249 8.13824C140.698 8.00115 140.561 7.93261 140.492 7.86406L140.499 7.8516Z" fill="#56A6DC"/>
<path d="M87.3286 4.10027C77.854 6.85456 49.3865 13.572 34.9127 13.572H34.1523C18.8183 13.2605 16.8549 12.7121 16.8549 12.7121C18.8869 17.6038 26.9154 28.247 33.4666 28.247C45.1478 28.247 79.6055 8.9234 87.4283 4.30591C87.5343 4.23737 87.634 3.99434 87.3223 4.10027H87.3286Z" fill="#F6A608"/>
</g>
<defs>
<clipPath id="clip0_1479_1649">
<rect width="315" height="65" fill="white"/>
</clipPath>
</defs>
</svg>
