<svg width="121" height="121" viewBox="0 0 121 121" fill="none" xmlns="http://www.w3.org/2000/svg">
<path d="M93.215 60.2859C93.215 78.2489 78.652 92.8109 60.692 92.8109C42.728 92.8109 28.168 78.2479 28.168 60.2859C28.168 42.3239 42.728 27.762 60.692 27.762C78.652 27.762 93.215 42.3239 93.215 60.2859Z" fill="#F6921E"/>
<path d="M101.631 71.256L120.633 60.286L101.631 49.316L112.602 30.315L90.663 30.316V8.375L71.662 19.346L60.692 0.344971L49.721 19.346L30.721 8.375V30.315H8.78003L19.751 49.316L0.750977 60.286L19.751 71.255L8.78003 90.258L30.721 90.257V112.198L49.72 101.227L60.692 120.229L71.661 101.227L90.663 112.198L90.661 90.258H112.602L101.631 71.256ZM24.605 60.286C24.605 40.39 40.793 24.201 60.691 24.201C80.587 24.201 96.776 40.389 96.776 60.286C96.776 80.184 80.588 96.372 60.691 96.372C40.793 96.372 24.605 80.184 24.605 60.286Z" fill="#FAAF3B"/>
</svg>
